<svg width="702" height="433" viewBox="0 0 702 433" fill="none" xmlns="http://www.w3.org/2000/svg">
<rect x="96" y="80" width="274" height="32" fill="#431BBB"/>
<rect x="96" y="120" width="274" height="32" fill="#431BBB"/>
<rect x="96" y="160" width="274" height="32" fill="#431BBB"/>
<rect x="96" y="200" width="274" height="32" fill="#431BBB"/>
<rect x="370" y="80" width="275" height="32" fill="#170845"/>
<rect x="370" y="120" width="275" height="32" fill="#170845"/>
<rect x="370" y="160" width="275" height="32" fill="#170845"/>
<rect x="370" y="200" width="275" height="32" fill="#170845"/>
<rect x="64" y="80" width="32" height="32" fill="#B54897"/>
<rect x="64" y="120" width="32" height="32" fill="#B54897"/>
<rect x="64" y="160" width="32" height="32" fill="#B54897"/>
<rect x="64" y="200" width="32" height="32" fill="#B54897"/>
<path d="M85.5624 94.559V100.435C85.3324 100.872 84.9874 101.309 84.5274 101.746C84.0674 102.176 83.4924 102.536 82.8024 102.827C82.1201 103.111 81.3227 103.253 80.4104 103.253C79.6591 103.253 78.9269 103.1 78.2139 102.793C77.5086 102.486 76.8684 102.003 76.2934 101.344C75.7261 100.685 75.2737 99.8337 74.9364 98.791C74.5991 97.7407 74.4304 96.4757 74.4304 94.996C74.4304 93.5163 74.5991 92.2552 74.9364 91.2125C75.2814 90.1698 75.7414 89.3227 76.3164 88.671C76.8914 88.0117 77.5354 87.5287 78.2484 87.222C78.9614 86.9153 79.6897 86.762 80.4334 86.762C81.3687 86.762 82.1661 86.9307 82.8254 87.268C83.4847 87.5977 84.0214 88.0385 84.4354 88.5905C84.8571 89.1348 85.1791 89.7367 85.4014 90.396L82.7794 91.6265C82.6721 91.2968 82.5187 90.9442 82.3194 90.5685C82.1277 90.1852 81.8747 89.8593 81.5604 89.591C81.2537 89.3227 80.8781 89.1885 80.4334 89.1885C79.6437 89.1885 78.9614 89.6562 78.3864 90.5915C77.8191 91.5192 77.5354 92.9873 77.5354 94.996C77.5354 96.3377 77.6696 97.4378 77.9379 98.2965C78.2139 99.1552 78.5704 99.7915 79.0074 100.205C79.4444 100.619 79.9121 100.826 80.4104 100.826C81.0467 100.826 81.5374 100.708 81.8824 100.47C82.2274 100.232 82.4881 99.9947 82.6644 99.757V96.8015H80.3069V94.559H85.5624Z" fill="black"/>
<path d="M81.8364 140.861H84.2514V143H76.3394V140.861H78.9384V129.959L76.4544 131.534L75.4424 129.407L79.3754 126.9H81.8364V140.861Z" fill="black"/>
<path d="M84.2859 171.408C84.2859 172.06 84.1556 172.75 83.8949 173.478C83.6419 174.206 83.3122 174.935 82.9059 175.663C82.4996 176.384 82.0626 177.074 81.5949 177.733C81.1272 178.385 80.6826 178.967 80.2609 179.481C79.8392 179.995 79.4866 180.393 79.2029 180.677H84.5964V183H75.2699V180.769C75.6532 180.409 76.1017 179.949 76.6154 179.389C77.1367 178.829 77.6696 178.216 78.2139 177.549C78.7582 176.874 79.2604 176.18 79.7204 175.467C80.1881 174.754 80.5676 174.061 80.8589 173.386C81.1502 172.704 81.2959 172.083 81.2959 171.523C81.2959 170.703 81.1541 170.078 80.8704 169.648C80.5944 169.219 80.1536 169.004 79.5479 169.004C79.1722 169.004 78.8272 169.146 78.5129 169.43C78.1986 169.706 77.9264 170.066 77.6964 170.511C77.4664 170.948 77.2824 171.4 77.1444 171.868L74.6029 170.683C74.9479 169.533 75.5536 168.594 76.4199 167.866C77.2939 167.13 78.3711 166.762 79.6514 166.762C81.0927 166.762 82.2236 167.176 83.0439 168.004C83.8719 168.824 84.2859 169.959 84.2859 171.408Z" fill="black"/>
<path d="M80.9854 213.926C81.1924 213.773 81.5221 213.696 81.9744 213.696C82.9327 213.696 83.7147 214.084 84.3204 214.858C84.9261 215.632 85.2289 216.713 85.2289 218.101C85.2289 219.742 84.7612 221.01 83.8259 221.907C82.8982 222.804 81.6907 223.253 80.2034 223.253C79.2451 223.253 78.4286 223.1 77.7539 222.793C77.0792 222.479 76.5234 222.068 76.0864 221.562C75.6494 221.049 75.3082 220.497 75.0629 219.906L77.4549 218.572C77.7002 219.232 78.0414 219.803 78.4784 220.286C78.9231 220.761 79.4827 220.999 80.1574 220.999C80.8704 220.999 81.4262 220.731 81.8249 220.194C82.2312 219.657 82.4344 218.971 82.4344 218.135C82.4344 217.3 82.2734 216.652 81.9514 216.192C81.6294 215.732 81.1694 215.502 80.5714 215.502C80.0654 215.502 79.6016 215.667 79.1799 215.996L77.4204 214.57L81.4224 209.039H75.6609V206.9H84.6079V209.039L80.9854 213.926Z" fill="black"/>
<rect x="564" y="90" width="74" height="12" rx="3" fill="#D9EBD4"/>
<rect x="564" y="130" width="74" height="12" rx="3" fill="#D9EBD4"/>
<rect x="564" y="170" width="74" height="12" rx="3" fill="#D9EBD4"/>
<rect x="564" y="210" width="74" height="12" rx="3" fill="#D9EBD4"/>
<path d="M51.017 34.223H45.267V38.9265H49.8785V41.2495H45.267V45.677H51.017V48H42.208V31.9H51.017V34.223ZM64.6977 36.5L61.6617 42.204L64.6977 48H61.6617L59.4882 43.2735H59.0167L56.8317 48H53.7957L56.8202 42.1925L53.7957 36.5H56.8317L58.9822 41.0885H59.5112L61.6502 36.5H64.6977ZM72.6974 34.062C72.107 34.062 71.6049 33.8588 71.1909 33.4525C70.7845 33.0385 70.5814 32.5363 70.5814 31.946C70.5814 31.3557 70.7845 30.8573 71.1909 30.451C71.6049 30.037 72.107 29.83 72.6974 29.83C73.2877 29.83 73.786 30.037 74.1924 30.451C74.6064 30.8573 74.8134 31.3557 74.8134 31.946C74.8134 32.5363 74.6064 33.0385 74.1924 33.4525C73.786 33.8588 73.2877 34.062 72.6974 34.062ZM74.2614 45.677H77.5849V48H71.0989V38.823H67.8329V36.5H74.2614V45.677ZM85.8606 48.253C84.7106 48.253 83.6832 48.0843 82.7786 47.747C81.8816 47.402 81.2107 46.9343 80.7661 46.344L83.2386 44.734C83.4609 45.0943 83.8097 45.3818 84.2851 45.5965C84.7681 45.8035 85.3086 45.907 85.9066 45.907C86.5506 45.907 87.0642 45.8188 87.4476 45.6425C87.8386 45.4585 88.0341 45.1595 88.0341 44.7455C88.0341 44.3698 87.7811 44.0632 87.2751 43.8255C86.7691 43.5878 86.0752 43.3693 85.1936 43.17C84.4499 42.986 83.7752 42.7445 83.1696 42.4455C82.5716 42.1465 82.0924 41.7632 81.7321 41.2955C81.3794 40.8278 81.2031 40.2413 81.2031 39.536C81.2031 38.7923 81.4331 38.1752 81.8931 37.6845C82.3607 37.1938 82.9664 36.8297 83.7101 36.592C84.4537 36.3467 85.2472 36.224 86.0906 36.224C87.3249 36.224 88.3522 36.4195 89.1726 36.8105C90.0006 37.2015 90.5449 37.6538 90.8056 38.1675L88.4251 39.697C88.2794 39.3597 87.9881 39.0837 87.5511 38.869C87.1141 38.6467 86.6349 38.5355 86.1136 38.5355C85.5692 38.5355 85.1092 38.6198 84.7336 38.7885C84.3579 38.9572 84.1701 39.2217 84.1701 39.582C84.1701 39.95 84.3617 40.2222 84.7451 40.3985C85.1361 40.5748 85.7034 40.7435 86.4471 40.9045C86.8917 41.0042 87.3747 41.146 87.8961 41.33C88.4251 41.5063 88.9234 41.7363 89.3911 42.02C89.8587 42.3037 90.2421 42.6563 90.5411 43.078C90.8401 43.4997 90.9896 44.0095 90.9896 44.6075C90.9896 45.4278 90.7442 46.1102 90.2536 46.6545C89.7629 47.1912 89.1266 47.5937 88.3446 47.862C87.5626 48.1227 86.7346 48.253 85.8606 48.253ZM100.036 45.861H103.014V48H96.8963V38.823H93.8948V36.5H96.8963V33.004H100.036V36.5H103.267V38.823H100.036V45.861ZM112.049 34.062C111.459 34.062 110.956 33.8588 110.542 33.4525C110.136 33.0385 109.933 32.5363 109.933 31.946C109.933 31.3557 110.136 30.8573 110.542 30.451C110.956 30.037 111.459 29.83 112.049 29.83C112.639 29.83 113.138 30.037 113.544 30.451C113.958 30.8573 114.165 31.3557 114.165 31.946C114.165 32.5363 113.958 33.0385 113.544 33.4525C113.138 33.8588 112.639 34.062 112.049 34.062ZM113.613 45.677H116.936V48H110.45V38.823H107.184V36.5H113.613V45.677ZM120.555 48V36.5H123.039L123.441 38.0755C123.817 37.5312 124.288 37.0903 124.856 36.753C125.423 36.4157 126.063 36.247 126.776 36.247C127.987 36.247 128.884 36.638 129.467 37.42C130.05 38.1943 130.341 39.2792 130.341 40.6745V48H127.19V41.1345C127.19 40.4215 127.067 39.835 126.822 39.375C126.584 38.9073 126.205 38.6735 125.684 38.6735C125.293 38.6735 124.951 38.8 124.66 39.053C124.369 39.2983 124.135 39.605 123.959 39.973C123.782 40.341 123.671 40.7052 123.625 41.0655V48H120.555ZM138.214 44.5385C137.501 44.5385 136.838 44.4542 136.225 44.2855C136.002 44.5308 135.891 44.7685 135.891 44.9985C135.891 45.5582 136.34 45.838 137.237 45.838H139.939C141.074 45.838 142.005 46.0833 142.734 46.574C143.47 47.0647 143.838 47.8965 143.838 49.0695C143.838 50.2425 143.328 51.128 142.308 51.726C141.289 52.324 139.912 52.623 138.18 52.623C136.501 52.623 135.197 52.3585 134.27 51.8295C133.342 51.3005 132.878 50.5568 132.878 49.5985C132.878 49.0618 133.032 48.6095 133.338 48.2415C133.653 47.8812 133.994 47.5898 134.362 47.3675C134.07 47.1528 133.829 46.8922 133.637 46.5855C133.446 46.2712 133.35 45.9185 133.35 45.5275C133.35 45.0522 133.476 44.6458 133.729 44.3085C133.99 43.9712 134.27 43.6913 134.569 43.469C134.139 43.1393 133.794 42.7215 133.534 42.2155C133.281 41.7018 133.154 41.0923 133.154 40.387C133.154 39.398 133.396 38.6007 133.879 37.995C134.362 37.3817 134.987 36.9332 135.753 36.6495C136.528 36.3658 137.348 36.224 138.214 36.224C138.659 36.224 139.096 36.2623 139.525 36.339C139.962 36.4157 140.372 36.5307 140.756 36.684L142.458 34.591L144.229 36.2125L142.343 37.7995C142.626 38.1215 142.845 38.4972 142.998 38.9265C143.159 39.3558 143.24 39.8427 143.24 40.387C143.24 41.1307 143.09 41.767 142.791 42.296C142.5 42.825 142.109 43.2543 141.618 43.584C141.128 43.9137 140.583 44.1552 139.985 44.3085C139.395 44.4618 138.805 44.5385 138.214 44.5385ZM138.214 42.25C138.789 42.25 139.249 42.0928 139.594 41.7785C139.939 41.4565 140.112 40.9888 140.112 40.3755C140.112 39.1335 139.479 38.5125 138.214 38.5125C136.942 38.5125 136.305 39.1335 136.305 40.3755C136.305 40.9888 136.478 41.4565 136.823 41.7785C137.168 42.0928 137.632 42.25 138.214 42.25ZM135.569 49.1845C135.569 49.5602 135.784 49.8592 136.213 50.0815C136.65 50.3038 137.333 50.415 138.26 50.415C140.131 50.415 141.066 49.9972 141.066 49.1615C141.066 48.4025 140.51 48.023 139.399 48.023H136.167H136.156C135.987 48.161 135.845 48.3297 135.73 48.529C135.623 48.7283 135.569 48.9468 135.569 49.1845ZM159.55 48V29.6H162.701V37.6845C163.038 37.2475 163.452 36.8987 163.943 36.638C164.433 36.3773 165.005 36.247 165.656 36.247C166.944 36.247 167.96 36.7415 168.704 37.7305C169.447 38.7118 169.819 40.2107 169.819 42.227C169.819 44.2433 169.436 45.7537 168.669 46.758C167.903 47.7547 166.856 48.253 165.53 48.253C164.824 48.253 164.226 48.1073 163.736 47.816C163.253 47.5247 162.858 47.1375 162.551 46.6545L162.103 48H159.55ZM164.644 38.6735C164.1 38.6735 163.659 38.915 163.322 39.398C162.992 39.881 162.785 40.4292 162.701 41.0425V43.285C162.754 43.7143 162.854 44.1245 163 44.5155C163.153 44.8988 163.36 45.2132 163.621 45.4585C163.889 45.7038 164.219 45.8265 164.61 45.8265C165.223 45.8265 165.695 45.516 166.024 44.895C166.354 44.274 166.519 43.3847 166.519 42.227C166.519 39.858 165.894 38.6735 164.644 38.6735ZM178.75 45.677H182.016V48H175.599V31.923H172.448V29.6H178.75V45.677ZM190.833 48.253C190.212 48.253 189.598 48.1495 188.993 47.9425C188.395 47.7355 187.85 47.3982 187.36 46.9305C186.877 46.4628 186.489 45.8457 186.198 45.079C185.914 44.3047 185.773 43.354 185.773 42.227C185.773 41.1077 185.914 40.1647 186.198 39.398C186.489 38.6237 186.877 38.0065 187.36 37.5465C187.843 37.0788 188.383 36.7415 188.981 36.5345C189.587 36.3275 190.204 36.224 190.833 36.224C191.454 36.224 192.063 36.3275 192.661 36.5345C193.259 36.7415 193.8 37.0788 194.283 37.5465C194.773 38.0142 195.16 38.6313 195.444 39.398C195.735 40.1647 195.881 41.1077 195.881 42.227C195.881 43.354 195.735 44.3047 195.444 45.079C195.16 45.8457 194.773 46.4628 194.283 46.9305C193.8 47.3982 193.259 47.7355 192.661 47.9425C192.063 48.1495 191.454 48.253 190.833 48.253ZM190.833 45.838C191.185 45.838 191.503 45.7383 191.787 45.539C192.078 45.3397 192.308 44.9793 192.477 44.458C192.653 43.9367 192.742 43.193 192.742 42.227C192.742 41.2763 192.653 40.5403 192.477 40.019C192.308 39.4977 192.078 39.1373 191.787 38.938C191.503 38.7387 191.185 38.639 190.833 38.639C190.465 38.639 190.135 38.7387 189.844 38.938C189.552 39.1373 189.322 39.4977 189.154 40.019C188.985 40.5403 188.901 41.2763 188.901 42.227C188.901 43.193 188.985 43.9367 189.154 44.458C189.33 44.9793 189.564 45.3397 189.855 45.539C190.146 45.7383 190.472 45.838 190.833 45.838ZM209.297 45.4125C209.106 45.9032 208.784 46.367 208.331 46.804C207.887 47.2333 207.346 47.5822 206.71 47.8505C206.073 48.1188 205.38 48.253 204.628 48.253C203.739 48.253 202.884 48.046 202.064 47.632C201.251 47.218 200.584 46.5702 200.063 45.6885C199.541 44.7992 199.281 43.6453 199.281 42.227C199.281 40.7933 199.541 39.6357 200.063 38.754C200.584 37.8723 201.251 37.2322 202.064 36.8335C202.884 36.4272 203.739 36.224 204.628 36.224C205.755 36.224 206.74 36.4923 207.584 37.029C208.427 37.558 208.991 38.2442 209.274 39.0875L206.687 40.502C206.51 39.9423 206.265 39.49 205.951 39.145C205.636 38.7923 205.203 38.616 204.651 38.616C204.038 38.616 203.517 38.8882 203.087 39.4325C202.658 39.9692 202.443 40.9007 202.443 42.227C202.443 43.5303 202.658 44.4618 203.087 45.0215C203.517 45.5812 204.038 45.861 204.651 45.861C205.203 45.861 205.64 45.677 205.962 45.309C206.292 44.941 206.526 44.5078 206.664 44.0095L209.297 45.4125ZM219.631 48L216.457 43.1125H215.48V48H212.34V29.6H215.48V40.9735H216.446L219.286 36.5H222.667L218.803 41.9855L223.001 48H219.631ZM235.532 45.4125C235.34 45.9032 235.018 46.367 234.566 46.804C234.121 47.2333 233.58 47.5822 232.944 47.8505C232.308 48.1188 231.614 48.253 230.863 48.253C229.973 48.253 229.118 48.046 228.298 47.632C227.485 47.218 226.818 46.5702 226.297 45.6885C225.776 44.7992 225.515 43.6453 225.515 42.227C225.515 40.7933 225.776 39.6357 226.297 38.754C226.818 37.8723 227.485 37.2322 228.298 36.8335C229.118 36.4272 229.973 36.224 230.863 36.224C231.99 36.224 232.975 36.4923 233.818 37.029C234.661 37.558 235.225 38.2442 235.509 39.0875L232.921 40.502C232.745 39.9423 232.499 39.49 232.185 39.145C231.871 38.7923 231.438 38.616 230.886 38.616C230.272 38.616 229.751 38.8882 229.322 39.4325C228.892 39.9692 228.678 40.9007 228.678 42.227C228.678 43.5303 228.892 44.4618 229.322 45.0215C229.751 45.5812 230.272 45.861 230.886 45.861C231.438 45.861 231.875 45.677 232.197 45.309C232.526 44.941 232.76 44.5078 232.898 44.0095L235.532 45.4125ZM238.287 48V29.6H241.415V37.7995C241.837 37.3242 242.328 36.9485 242.887 36.6725C243.455 36.3888 244.049 36.247 244.67 36.247C245.781 36.247 246.667 36.6073 247.326 37.328C247.993 38.041 248.327 39.2217 248.327 40.87V48H245.176V41.3415C245.176 39.5628 244.612 38.6735 243.485 38.6735C242.918 38.6735 242.443 38.938 242.059 39.467C241.684 39.996 241.469 40.6285 241.415 41.3645V48H238.287ZM260.076 48.391L258.937 46.896C258.638 47.241 258.213 47.5553 257.661 47.839C257.109 48.115 256.388 48.253 255.499 48.253C254.211 48.253 253.16 47.9272 252.348 47.2755C251.535 46.6162 251.129 45.6578 251.129 44.4005C251.129 43.2582 251.585 42.3803 252.497 41.767C253.409 41.146 254.621 40.8355 256.131 40.8355H257.971V40.364C257.971 39.789 257.787 39.3597 257.419 39.076C257.051 38.7847 256.583 38.639 256.016 38.639C255.472 38.639 255.012 38.777 254.636 39.053C254.268 39.3213 254.004 39.582 253.843 39.835L251.278 38.2365C251.562 37.7382 252.125 37.2782 252.969 36.8565C253.82 36.4348 254.87 36.224 256.12 36.224C257.04 36.224 257.868 36.3697 258.604 36.661C259.347 36.9523 259.934 37.3702 260.363 37.9145C260.792 38.4588 261.007 39.1105 261.007 39.8695V45.2055L262.318 46.8155L260.076 48.391ZM255.947 46.0335C256.438 46.0335 256.856 45.9223 257.201 45.7C257.553 45.4777 257.81 45.1978 257.971 44.8605V42.986H256.327C255.644 42.986 255.115 43.1087 254.74 43.354C254.372 43.5993 254.188 43.975 254.188 44.481C254.188 45.0253 254.341 45.4202 254.648 45.6655C254.954 45.9108 255.387 46.0335 255.947 46.0335ZM269.455 34.062C268.865 34.062 268.363 33.8588 267.949 33.4525C267.542 33.0385 267.339 32.5363 267.339 31.946C267.339 31.3557 267.542 30.8573 267.949 30.451C268.363 30.037 268.865 29.83 269.455 29.83C270.046 29.83 270.544 30.037 270.95 30.451C271.364 30.8573 271.571 31.3557 271.571 31.946C271.571 32.5363 271.364 33.0385 270.95 33.4525C270.544 33.8588 270.046 34.062 269.455 34.062ZM271.019 45.677H274.343V48H267.857V38.823H264.591V36.5H271.019V45.677ZM277.961 48V36.5H280.445L280.847 38.0755C281.223 37.5312 281.695 37.0903 282.262 36.753C282.829 36.4157 283.469 36.247 284.182 36.247C285.394 36.247 286.291 36.638 286.873 37.42C287.456 38.1943 287.747 39.2792 287.747 40.6745V48H284.596V41.1345C284.596 40.4215 284.474 39.835 284.228 39.375C283.991 38.9073 283.611 38.6735 283.09 38.6735C282.699 38.6735 282.358 38.8 282.066 39.053C281.775 39.2983 281.541 39.605 281.365 39.973C281.189 40.341 281.077 40.7052 281.031 41.0655V48H277.961ZM308.887 48.253C308.266 48.253 307.653 48.1495 307.047 47.9425C306.449 47.7355 305.905 47.3982 305.414 46.9305C304.931 46.4628 304.544 45.8457 304.253 45.079C303.969 44.3047 303.827 43.354 303.827 42.227C303.827 41.1077 303.969 40.1647 304.253 39.398C304.544 38.6237 304.931 38.0065 305.414 37.5465C305.897 37.0788 306.438 36.7415 307.036 36.5345C307.641 36.3275 308.259 36.224 308.887 36.224C309.508 36.224 310.118 36.3275 310.716 36.5345C311.314 36.7415 311.854 37.0788 312.337 37.5465C312.828 38.0142 313.215 38.6313 313.499 39.398C313.79 40.1647 313.936 41.1077 313.936 42.227C313.936 43.354 313.79 44.3047 313.499 45.079C313.215 45.8457 312.828 46.4628 312.337 46.9305C311.854 47.3982 311.314 47.7355 310.716 47.9425C310.118 48.1495 309.508 48.253 308.887 48.253ZM308.887 45.838C309.24 45.838 309.558 45.7383 309.842 45.539C310.133 45.3397 310.363 44.9793 310.532 44.458C310.708 43.9367 310.796 43.193 310.796 42.227C310.796 41.2763 310.708 40.5403 310.532 40.019C310.363 39.4977 310.133 39.1373 309.842 38.938C309.558 38.7387 309.24 38.639 308.887 38.639C308.519 38.639 308.19 38.7387 307.898 38.938C307.607 39.1373 307.377 39.4977 307.208 40.019C307.04 40.5403 306.955 41.2763 306.955 42.227C306.955 43.193 307.04 43.9367 307.208 44.458C307.385 44.9793 307.618 45.3397 307.91 45.539C308.201 45.7383 308.527 45.838 308.887 45.838ZM316.921 36.5H319.566V33.9585C319.566 32.9772 319.773 32.153 320.187 31.486C320.609 30.8113 321.184 30.3015 321.912 29.9565C322.641 29.6115 323.461 29.439 324.373 29.439C325.132 29.439 325.765 29.5502 326.271 29.7725C326.785 29.9872 327.187 30.2363 327.478 30.52C327.777 30.8037 327.988 31.0452 328.111 31.2445L326.19 32.935C326.083 32.705 325.899 32.4635 325.638 32.2105C325.378 31.9498 325.014 31.8195 324.546 31.8195C324.002 31.8195 323.542 32.0073 323.166 32.383C322.798 32.751 322.614 33.441 322.614 34.453V36.5H326.581V38.823H322.614V48H319.566V38.823H316.921V36.5ZM349.262 45.861H352.241V48H346.123V38.823H343.121V36.5H346.123V33.004H349.262V36.5H352.494V38.823H349.262V45.861ZM361.874 45.677H364.116V48H356.515V45.677H358.803V38.823H356.538V36.5H361.172L361.655 37.995C362.084 37.466 362.602 37.0405 363.208 36.7185C363.813 36.3888 364.473 36.224 365.186 36.224C365.784 36.224 366.267 36.3083 366.634 36.477C367.01 36.6457 367.279 36.799 367.44 36.937L365.864 39.513C365.711 39.3673 365.504 39.2332 365.243 39.1105C364.99 38.9802 364.672 38.915 364.289 38.915C363.698 38.915 363.185 39.122 362.748 39.536C362.318 39.95 362.027 40.433 361.874 40.985V45.677ZM378.13 48.391L376.992 46.896C376.693 47.241 376.267 47.5553 375.715 47.839C375.163 48.115 374.443 48.253 373.553 48.253C372.265 48.253 371.215 47.9272 370.402 47.2755C369.59 46.6162 369.183 45.6578 369.183 44.4005C369.183 43.2582 369.639 42.3803 370.552 41.767C371.464 41.146 372.675 40.8355 374.186 40.8355H376.026V40.364C376.026 39.789 375.842 39.3597 375.474 39.076C375.106 38.7847 374.638 38.639 374.071 38.639C373.526 38.639 373.066 38.777 372.691 39.053C372.323 39.3213 372.058 39.582 371.897 39.835L369.333 38.2365C369.616 37.7382 370.18 37.2782 371.023 36.8565C371.874 36.4348 372.925 36.224 374.174 36.224C375.094 36.224 375.922 36.3697 376.658 36.661C377.402 36.9523 377.988 37.3702 378.418 37.9145C378.847 38.4588 379.062 39.1105 379.062 39.8695V45.2055L380.373 46.8155L378.13 48.391ZM374.002 46.0335C374.492 46.0335 374.91 45.9223 375.255 45.7C375.608 45.4777 375.865 45.1978 376.026 44.8605V42.986H374.381C373.699 42.986 373.17 43.1087 372.794 43.354C372.426 43.5993 372.242 43.975 372.242 44.481C372.242 45.0253 372.396 45.4202 372.702 45.6655C373.009 45.9108 373.442 46.0335 374.002 46.0335ZM382.898 48V36.5H385.382L385.785 38.0755C386.161 37.5312 386.632 37.0903 387.199 36.753C387.767 36.4157 388.407 36.247 389.12 36.247C390.331 36.247 391.228 36.638 391.811 37.42C392.394 38.1943 392.685 39.2792 392.685 40.6745V48H389.534V41.1345C389.534 40.4215 389.411 39.835 389.166 39.375C388.928 38.9073 388.549 38.6735 388.027 38.6735C387.636 38.6735 387.295 38.8 387.004 39.053C386.713 39.2983 386.479 39.605 386.302 39.973C386.126 40.341 386.015 40.7052 385.969 41.0655V48H382.898ZM400.673 48.253C399.523 48.253 398.496 48.0843 397.591 47.747C396.694 47.402 396.023 46.9343 395.579 46.344L398.051 44.734C398.273 45.0943 398.622 45.3818 399.098 45.5965C399.581 45.8035 400.121 45.907 400.719 45.907C401.363 45.907 401.877 45.8188 402.26 45.6425C402.651 45.4585 402.847 45.1595 402.847 44.7455C402.847 44.3698 402.594 44.0632 402.088 43.8255C401.582 43.5878 400.888 43.3693 400.006 43.17C399.262 42.986 398.588 42.7445 397.982 42.4455C397.384 42.1465 396.905 41.7632 396.545 41.2955C396.192 40.8278 396.016 40.2413 396.016 39.536C396.016 38.7923 396.246 38.1752 396.706 37.6845C397.173 37.1938 397.779 36.8297 398.523 36.592C399.266 36.3467 400.06 36.224 400.903 36.224C402.137 36.224 403.165 36.4195 403.985 36.8105C404.813 37.2015 405.357 37.6538 405.618 38.1675L403.238 39.697C403.092 39.3597 402.801 39.0837 402.364 38.869C401.927 38.6467 401.447 38.5355 400.926 38.5355C400.382 38.5355 399.922 38.6198 399.546 38.7885C399.17 38.9572 398.983 39.2217 398.983 39.582C398.983 39.95 399.174 40.2222 399.558 40.3985C399.949 40.5748 400.516 40.7435 401.26 40.9045C401.704 41.0042 402.187 41.146 402.709 41.33C403.238 41.5063 403.736 41.7363 404.204 42.02C404.671 42.3037 405.055 42.6563 405.354 43.078C405.653 43.4997 405.802 44.0095 405.802 44.6075C405.802 45.4278 405.557 46.1102 405.066 46.6545C404.575 47.1912 403.939 47.5937 403.157 47.862C402.375 48.1227 401.547 48.253 400.673 48.253ZM417.482 48.391L416.343 46.896C416.044 47.241 415.619 47.5553 415.067 47.839C414.515 48.115 413.794 48.253 412.905 48.253C411.617 48.253 410.566 47.9272 409.754 47.2755C408.941 46.6162 408.535 45.6578 408.535 44.4005C408.535 43.2582 408.991 42.3803 409.903 41.767C410.816 41.146 412.027 40.8355 413.537 40.8355H415.377V40.364C415.377 39.789 415.193 39.3597 414.825 39.076C414.457 38.7847 413.99 38.639 413.422 38.639C412.878 38.639 412.418 38.777 412.042 39.053C411.674 39.3213 411.41 39.582 411.249 39.835L408.684 38.2365C408.968 37.7382 409.531 37.2782 410.375 36.8565C411.226 36.4348 412.276 36.224 413.526 36.224C414.446 36.224 415.274 36.3697 416.01 36.661C416.753 36.9523 417.34 37.3702 417.769 37.9145C418.199 38.4588 418.413 39.1105 418.413 39.8695V45.2055L419.724 46.8155L417.482 48.391ZM413.353 46.0335C413.844 46.0335 414.262 45.9223 414.607 45.7C414.959 45.4777 415.216 45.1978 415.377 44.8605V42.986H413.733C413.05 42.986 412.521 43.1087 412.146 43.354C411.778 43.5993 411.594 43.975 411.594 44.481C411.594 45.0253 411.747 45.4202 412.054 45.6655C412.36 45.9108 412.794 46.0335 413.353 46.0335ZM432.289 45.4125C432.098 45.9032 431.776 46.367 431.323 46.804C430.879 47.2333 430.338 47.5822 429.702 47.8505C429.066 48.1188 428.372 48.253 427.62 48.253C426.731 48.253 425.876 48.046 425.056 47.632C424.243 47.218 423.576 46.5702 423.055 45.6885C422.534 44.7992 422.273 43.6453 422.273 42.227C422.273 40.7933 422.534 39.6357 423.055 38.754C423.576 37.8723 424.243 37.2322 425.056 36.8335C425.876 36.4272 426.731 36.224 427.62 36.224C428.747 36.224 429.733 36.4923 430.576 37.029C431.419 37.558 431.983 38.2442 432.266 39.0875L429.679 40.502C429.503 39.9423 429.257 39.49 428.943 39.145C428.629 38.7923 428.195 38.616 427.643 38.616C427.03 38.616 426.509 38.8882 426.079 39.4325C425.65 39.9692 425.435 40.9007 425.435 42.227C425.435 43.5303 425.65 44.4618 426.079 45.0215C426.509 45.5812 427.03 45.861 427.643 45.861C428.195 45.861 428.632 45.677 428.954 45.309C429.284 44.941 429.518 44.5078 429.656 44.0095L432.289 45.4125ZM441.083 45.861H444.061V48H437.943V38.823H434.942V36.5H437.943V33.004H441.083V36.5H444.314V38.823H441.083V45.861ZM453.096 34.062C452.505 34.062 452.003 33.8588 451.589 33.4525C451.183 33.0385 450.98 32.5363 450.98 31.946C450.98 31.3557 451.183 30.8573 451.589 30.451C452.003 30.037 452.505 29.83 453.096 29.83C453.686 29.83 454.184 30.037 454.591 30.451C455.005 30.8573 455.212 31.3557 455.212 31.946C455.212 32.5363 455.005 33.0385 454.591 33.4525C454.184 33.8588 453.686 34.062 453.096 34.062ZM454.66 45.677H457.983V48H451.497V38.823H448.231V36.5H454.66V45.677ZM466.294 48.253C465.673 48.253 465.059 48.1495 464.454 47.9425C463.856 47.7355 463.311 47.3982 462.821 46.9305C462.338 46.4628 461.95 45.8457 461.659 45.079C461.375 44.3047 461.234 43.354 461.234 42.227C461.234 41.1077 461.375 40.1647 461.659 39.398C461.95 38.6237 462.338 38.0065 462.821 37.5465C463.304 37.0788 463.844 36.7415 464.442 36.5345C465.048 36.3275 465.665 36.224 466.294 36.224C466.915 36.224 467.524 36.3275 468.122 36.5345C468.72 36.7415 469.261 37.0788 469.744 37.5465C470.234 38.0142 470.621 38.6313 470.905 39.398C471.196 40.1647 471.342 41.1077 471.342 42.227C471.342 43.354 471.196 44.3047 470.905 45.079C470.621 45.8457 470.234 46.4628 469.744 46.9305C469.261 47.3982 468.72 47.7355 468.122 47.9425C467.524 48.1495 466.915 48.253 466.294 48.253ZM466.294 45.838C466.646 45.838 466.964 45.7383 467.248 45.539C467.539 45.3397 467.769 44.9793 467.938 44.458C468.114 43.9367 468.203 43.193 468.203 42.227C468.203 41.2763 468.114 40.5403 467.938 40.019C467.769 39.4977 467.539 39.1373 467.248 38.938C466.964 38.7387 466.646 38.639 466.294 38.639C465.926 38.639 465.596 38.7387 465.305 38.938C465.013 39.1373 464.783 39.4977 464.615 40.019C464.446 40.5403 464.362 41.2763 464.362 42.227C464.362 43.193 464.446 43.9367 464.615 44.458C464.791 44.9793 465.025 45.3397 465.316 45.539C465.607 45.7383 465.933 45.838 466.294 45.838ZM474.719 48V36.5H477.203L477.605 38.0755C477.981 37.5312 478.452 37.0903 479.02 36.753C479.587 36.4157 480.227 36.247 480.94 36.247C482.152 36.247 483.049 36.638 483.631 37.42C484.214 38.1943 484.505 39.2792 484.505 40.6745V48H481.354V41.1345C481.354 40.4215 481.232 39.835 480.986 39.375C480.749 38.9073 480.369 38.6735 479.848 38.6735C479.457 38.6735 479.116 38.8 478.824 39.053C478.533 39.2983 478.299 39.605 478.123 39.973C477.946 40.341 477.835 40.7052 477.789 41.0655V48H474.719ZM492.493 48.253C491.343 48.253 490.316 48.0843 489.411 47.747C488.514 47.402 487.844 46.9343 487.399 46.344L489.871 44.734C490.094 45.0943 490.443 45.3818 490.918 45.5965C491.401 45.8035 491.941 45.907 492.539 45.907C493.183 45.907 493.697 45.8188 494.08 45.6425C494.471 45.4585 494.667 45.1595 494.667 44.7455C494.667 44.3698 494.414 44.0632 493.908 43.8255C493.402 43.5878 492.708 43.3693 491.826 43.17C491.083 42.986 490.408 42.7445 489.802 42.4455C489.204 42.1465 488.725 41.7632 488.365 41.2955C488.012 40.8278 487.836 40.2413 487.836 39.536C487.836 38.7923 488.066 38.1752 488.526 37.6845C488.994 37.1938 489.599 36.8297 490.343 36.592C491.087 36.3467 491.88 36.224 492.723 36.224C493.958 36.224 494.985 36.4195 495.805 36.8105C496.633 37.2015 497.178 37.6538 497.438 38.1675L495.058 39.697C494.912 39.3597 494.621 39.0837 494.184 38.869C493.747 38.6467 493.268 38.5355 492.746 38.5355C492.202 38.5355 491.742 38.6198 491.366 38.7885C490.991 38.9572 490.803 39.2217 490.803 39.582C490.803 39.95 490.995 40.2222 491.378 40.3985C491.769 40.5748 492.336 40.7435 493.08 40.9045C493.525 41.0042 494.008 41.146 494.529 41.33C495.058 41.5063 495.556 41.7363 496.024 42.02C496.492 42.3037 496.875 42.6563 497.174 43.078C497.473 43.4997 497.622 44.0095 497.622 44.6075C497.622 45.4278 497.377 46.1102 496.886 46.6545C496.396 47.1912 495.759 47.5937 494.977 47.862C494.195 48.1227 493.367 48.253 492.493 48.253ZM504.53 40.019C503.909 40.019 503.38 39.8043 502.943 39.375C502.513 38.9457 502.299 38.4167 502.299 37.788C502.299 37.167 502.513 36.6418 502.943 36.2125C503.38 35.7755 503.909 35.557 504.53 35.557C505.158 35.557 505.687 35.7755 506.117 36.2125C506.554 36.6418 506.772 37.167 506.772 37.788C506.772 38.409 506.554 38.938 506.117 39.375C505.687 39.8043 505.158 40.019 504.53 40.019ZM504.53 48.253C503.909 48.253 503.38 48.0383 502.943 47.609C502.513 47.1797 502.299 46.6507 502.299 46.022C502.299 45.401 502.513 44.8758 502.943 44.4465C503.38 44.0095 503.909 43.791 504.53 43.791C505.158 43.791 505.687 44.0095 506.117 44.4465C506.554 44.8758 506.772 45.401 506.772 46.022C506.772 46.643 506.554 47.172 506.117 47.609C505.687 48.0383 505.158 48.253 504.53 48.253Z" fill="black"/>
<path d="M48.9585 271.9H51.73V288H48.4065L44.1285 277.466V288H41.3685V271.9H44.669L48.9585 282.825V271.9ZM64.4562 285.665C64.2952 286.018 64.0115 286.398 63.6052 286.804C63.2065 287.203 62.6775 287.544 62.0182 287.827C61.3665 288.111 60.5845 288.253 59.6722 288.253C58.6602 288.253 57.744 288.027 56.9237 287.574C56.1034 287.114 55.4517 286.44 54.9687 285.55C54.4857 284.653 54.2442 283.546 54.2442 282.227C54.2442 280.908 54.4895 279.804 54.9802 278.915C55.4785 278.026 56.134 277.355 56.9467 276.902C57.767 276.45 58.6679 276.224 59.6492 276.224C61.1902 276.224 62.436 276.757 63.3867 277.822C64.345 278.888 64.8242 280.502 64.8242 282.664H57.4067C57.4834 284.788 58.2385 285.849 59.6722 285.849C60.2472 285.849 60.7149 285.688 61.0752 285.366C61.4432 285.037 61.6962 284.684 61.8342 284.308L64.4562 285.665ZM59.6952 278.547C59.1432 278.547 58.6755 278.735 58.2922 279.11C57.9089 279.486 57.6444 280.08 57.4987 280.893H61.7192C61.7115 280.563 61.6425 280.218 61.5122 279.858C61.3819 279.498 61.1672 279.191 60.8682 278.938C60.5769 278.677 60.1859 278.547 59.6952 278.547ZM71.2139 288H68.5229L66.8209 276.5H69.5924L70.2824 284.239L71.6739 278.225H73.8244L75.2159 284.205L75.9059 276.5H78.6889L76.9869 288H74.2959L72.7549 281.445L71.2139 288ZM100.036 285.861H103.014V288H96.8963V278.823H93.8948V276.5H96.8963V273.004H100.036V276.5H103.267V278.823H100.036V285.861ZM112.647 285.677H114.889V288H107.288V285.677H109.576V278.823H107.311V276.5H111.945L112.428 277.995C112.858 277.466 113.375 277.04 113.981 276.718C114.587 276.389 115.246 276.224 115.959 276.224C116.557 276.224 117.04 276.308 117.408 276.477C117.784 276.646 118.052 276.799 118.213 276.937L116.637 279.513C116.484 279.367 116.277 279.233 116.016 279.11C115.763 278.98 115.445 278.915 115.062 278.915C114.472 278.915 113.958 279.122 113.521 279.536C113.092 279.95 112.8 280.433 112.647 280.985V285.677ZM128.904 288.391L127.765 286.896C127.466 287.241 127.041 287.555 126.489 287.839C125.937 288.115 125.216 288.253 124.327 288.253C123.039 288.253 121.988 287.927 121.176 287.275C120.363 286.616 119.957 285.658 119.957 284.4C119.957 283.258 120.413 282.38 121.325 281.767C122.237 281.146 123.449 280.835 124.959 280.835H126.799V280.364C126.799 279.789 126.615 279.36 126.247 279.076C125.879 278.785 125.411 278.639 124.844 278.639C124.3 278.639 123.84 278.777 123.464 279.053C123.096 279.321 122.832 279.582 122.671 279.835L120.106 278.236C120.39 277.738 120.953 277.278 121.797 276.856C122.648 276.435 123.698 276.224 124.948 276.224C125.868 276.224 126.696 276.37 127.432 276.661C128.175 276.952 128.762 277.37 129.191 277.914C129.62 278.459 129.835 279.11 129.835 279.869V285.205L131.146 286.815L128.904 288.391ZM124.775 286.033C125.266 286.033 125.684 285.922 126.029 285.7C126.381 285.478 126.638 285.198 126.799 284.86V282.986H125.155C124.472 282.986 123.943 283.109 123.568 283.354C123.2 283.599 123.016 283.975 123.016 284.481C123.016 285.025 123.169 285.42 123.476 285.665C123.782 285.911 124.215 286.033 124.775 286.033ZM133.672 288V276.5H136.156L136.558 278.075C136.934 277.531 137.405 277.09 137.973 276.753C138.54 276.416 139.18 276.247 139.893 276.247C141.105 276.247 142.002 276.638 142.584 277.42C143.167 278.194 143.458 279.279 143.458 280.674V288H140.307V281.134C140.307 280.421 140.185 279.835 139.939 279.375C139.702 278.907 139.322 278.673 138.801 278.673C138.41 278.673 138.069 278.8 137.777 279.053C137.486 279.298 137.252 279.605 137.076 279.973C136.899 280.341 136.788 280.705 136.742 281.065V288H133.672ZM151.447 288.253C150.297 288.253 149.269 288.084 148.365 287.747C147.468 287.402 146.797 286.934 146.352 286.344L148.825 284.734C149.047 285.094 149.396 285.382 149.871 285.596C150.354 285.803 150.895 285.907 151.493 285.907C152.137 285.907 152.65 285.819 153.034 285.642C153.425 285.458 153.62 285.159 153.62 284.745C153.62 284.37 153.367 284.063 152.861 283.825C152.355 283.588 151.661 283.369 150.78 283.17C150.036 282.986 149.361 282.744 148.756 282.445C148.158 282.146 147.678 281.763 147.318 281.295C146.965 280.828 146.789 280.241 146.789 279.536C146.789 278.792 147.019 278.175 147.479 277.684C147.947 277.194 148.552 276.83 149.296 276.592C150.04 276.347 150.833 276.224 151.677 276.224C152.911 276.224 153.938 276.419 154.759 276.81C155.587 277.201 156.131 277.654 156.392 278.167L154.011 279.697C153.865 279.36 153.574 279.084 153.137 278.869C152.7 278.647 152.221 278.535 151.699 278.535C151.155 278.535 150.695 278.62 150.32 278.788C149.944 278.957 149.756 279.222 149.756 279.582C149.756 279.95 149.948 280.222 150.331 280.398C150.722 280.575 151.289 280.743 152.033 280.904C152.478 281.004 152.961 281.146 153.482 281.33C154.011 281.506 154.509 281.736 154.977 282.02C155.445 282.304 155.828 282.656 156.127 283.078C156.426 283.5 156.576 284.009 156.576 284.607C156.576 285.428 156.33 286.11 155.84 286.654C155.349 287.191 154.713 287.594 153.931 287.862C153.149 288.123 152.321 288.253 151.447 288.253ZM168.255 288.391L167.117 286.896C166.818 287.241 166.392 287.555 165.84 287.839C165.288 288.115 164.568 288.253 163.678 288.253C162.39 288.253 161.34 287.927 160.527 287.275C159.715 286.616 159.308 285.658 159.308 284.4C159.308 283.258 159.764 282.38 160.677 281.767C161.589 281.146 162.8 280.835 164.311 280.835H166.151V280.364C166.151 279.789 165.967 279.36 165.599 279.076C165.231 278.785 164.763 278.639 164.196 278.639C163.651 278.639 163.191 278.777 162.816 279.053C162.448 279.321 162.183 279.582 162.022 279.835L159.458 278.236C159.741 277.738 160.305 277.278 161.148 276.856C161.999 276.435 163.05 276.224 164.299 276.224C165.219 276.224 166.047 276.37 166.783 276.661C167.527 276.952 168.113 277.37 168.543 277.914C168.972 278.459 169.187 279.11 169.187 279.869V285.205L170.498 286.815L168.255 288.391ZM164.127 286.033C164.617 286.033 165.035 285.922 165.38 285.7C165.733 285.478 165.99 285.198 166.151 284.86V282.986H164.506C163.824 282.986 163.295 283.109 162.919 283.354C162.551 283.599 162.367 283.975 162.367 284.481C162.367 285.025 162.521 285.42 162.827 285.665C163.134 285.911 163.567 286.033 164.127 286.033ZM183.063 285.412C182.871 285.903 182.549 286.367 182.097 286.804C181.652 287.233 181.112 287.582 180.475 287.85C179.839 288.119 179.145 288.253 178.394 288.253C177.505 288.253 176.65 288.046 175.829 287.632C175.017 287.218 174.35 286.57 173.828 285.688C173.307 284.799 173.046 283.645 173.046 282.227C173.046 280.793 173.307 279.636 173.828 278.754C174.35 277.872 175.017 277.232 175.829 276.833C176.65 276.427 177.505 276.224 178.394 276.224C179.521 276.224 180.506 276.492 181.349 277.029C182.193 277.558 182.756 278.244 183.04 279.087L180.452 280.502C180.276 279.942 180.031 279.49 179.716 279.145C179.402 278.792 178.969 278.616 178.417 278.616C177.804 278.616 177.282 278.888 176.853 279.432C176.424 279.969 176.209 280.901 176.209 282.227C176.209 283.53 176.424 284.462 176.853 285.021C177.282 285.581 177.804 285.861 178.417 285.861C178.969 285.861 179.406 285.677 179.728 285.309C180.058 284.941 180.291 284.508 180.429 284.009L183.063 285.412ZM191.856 285.861H194.835V288H188.717V278.823H185.715V276.5H188.717V273.004H191.856V276.5H195.088V278.823H191.856V285.861ZM203.869 274.062C203.279 274.062 202.777 273.859 202.363 273.452C201.956 273.038 201.753 272.536 201.753 271.946C201.753 271.356 201.956 270.857 202.363 270.451C202.777 270.037 203.279 269.83 203.869 269.83C204.46 269.83 204.958 270.037 205.364 270.451C205.778 270.857 205.985 271.356 205.985 271.946C205.985 272.536 205.778 273.038 205.364 273.452C204.958 273.859 204.46 274.062 203.869 274.062ZM205.433 285.677H208.757V288H202.271V278.823H199.005V276.5H205.433V285.677ZM217.067 288.253C216.446 288.253 215.833 288.15 215.227 287.942C214.629 287.735 214.085 287.398 213.594 286.93C213.111 286.463 212.724 285.846 212.432 285.079C212.149 284.305 212.007 283.354 212.007 282.227C212.007 281.108 212.149 280.165 212.432 279.398C212.724 278.624 213.111 278.006 213.594 277.546C214.077 277.079 214.617 276.741 215.215 276.534C215.821 276.327 216.438 276.224 217.067 276.224C217.688 276.224 218.297 276.327 218.895 276.534C219.493 276.741 220.034 277.079 220.517 277.546C221.008 278.014 221.395 278.631 221.678 279.398C221.97 280.165 222.115 281.108 222.115 282.227C222.115 283.354 221.97 284.305 221.678 285.079C221.395 285.846 221.008 286.463 220.517 286.93C220.034 287.398 219.493 287.735 218.895 287.942C218.297 288.15 217.688 288.253 217.067 288.253ZM217.067 285.838C217.42 285.838 217.738 285.738 218.021 285.539C218.313 285.34 218.543 284.979 218.711 284.458C218.888 283.937 218.976 283.193 218.976 282.227C218.976 281.276 218.888 280.54 218.711 280.019C218.543 279.498 218.313 279.137 218.021 278.938C217.738 278.739 217.42 278.639 217.067 278.639C216.699 278.639 216.369 278.739 216.078 278.938C215.787 279.137 215.557 279.498 215.388 280.019C215.219 280.54 215.135 281.276 215.135 282.227C215.135 283.193 215.219 283.937 215.388 284.458C215.564 284.979 215.798 285.34 216.089 285.539C216.381 285.738 216.707 285.838 217.067 285.838ZM225.492 288V276.5H227.976L228.379 278.075C228.754 277.531 229.226 277.09 229.793 276.753C230.36 276.416 231.001 276.247 231.714 276.247C232.925 276.247 233.822 276.638 234.405 277.42C234.987 278.194 235.279 279.279 235.279 280.674V288H232.128V281.134C232.128 280.421 232.005 279.835 231.76 279.375C231.522 278.907 231.142 278.673 230.621 278.673C230.23 278.673 229.889 278.8 229.598 279.053C229.306 279.298 229.072 279.605 228.896 279.973C228.72 280.341 228.609 280.705 228.563 281.065V288H225.492ZM256.936 285.677H259.179V288H251.577V285.677H253.866V278.823H251.6V276.5H256.235L256.718 277.995C257.147 277.466 257.664 277.04 258.27 276.718C258.876 276.389 259.535 276.224 260.248 276.224C260.846 276.224 261.329 276.308 261.697 276.477C262.073 276.646 262.341 276.799 262.502 276.937L260.927 279.513C260.773 279.367 260.566 279.233 260.306 279.11C260.053 278.98 259.734 278.915 259.351 278.915C258.761 278.915 258.247 279.122 257.81 279.536C257.381 279.95 257.089 280.433 256.936 280.985V285.677ZM274.331 285.665C274.17 286.018 273.887 286.398 273.48 286.804C273.082 287.203 272.553 287.544 271.893 287.827C271.242 288.111 270.46 288.253 269.547 288.253C268.535 288.253 267.619 288.027 266.799 287.574C265.978 287.114 265.327 286.44 264.844 285.55C264.361 284.653 264.119 283.546 264.119 282.227C264.119 280.908 264.365 279.804 264.855 278.915C265.354 278.026 266.009 277.355 266.822 276.902C267.642 276.45 268.543 276.224 269.524 276.224C271.065 276.224 272.311 276.757 273.262 277.822C274.22 278.888 274.699 280.502 274.699 282.664H267.282C267.358 284.788 268.114 285.849 269.547 285.849C270.122 285.849 270.59 285.688 270.95 285.366C271.318 285.037 271.571 284.684 271.709 284.308L274.331 285.665ZM269.57 278.547C269.018 278.547 268.551 278.735 268.167 279.11C267.784 279.486 267.519 280.08 267.374 280.893H271.594C271.587 280.563 271.518 280.218 271.387 279.858C271.257 279.498 271.042 279.191 270.743 278.938C270.452 278.677 270.061 278.547 269.57 278.547ZM281.468 288.253C280.104 288.253 279.057 287.747 278.329 286.735C277.601 285.723 277.236 284.232 277.236 282.261C277.236 280.291 277.589 278.792 278.294 277.765C279 276.738 279.97 276.224 281.204 276.224C281.948 276.224 282.584 276.393 283.113 276.73C283.642 277.06 284.071 277.493 284.401 278.029L284.78 276.5H287.402V292.6H284.251V286.758C283.952 287.21 283.569 287.574 283.101 287.85C282.641 288.119 282.097 288.253 281.468 288.253ZM280.353 282.261C280.353 283.396 280.514 284.274 280.836 284.895C281.166 285.516 281.675 285.826 282.365 285.826C282.764 285.826 283.09 285.708 283.343 285.47C283.604 285.232 283.807 284.945 283.952 284.607C284.098 284.262 284.198 283.929 284.251 283.607V280.939C284.198 280.617 284.09 280.28 283.929 279.927C283.776 279.574 283.565 279.275 283.297 279.03C283.029 278.785 282.695 278.662 282.296 278.662C281.606 278.662 281.108 278.98 280.801 279.616C280.502 280.253 280.353 281.134 280.353 282.261ZM294.54 288.23C293.804 288.23 293.156 288.092 292.596 287.816C292.036 287.54 291.596 287.084 291.274 286.447C290.959 285.803 290.802 284.941 290.802 283.86V276.477H293.953V283.227C293.953 284.14 294.06 284.799 294.275 285.205C294.49 285.612 294.927 285.815 295.586 285.815C296.161 285.815 296.598 285.593 296.897 285.148C297.204 284.703 297.395 284.147 297.472 283.48V276.477H300.635V288H298.346L297.794 286.62C297.395 287.134 296.92 287.532 296.368 287.816C295.824 288.092 295.214 288.23 294.54 288.23ZM313.683 285.665C313.522 286.018 313.238 286.398 312.832 286.804C312.433 287.203 311.904 287.544 311.245 287.827C310.593 288.111 309.811 288.253 308.899 288.253C307.887 288.253 306.971 288.027 306.15 287.574C305.33 287.114 304.678 286.44 304.195 285.55C303.712 284.653 303.471 283.546 303.471 282.227C303.471 280.908 303.716 279.804 304.207 278.915C304.705 278.026 305.361 277.355 306.173 276.902C306.994 276.45 307.894 276.224 308.876 276.224C310.417 276.224 311.663 276.757 312.613 277.822C313.572 278.888 314.051 280.502 314.051 282.664H306.633C306.71 284.788 307.465 285.849 308.899 285.849C309.474 285.849 309.941 285.688 310.302 285.366C310.67 285.037 310.923 284.684 311.061 284.308L313.683 285.665ZM308.922 278.547C308.37 278.547 307.902 278.735 307.519 279.11C307.135 279.486 306.871 280.08 306.725 280.893H310.946C310.938 280.563 310.869 280.218 310.739 279.858C310.608 279.498 310.394 279.191 310.095 278.938C309.803 278.677 309.412 278.547 308.922 278.547ZM321.97 288.253C320.82 288.253 319.793 288.084 318.888 287.747C317.991 287.402 317.32 286.934 316.875 286.344L319.348 284.734C319.57 285.094 319.919 285.382 320.394 285.596C320.877 285.803 321.418 285.907 322.016 285.907C322.66 285.907 323.174 285.819 323.557 285.642C323.948 285.458 324.143 285.159 324.143 284.745C324.143 284.37 323.89 284.063 323.384 283.825C322.878 283.588 322.185 283.369 321.303 283.17C320.559 282.986 319.885 282.744 319.279 282.445C318.681 282.146 318.202 281.763 317.841 281.295C317.489 280.828 317.312 280.241 317.312 279.536C317.312 278.792 317.542 278.175 318.002 277.684C318.47 277.194 319.076 276.83 319.819 276.592C320.563 276.347 321.357 276.224 322.2 276.224C323.434 276.224 324.462 276.419 325.282 276.81C326.11 277.201 326.654 277.654 326.915 278.167L324.534 279.697C324.389 279.36 324.097 279.084 323.66 278.869C323.223 278.647 322.744 278.535 322.223 278.535C321.679 278.535 321.219 278.62 320.843 278.788C320.467 278.957 320.279 279.222 320.279 279.582C320.279 279.95 320.471 280.222 320.854 280.398C321.245 280.575 321.813 280.743 322.556 280.904C323.001 281.004 323.484 281.146 324.005 281.33C324.534 281.506 325.033 281.736 325.5 282.02C325.968 282.304 326.351 282.656 326.65 283.078C326.949 283.5 327.099 284.009 327.099 284.607C327.099 285.428 326.854 286.11 326.363 286.654C325.872 287.191 325.236 287.594 324.454 287.862C323.672 288.123 322.844 288.253 321.97 288.253ZM336.145 285.861H339.124V288H333.006V278.823H330.004V276.5H333.006V273.004H336.145V276.5H339.377V278.823H336.145V285.861ZM347.123 280.019C346.502 280.019 345.973 279.804 345.536 279.375C345.107 278.946 344.892 278.417 344.892 277.788C344.892 277.167 345.107 276.642 345.536 276.212C345.973 275.775 346.502 275.557 347.123 275.557C347.752 275.557 348.281 275.775 348.71 276.212C349.147 276.642 349.366 277.167 349.366 277.788C349.366 278.409 349.147 278.938 348.71 279.375C348.281 279.804 347.752 280.019 347.123 280.019ZM347.123 288.253C346.502 288.253 345.973 288.038 345.536 287.609C345.107 287.18 344.892 286.651 344.892 286.022C344.892 285.401 345.107 284.876 345.536 284.446C345.973 284.009 346.502 283.791 347.123 283.791C347.752 283.791 348.281 284.009 348.71 284.446C349.147 284.876 349.366 285.401 349.366 286.022C349.366 286.643 349.147 287.172 348.71 287.609C348.281 288.038 347.752 288.253 347.123 288.253Z" fill="black"/>
<rect x="64" y="320" width="512" height="65" fill="#DFE8A9"/>
<path d="M106.361 360L105.591 355.802H101.416L100.646 360H98.3685L101.623 343.9H105.384L108.638 360H106.361ZM103.314 345.429L101.727 354.112H105.292L103.693 345.429H103.314ZM110.899 360V348.5H112.601L112.808 349.96C113.092 349.447 113.445 349.033 113.866 348.718C114.288 348.404 114.752 348.247 115.258 348.247C116.415 348.247 117.132 348.856 117.408 350.075C117.707 349.531 118.087 349.09 118.547 348.753C119.007 348.416 119.52 348.247 120.088 348.247C120.985 348.247 121.613 348.565 121.974 349.201C122.342 349.83 122.526 350.593 122.526 351.49V360H120.559V352.582C120.559 351.578 120.448 350.888 120.226 350.512C120.011 350.137 119.674 349.949 119.214 349.949C118.922 349.949 118.658 350.064 118.42 350.294C118.183 350.524 117.983 350.815 117.822 351.168C117.669 351.521 117.569 351.881 117.523 352.249V360H115.833V352.571C115.833 351.574 115.729 350.888 115.522 350.512C115.315 350.137 114.993 349.949 114.556 349.949C114.273 349.949 114.008 350.064 113.763 350.294C113.525 350.524 113.326 350.811 113.165 351.156C113.011 351.501 112.916 351.839 112.877 352.168V360H110.899ZM127.282 348.5L129.962 358.505L132.538 348.5H134.826L131.284 360C130.832 361.51 130.272 362.657 129.605 363.439C128.946 364.228 128.11 364.623 127.098 364.623C126.592 364.623 126.136 364.52 125.73 364.313C125.331 364.106 125.025 363.891 124.81 363.669L125.707 362.254C125.845 362.43 126.037 362.591 126.282 362.737C126.535 362.883 126.811 362.955 127.11 362.955C127.547 362.955 127.942 362.71 128.294 362.22C128.647 361.737 128.996 360.997 129.341 360H128.582L124.994 348.5H127.282ZM154.103 360H152.056L150.412 348.5H152.401L153.344 357.47L155.115 350.075H156.875L158.646 357.447L159.6 348.5H161.59L159.957 360H157.91L156.001 352.237L154.103 360ZM173.189 360.322L172.027 358.804C171.728 359.157 171.288 359.486 170.705 359.793C170.122 360.1 169.352 360.253 168.393 360.253C167.174 360.253 166.174 359.939 165.392 359.31C164.618 358.681 164.23 357.742 164.23 356.492C164.23 355.703 164.441 355.047 164.863 354.526C165.292 354.005 165.875 353.614 166.611 353.353C167.355 353.085 168.194 352.95 169.129 352.95H171.314V352.099C171.314 351.348 171.069 350.808 170.578 350.478C170.088 350.141 169.497 349.972 168.807 349.972C168.179 349.972 167.638 350.118 167.186 350.409C166.734 350.7 166.408 350.992 166.208 351.283L164.414 350.087C164.721 349.619 165.265 349.194 166.047 348.81C166.837 348.419 167.799 348.224 168.934 348.224C169.747 348.224 170.494 348.358 171.176 348.626C171.866 348.887 172.418 349.278 172.832 349.799C173.246 350.321 173.453 350.965 173.453 351.731V357.504L174.822 359.183L173.189 360.322ZM168.738 358.631C169.382 358.631 169.927 358.493 170.371 358.217C170.824 357.934 171.138 357.596 171.314 357.205V354.537H169.279C168.451 354.537 167.761 354.691 167.209 354.997C166.657 355.296 166.381 355.81 166.381 356.538C166.381 357.313 166.603 357.857 167.048 358.171C167.493 358.478 168.056 358.631 168.738 358.631ZM178.026 360V348.5H179.832L180.085 350.236C180.46 349.646 180.939 349.167 181.522 348.799C182.112 348.423 182.791 348.235 183.558 348.235C184.731 348.235 185.585 348.638 186.122 349.443C186.666 350.24 186.939 351.348 186.939 352.766V360H184.719V353.077C184.719 352.165 184.577 351.425 184.294 350.857C184.01 350.282 183.531 349.995 182.856 349.995C182.381 349.995 181.951 350.144 181.568 350.443C181.185 350.735 180.87 351.114 180.625 351.582C180.387 352.042 180.242 352.529 180.188 353.042V360H178.026ZM196.065 358.424H199.354V360H193.857V350.19H190.603V348.5H193.857V345.004H196.065V348.5H199.584V350.19H196.065V358.424ZM208.481 360.253C207.423 360.253 206.465 360.096 205.606 359.781C204.747 359.467 204.103 359.053 203.674 358.539L205.434 357.332C205.694 357.708 206.108 358.003 206.676 358.217C207.251 358.432 207.868 358.539 208.527 358.539C209.286 358.539 209.93 358.409 210.459 358.148C210.996 357.88 211.264 357.443 211.264 356.837C211.264 356.316 210.95 355.898 210.321 355.584C209.692 355.27 208.941 355.017 208.067 354.825C207.385 354.656 206.741 354.438 206.135 354.169C205.537 353.901 205.05 353.541 204.675 353.088C204.307 352.636 204.123 352.061 204.123 351.363C204.123 350.643 204.345 350.052 204.79 349.592C205.234 349.125 205.802 348.78 206.492 348.557C207.189 348.335 207.918 348.224 208.677 348.224C209.796 348.224 210.747 348.412 211.529 348.787C212.318 349.155 212.828 349.569 213.058 350.029L211.356 351.156C211.172 350.758 210.831 350.451 210.333 350.236C209.834 350.022 209.286 349.914 208.688 349.914C208.059 349.914 207.496 350.026 206.998 350.248C206.499 350.47 206.25 350.85 206.25 351.386C206.25 351.915 206.495 352.299 206.986 352.536C207.477 352.774 208.105 352.981 208.872 353.157C209.324 353.265 209.807 353.407 210.321 353.583C210.842 353.759 211.333 353.985 211.793 354.261C212.261 354.537 212.64 354.879 212.932 355.285C213.231 355.691 213.38 356.178 213.38 356.745C213.38 357.55 213.146 358.214 212.679 358.735C212.219 359.249 211.613 359.632 210.862 359.885C210.118 360.13 209.324 360.253 208.481 360.253ZM235.417 358.424H238.706V360H233.209V350.19H229.954V348.5H233.209V345.004H235.417V348.5H238.936V350.19H235.417V358.424ZM247.833 360.253C247.035 360.253 246.28 360.061 245.567 359.678C244.862 359.295 244.287 358.662 243.842 357.78C243.397 356.899 243.175 355.714 243.175 354.227C243.175 352.747 243.397 351.57 243.842 350.696C244.287 349.815 244.862 349.182 245.567 348.799C246.28 348.416 247.035 348.224 247.833 348.224C248.63 348.224 249.385 348.416 250.098 348.799C250.811 349.182 251.39 349.815 251.835 350.696C252.279 351.57 252.502 352.747 252.502 354.227C252.502 355.714 252.279 356.899 251.835 357.78C251.39 358.662 250.811 359.295 250.098 359.678C249.385 360.061 248.63 360.253 247.833 360.253ZM247.833 358.505C248.293 358.505 248.707 358.382 249.075 358.137C249.443 357.884 249.734 357.451 249.949 356.837C250.171 356.216 250.282 355.346 250.282 354.227C250.282 353.123 250.171 352.264 249.949 351.651C249.734 351.03 249.443 350.597 249.075 350.351C248.707 350.098 248.293 349.972 247.833 349.972C247.38 349.972 246.966 350.098 246.591 350.351C246.223 350.597 245.927 351.03 245.705 351.651C245.49 352.264 245.383 353.123 245.383 354.227C245.383 355.346 245.49 356.216 245.705 356.837C245.927 357.458 246.223 357.892 246.591 358.137C246.966 358.382 247.38 358.505 247.833 358.505ZM273.986 356.55C273.204 356.55 272.488 356.431 271.836 356.193C271.652 356.339 271.491 356.504 271.353 356.688C271.223 356.872 271.157 357.075 271.157 357.297C271.157 357.696 271.307 357.98 271.606 358.148C271.913 358.317 272.281 358.401 272.71 358.401H275.677C276.796 358.401 277.682 358.643 278.333 359.126C278.993 359.601 279.322 360.349 279.322 361.369C279.322 362.419 278.847 363.228 277.896 363.795C276.953 364.362 275.639 364.646 273.952 364.646C272.296 364.646 271.039 364.385 270.18 363.864C269.321 363.343 268.892 362.63 268.892 361.725C268.892 361.165 269.049 360.705 269.363 360.345C269.678 359.992 270.019 359.716 270.387 359.517C270.08 359.31 269.823 359.045 269.616 358.723C269.409 358.401 269.306 358.037 269.306 357.631C269.306 357.14 269.448 356.722 269.731 356.377C270.023 356.032 270.326 355.756 270.64 355.549C270.211 355.212 269.866 354.783 269.605 354.261C269.344 353.74 269.214 353.115 269.214 352.387C269.214 351.413 269.436 350.62 269.881 350.006C270.326 349.393 270.908 348.945 271.629 348.661C272.357 348.37 273.143 348.224 273.986 348.224C274.485 348.224 274.968 348.274 275.435 348.373C275.903 348.473 276.336 348.63 276.735 348.845L278.333 346.993L279.61 348.189L277.862 349.742C278.13 350.072 278.341 350.455 278.494 350.892C278.655 351.329 278.736 351.827 278.736 352.387C278.736 353.368 278.502 354.166 278.034 354.779C277.574 355.392 276.98 355.841 276.252 356.124C275.524 356.408 274.768 356.55 273.986 356.55ZM273.986 354.871C274.738 354.871 275.347 354.66 275.815 354.238C276.29 353.809 276.528 353.192 276.528 352.387C276.528 351.582 276.306 350.965 275.861 350.535C275.424 350.106 274.799 349.891 273.986 349.891C273.166 349.891 272.534 350.106 272.089 350.535C271.652 350.965 271.433 351.582 271.433 352.387C271.433 353.192 271.671 353.809 272.146 354.238C272.622 354.66 273.235 354.871 273.986 354.871ZM270.824 361.472C270.824 361.94 271.081 362.315 271.594 362.599C272.108 362.883 272.909 363.025 273.998 363.025C275.071 363.025 275.895 362.894 276.47 362.634C277.045 362.381 277.333 361.982 277.333 361.438C277.333 360.993 277.183 360.644 276.884 360.391C276.593 360.146 276.072 360.023 275.32 360.023H271.893C271.847 360.023 271.801 360.023 271.755 360.023C271.495 360.161 271.272 360.349 271.088 360.587C270.912 360.832 270.824 361.127 270.824 361.472ZM287.104 345.625C286.636 345.625 286.237 345.464 285.908 345.142C285.586 344.812 285.425 344.414 285.425 343.946C285.425 343.478 285.586 343.083 285.908 342.761C286.237 342.432 286.636 342.267 287.104 342.267C287.579 342.267 287.978 342.432 288.3 342.761C288.629 343.083 288.794 343.478 288.794 343.946C288.794 344.414 288.629 344.812 288.3 345.142C287.978 345.464 287.579 345.625 287.104 345.625ZM288.208 358.31H291.692V360H285.977V350.19H282.515V348.5H288.208V358.31ZM302.463 348.5H304.694L301.9 360H298.703L295.897 348.5H298.139L300.186 358.275H300.416L302.463 348.5ZM317.961 357.757C317.808 358.056 317.543 358.401 317.168 358.792C316.792 359.183 316.294 359.525 315.673 359.816C315.059 360.107 314.316 360.253 313.442 360.253C312.499 360.253 311.644 360.031 310.877 359.586C310.118 359.134 309.512 358.463 309.06 357.573C308.615 356.676 308.393 355.557 308.393 354.215C308.393 352.874 308.627 351.758 309.095 350.869C309.562 349.98 310.179 349.316 310.946 348.879C311.72 348.442 312.556 348.224 313.453 348.224C314.948 348.224 316.121 348.784 316.972 349.903C317.823 351.015 318.249 352.548 318.249 354.503H310.613C310.643 355.806 310.9 356.799 311.383 357.481C311.866 358.164 312.552 358.505 313.442 358.505C313.955 358.505 314.392 358.409 314.753 358.217C315.121 358.026 315.412 357.796 315.627 357.527C315.849 357.251 316.006 356.998 316.098 356.768L317.961 357.757ZM313.465 349.926C312.744 349.926 312.131 350.187 311.625 350.708C311.126 351.222 310.808 352.038 310.67 353.157H316.052C316.052 352.674 315.964 352.184 315.788 351.685C315.619 351.187 315.343 350.769 314.96 350.432C314.584 350.095 314.086 349.926 313.465 349.926ZM341.723 357.573H344.011V360H335.938V357.573H338.411V347.407L336.145 348.845L334.972 346.43L338.94 343.9H341.723V357.573ZM360.724 360V343.9H366.221C366.765 343.9 367.317 343.965 367.877 344.095C368.444 344.218 368.962 344.429 369.429 344.728C369.905 345.019 370.288 345.422 370.579 345.935C370.871 346.441 371.016 347.082 371.016 347.856C371.016 348.6 370.905 349.205 370.683 349.673C370.468 350.133 370.207 350.493 369.901 350.754C369.594 351.007 369.303 351.187 369.027 351.294C368.751 351.394 368.555 351.452 368.44 351.467C368.586 351.482 368.824 351.544 369.153 351.651C369.483 351.758 369.828 351.95 370.188 352.226C370.549 352.502 370.855 352.897 371.108 353.41C371.361 353.924 371.488 354.591 371.488 355.411C371.488 356.446 371.273 357.305 370.844 357.987C370.414 358.662 369.828 359.168 369.084 359.505C368.348 359.835 367.524 360 366.612 360H360.724ZM364.461 350.397H365.795C366.225 350.397 366.596 350.244 366.911 349.937C367.233 349.631 367.394 349.094 367.394 348.327C367.394 347.584 367.237 347.097 366.922 346.867C366.608 346.629 366.24 346.51 365.818 346.51H364.461V350.397ZM364.461 357.389H366.198C366.696 357.389 367.087 357.228 367.371 356.906C367.662 356.577 367.808 356.002 367.808 355.181C367.808 354.407 367.654 353.851 367.348 353.514C367.041 353.169 366.65 352.996 366.175 352.996H364.461V357.389ZM378.924 346.28C378.272 346.28 377.72 346.054 377.268 345.602C376.823 345.15 376.601 344.598 376.601 343.946C376.601 343.294 376.823 342.742 377.268 342.29C377.72 341.838 378.272 341.611 378.924 341.611C379.576 341.611 380.128 341.838 380.58 342.29C381.032 342.742 381.258 343.294 381.258 343.946C381.258 344.598 381.032 345.15 380.58 345.602C380.128 346.054 379.576 346.28 378.924 346.28ZM380.729 357.366H383.972V360H377.084V351.133H373.921V348.5H380.729V357.366ZM393.306 357.573H396.124V360H389.695V351.133H386.832V348.5H389.695V345.004H393.306V348.5H396.388V351.133H393.306V357.573ZM410.724 357.309C410.525 357.846 410.188 358.336 409.712 358.781C409.245 359.226 408.677 359.582 408.01 359.85C407.351 360.119 406.642 360.253 405.883 360.253C404.955 360.253 404.07 360.046 403.226 359.632C402.391 359.21 401.704 358.559 401.168 357.677C400.639 356.788 400.374 355.638 400.374 354.227C400.374 352.801 400.639 351.647 401.168 350.765C401.704 349.884 402.391 349.24 403.226 348.833C404.07 348.427 404.955 348.224 405.883 348.224C406.642 348.224 407.351 348.347 408.01 348.592C408.677 348.837 409.245 349.182 409.712 349.627C410.188 350.064 410.517 350.581 410.701 351.179L407.746 352.801C407.592 352.257 407.37 351.812 407.079 351.467C406.787 351.122 406.396 350.949 405.906 350.949C405.346 350.949 404.89 351.191 404.537 351.674C404.185 352.157 404.008 353.008 404.008 354.227C404.008 355.423 404.185 356.274 404.537 356.78C404.89 357.278 405.346 357.527 405.906 357.527C406.389 357.527 406.78 357.355 407.079 357.01C407.378 356.657 407.592 356.22 407.723 355.699L410.724 357.309ZM418.356 360.253C417.72 360.253 417.091 360.15 416.47 359.942C415.849 359.735 415.282 359.402 414.768 358.942C414.262 358.474 413.856 357.853 413.549 357.079C413.242 356.305 413.089 355.354 413.089 354.227C413.089 353.1 413.242 352.153 413.549 351.386C413.856 350.62 414.262 350.006 414.768 349.546C415.274 349.079 415.838 348.741 416.459 348.534C417.08 348.327 417.712 348.224 418.356 348.224C418.985 348.224 419.61 348.327 420.231 348.534C420.852 348.741 421.415 349.079 421.921 349.546C422.427 350.006 422.833 350.62 423.14 351.386C423.447 352.153 423.6 353.1 423.6 354.227C423.6 355.354 423.447 356.305 423.14 357.079C422.833 357.853 422.427 358.474 421.921 358.942C421.415 359.402 420.852 359.735 420.231 359.942C419.61 360.15 418.985 360.253 418.356 360.253ZM418.356 357.504C418.655 357.504 418.927 357.416 419.173 357.24C419.426 357.064 419.625 356.742 419.771 356.274C419.916 355.799 419.989 355.116 419.989 354.227C419.989 353.353 419.916 352.682 419.771 352.214C419.625 351.739 419.426 351.413 419.173 351.237C418.927 351.061 418.655 350.972 418.356 350.972C418.034 350.972 417.747 351.061 417.494 351.237C417.248 351.413 417.053 351.739 416.907 352.214C416.761 352.682 416.689 353.353 416.689 354.227C416.689 355.116 416.761 355.799 416.907 356.274C417.053 356.742 417.252 357.064 417.505 357.24C417.758 357.416 418.042 357.504 418.356 357.504ZM431.393 346.28C430.741 346.28 430.189 346.054 429.737 345.602C429.292 345.15 429.07 344.598 429.07 343.946C429.07 343.294 429.292 342.742 429.737 342.29C430.189 341.838 430.741 341.611 431.393 341.611C432.044 341.611 432.596 341.838 433.049 342.29C433.501 342.742 433.727 343.294 433.727 343.946C433.727 344.598 433.501 345.15 433.049 345.602C432.596 346.054 432.044 346.28 431.393 346.28ZM433.198 357.366H436.441V360H429.553V351.133H426.39V348.5H433.198V357.366ZM439.668 360V348.5H442.486L442.969 350.006C443.337 349.477 443.797 349.052 444.349 348.73C444.909 348.408 445.537 348.247 446.235 348.247C447.462 348.247 448.374 348.63 448.972 349.397C449.578 350.164 449.88 351.237 449.88 352.617V360H446.269V353.169C446.269 352.548 446.158 352.034 445.936 351.628C445.721 351.214 445.388 351.007 444.935 351.007C444.59 351.007 444.295 351.122 444.05 351.352C443.805 351.574 443.609 351.846 443.463 352.168C443.318 352.483 443.23 352.782 443.199 353.065V360H439.668ZM471.526 358.424H474.815V360H469.318V350.19H466.064V348.5H469.318V345.004H471.526V348.5H475.045V350.19H471.526V358.424ZM483.942 360.253C483.145 360.253 482.389 360.061 481.676 359.678C480.971 359.295 480.396 358.662 479.951 357.78C479.507 356.899 479.284 355.714 479.284 354.227C479.284 352.747 479.507 351.57 479.951 350.696C480.396 349.815 480.971 349.182 481.676 348.799C482.389 348.416 483.145 348.224 483.942 348.224C484.739 348.224 485.494 348.416 486.207 348.799C486.92 349.182 487.499 349.815 487.944 350.696C488.389 351.57 488.611 352.747 488.611 354.227C488.611 355.714 488.389 356.899 487.944 357.78C487.499 358.662 486.92 359.295 486.207 359.678C485.494 360.061 484.739 360.253 483.942 360.253ZM483.942 358.505C484.402 358.505 484.816 358.382 485.184 358.137C485.552 357.884 485.843 357.451 486.058 356.837C486.28 356.216 486.391 355.346 486.391 354.227C486.391 353.123 486.28 352.264 486.058 351.651C485.843 351.03 485.552 350.597 485.184 350.351C484.816 350.098 484.402 349.972 483.942 349.972C483.49 349.972 483.076 350.098 482.7 350.351C482.332 350.597 482.037 351.03 481.814 351.651C481.6 352.264 481.492 353.123 481.492 354.227C481.492 355.346 481.6 356.216 481.814 356.837C482.037 357.458 482.332 357.892 482.7 358.137C483.076 358.382 483.49 358.505 483.942 358.505ZM513.465 343.9V355.871C513.465 356.899 513.27 357.731 512.879 358.367C512.495 359.003 511.966 359.471 511.292 359.77C510.617 360.061 509.854 360.207 509.003 360.207C508.03 360.207 507.232 360.023 506.611 359.655C505.998 359.279 505.534 358.865 505.22 358.413L506.772 356.998C506.956 357.343 507.213 357.665 507.543 357.964C507.872 358.263 508.344 358.413 508.957 358.413C509.739 358.413 510.322 358.191 510.705 357.746C511.096 357.301 511.292 356.527 511.292 355.423V345.59H506.301V343.9H513.465ZM523.294 360.253C522.496 360.253 521.741 360.061 521.028 359.678C520.323 359.295 519.748 358.662 519.303 357.78C518.858 356.899 518.636 355.714 518.636 354.227C518.636 352.747 518.858 351.57 519.303 350.696C519.748 349.815 520.323 349.182 521.028 348.799C521.741 348.416 522.496 348.224 523.294 348.224C524.091 348.224 524.846 348.416 525.559 348.799C526.272 349.182 526.851 349.815 527.296 350.696C527.74 351.57 527.963 352.747 527.963 354.227C527.963 355.714 527.74 356.899 527.296 357.78C526.851 358.662 526.272 359.295 525.559 359.678C524.846 360.061 524.091 360.253 523.294 360.253ZM523.294 358.505C523.754 358.505 524.168 358.382 524.536 358.137C524.904 357.884 525.195 357.451 525.41 356.837C525.632 356.216 525.743 355.346 525.743 354.227C525.743 353.123 525.632 352.264 525.41 351.651C525.195 351.03 524.904 350.597 524.536 350.351C524.168 350.098 523.754 349.972 523.294 349.972C522.841 349.972 522.427 350.098 522.052 350.351C521.684 350.597 521.388 351.03 521.166 351.651C520.951 352.264 520.844 353.123 520.844 354.227C520.844 355.346 520.951 356.216 521.166 356.837C521.388 357.458 521.684 357.892 522.052 358.137C522.427 358.382 522.841 358.505 523.294 358.505ZM540.953 357.757C540.8 358.056 540.535 358.401 540.16 358.792C539.784 359.183 539.286 359.525 538.665 359.816C538.051 360.107 537.308 360.253 536.434 360.253C535.491 360.253 534.636 360.031 533.869 359.586C533.11 359.134 532.505 358.463 532.052 357.573C531.608 356.676 531.385 355.557 531.385 354.215C531.385 352.874 531.619 351.758 532.087 350.869C532.554 349.98 533.172 349.316 533.938 348.879C534.713 348.442 535.548 348.224 536.445 348.224C537.94 348.224 539.113 348.784 539.964 349.903C540.815 351.015 541.241 352.548 541.241 354.503H533.605C533.635 355.806 533.892 356.799 534.375 357.481C534.858 358.164 535.544 358.505 536.434 358.505C536.947 358.505 537.384 358.409 537.745 358.217C538.113 358.026 538.404 357.796 538.619 357.527C538.841 357.251 538.998 356.998 539.09 356.768L540.953 357.757ZM536.457 349.926C535.736 349.926 535.123 350.187 534.617 350.708C534.118 351.222 533.8 352.038 533.662 353.157H539.044C539.044 352.674 538.956 352.184 538.78 351.685C538.611 351.187 538.335 350.769 537.952 350.432C537.576 350.095 537.078 349.926 536.457 349.926Z" fill="black"/>
</svg>
