<svg width="702" height="433" viewBox="0 0 702 433" fill="none" xmlns="http://www.w3.org/2000/svg">
<path d="M51.3275 31.9V34.223H47.912V48H44.7725V34.223H41.3685V31.9H51.3275ZM60.1782 45.677H62.4207V48H54.8192V45.677H57.1077V38.823H54.8422V36.5H59.4767L59.9597 37.995C60.389 37.466 60.9065 37.0405 61.5122 36.7185C62.1179 36.3888 62.7772 36.224 63.4902 36.224C64.0882 36.224 64.5712 36.3083 64.9392 36.477C65.3149 36.6457 65.5832 36.799 65.7442 36.937L64.1687 39.513C64.0154 39.3673 63.8084 39.2332 63.5477 39.1105C63.2947 38.9802 62.9765 38.915 62.5932 38.915C62.0029 38.915 61.4892 39.122 61.0522 39.536C60.6229 39.95 60.3315 40.433 60.1782 40.985V45.677ZM76.4349 48.391L75.2964 46.896C74.9974 47.241 74.5719 47.5553 74.0199 47.839C73.4679 48.115 72.7472 48.253 71.8579 48.253C70.5699 48.253 69.5195 47.9272 68.7069 47.2755C67.8942 46.6162 67.4879 45.6578 67.4879 44.4005C67.4879 43.2582 67.944 42.3803 68.8564 41.767C69.7687 41.146 70.98 40.8355 72.4904 40.8355H74.3304V40.364C74.3304 39.789 74.1464 39.3597 73.7784 39.076C73.4104 38.7847 72.9427 38.639 72.3754 38.639C71.831 38.639 71.371 38.777 70.9954 39.053C70.6274 39.3213 70.3629 39.582 70.2019 39.835L67.6374 38.2365C67.921 37.7382 68.4845 37.2782 69.3279 36.8565C70.1789 36.4348 71.2292 36.224 72.4789 36.224C73.3989 36.224 74.2269 36.3697 74.9629 36.661C75.7065 36.9523 76.293 37.3702 76.7224 37.9145C77.1517 38.4588 77.3664 39.1105 77.3664 39.8695V45.2055L78.6774 46.8155L76.4349 48.391ZM72.3064 46.0335C72.797 46.0335 73.2149 45.9223 73.5599 45.7C73.9125 45.4777 74.1694 45.1978 74.3304 44.8605V42.986H72.6859C72.0035 42.986 71.4745 43.1087 71.0989 43.354C70.7309 43.5993 70.5469 43.975 70.5469 44.481C70.5469 45.0253 70.7002 45.4202 71.0069 45.6655C71.3135 45.9108 71.7467 46.0335 72.3064 46.0335ZM81.2031 48V36.5H83.6871L84.0896 38.0755C84.4652 37.5312 84.9367 37.0903 85.5041 36.753C86.0714 36.4157 86.7116 36.247 87.4246 36.247C88.6359 36.247 89.5329 36.638 90.1156 37.42C90.6982 38.1943 90.9896 39.2792 90.9896 40.6745V48H87.8386V41.1345C87.8386 40.4215 87.7159 39.835 87.4706 39.375C87.2329 38.9073 86.8534 38.6735 86.3321 38.6735C85.9411 38.6735 85.5999 38.8 85.3086 39.053C85.0172 39.2983 84.7834 39.605 84.6071 39.973C84.4307 40.341 84.3196 40.7052 84.2736 41.0655V48H81.2031ZM98.9778 48.253C97.8278 48.253 96.8004 48.0843 95.8958 47.747C94.9988 47.402 94.3279 46.9343 93.8833 46.344L96.3558 44.734C96.5781 45.0943 96.9269 45.3818 97.4023 45.5965C97.8853 45.8035 98.4258 45.907 99.0238 45.907C99.6678 45.907 100.181 45.8188 100.565 45.6425C100.956 45.4585 101.151 45.1595 101.151 44.7455C101.151 44.3698 100.898 44.0632 100.392 43.8255C99.8863 43.5878 99.1924 43.3693 98.3108 43.17C97.5671 42.986 96.8924 42.7445 96.2868 42.4455C95.6888 42.1465 95.2096 41.7632 94.8493 41.2955C94.4966 40.8278 94.3203 40.2413 94.3203 39.536C94.3203 38.7923 94.5503 38.1752 95.0103 37.6845C95.4779 37.1938 96.0836 36.8297 96.8273 36.592C97.5709 36.3467 98.3644 36.224 99.2078 36.224C100.442 36.224 101.469 36.4195 102.29 36.8105C103.118 37.2015 103.662 37.6538 103.923 38.1675L101.542 39.697C101.397 39.3597 101.105 39.0837 100.668 38.869C100.231 38.6467 99.7521 38.5355 99.2307 38.5355C98.6864 38.5355 98.2264 38.6198 97.8508 38.7885C97.4751 38.9572 97.2873 39.2217 97.2873 39.582C97.2873 39.95 97.4789 40.2222 97.8623 40.3985C98.2533 40.5748 98.8206 40.7435 99.5643 40.9045C100.009 41.0042 100.492 41.146 101.013 41.33C101.542 41.5063 102.041 41.7363 102.508 42.02C102.976 42.3037 103.359 42.6563 103.658 43.078C103.957 43.4997 104.107 44.0095 104.107 44.6075C104.107 45.4278 103.861 46.1102 103.371 46.6545C102.88 47.1912 102.244 47.5937 101.462 47.862C100.68 48.1227 99.8518 48.253 98.9778 48.253ZM115.786 48.391L114.648 46.896C114.349 47.241 113.923 47.5553 113.371 47.839C112.819 48.115 112.099 48.253 111.209 48.253C109.921 48.253 108.871 47.9272 108.058 47.2755C107.246 46.6162 106.839 45.6578 106.839 44.4005C106.839 43.2582 107.296 42.3803 108.208 41.767C109.12 41.146 110.332 40.8355 111.842 40.8355H113.682V40.364C113.682 39.789 113.498 39.3597 113.13 39.076C112.762 38.7847 112.294 38.639 111.727 38.639C111.183 38.639 110.723 38.777 110.347 39.053C109.979 39.3213 109.714 39.582 109.553 39.835L106.989 38.2365C107.273 37.7382 107.836 37.2782 108.679 36.8565C109.53 36.4348 110.581 36.224 111.83 36.224C112.75 36.224 113.578 36.3697 114.314 36.661C115.058 36.9523 115.645 37.3702 116.074 37.9145C116.503 38.4588 116.718 39.1105 116.718 39.8695V45.2055L118.029 46.8155L115.786 48.391ZM111.658 46.0335C112.149 46.0335 112.566 45.9223 112.911 45.7C113.264 45.4777 113.521 45.1978 113.682 44.8605V42.986H112.037C111.355 42.986 110.826 43.1087 110.45 43.354C110.082 43.5993 109.898 43.975 109.898 44.481C109.898 45.0253 110.052 45.4202 110.358 45.6655C110.665 45.9108 111.098 46.0335 111.658 46.0335ZM130.594 45.4125C130.402 45.9032 130.08 46.367 129.628 46.804C129.183 47.2333 128.643 47.5822 128.007 47.8505C127.37 48.1188 126.676 48.253 125.925 48.253C125.036 48.253 124.181 48.046 123.361 47.632C122.548 47.218 121.881 46.5702 121.36 45.6885C120.838 44.7992 120.578 43.6453 120.578 42.227C120.578 40.7933 120.838 39.6357 121.36 38.754C121.881 37.8723 122.548 37.2322 123.361 36.8335C124.181 36.4272 125.036 36.224 125.925 36.224C127.052 36.224 128.037 36.4923 128.881 37.029C129.724 37.558 130.287 38.2442 130.571 39.0875L127.984 40.502C127.807 39.9423 127.562 39.49 127.248 39.145C126.933 38.7923 126.5 38.616 125.948 38.616C125.335 38.616 124.813 38.8882 124.384 39.4325C123.955 39.9692 123.74 40.9007 123.74 42.227C123.74 43.5303 123.955 44.4618 124.384 45.0215C124.813 45.5812 125.335 45.861 125.948 45.861C126.5 45.861 126.937 45.677 127.259 45.309C127.589 44.941 127.823 44.5078 127.961 44.0095L130.594 45.4125ZM139.387 45.861H142.366V48H136.248V38.823H133.246V36.5H136.248V33.004H139.387V36.5H142.619V38.823H139.387V45.861ZM151.401 34.062C150.81 34.062 150.308 33.8588 149.894 33.4525C149.488 33.0385 149.285 32.5363 149.285 31.946C149.285 31.3557 149.488 30.8573 149.894 30.451C150.308 30.037 150.81 29.83 151.401 29.83C151.991 29.83 152.489 30.037 152.896 30.451C153.31 30.8573 153.517 31.3557 153.517 31.946C153.517 32.5363 153.31 33.0385 152.896 33.4525C152.489 33.8588 151.991 34.062 151.401 34.062ZM152.965 45.677H156.288V48H149.802V38.823H146.536V36.5H152.965V45.677ZM164.598 48.253C163.977 48.253 163.364 48.1495 162.758 47.9425C162.16 47.7355 161.616 47.3982 161.125 46.9305C160.642 46.4628 160.255 45.8457 159.964 45.079C159.68 44.3047 159.538 43.354 159.538 42.227C159.538 41.1077 159.68 40.1647 159.964 39.398C160.255 38.6237 160.642 38.0065 161.125 37.5465C161.608 37.0788 162.149 36.7415 162.747 36.5345C163.352 36.3275 163.97 36.224 164.598 36.224C165.219 36.224 165.829 36.3275 166.427 36.5345C167.025 36.7415 167.565 37.0788 168.048 37.5465C168.539 38.0142 168.926 38.6313 169.21 39.398C169.501 40.1647 169.647 41.1077 169.647 42.227C169.647 43.354 169.501 44.3047 169.21 45.079C168.926 45.8457 168.539 46.4628 168.048 46.9305C167.565 47.3982 167.025 47.7355 166.427 47.9425C165.829 48.1495 165.219 48.253 164.598 48.253ZM164.598 45.838C164.951 45.838 165.269 45.7383 165.553 45.539C165.844 45.3397 166.074 44.9793 166.243 44.458C166.419 43.9367 166.507 43.193 166.507 42.227C166.507 41.2763 166.419 40.5403 166.243 40.019C166.074 39.4977 165.844 39.1373 165.553 38.938C165.269 38.7387 164.951 38.639 164.598 38.639C164.23 38.639 163.901 38.7387 163.609 38.938C163.318 39.1373 163.088 39.4977 162.919 40.019C162.751 40.5403 162.666 41.2763 162.666 42.227C162.666 43.193 162.751 43.9367 162.919 44.458C163.096 44.9793 163.329 45.3397 163.621 45.539C163.912 45.7383 164.238 45.838 164.598 45.838ZM173.023 48V36.5H175.507L175.91 38.0755C176.286 37.5312 176.757 37.0903 177.324 36.753C177.892 36.4157 178.532 36.247 179.245 36.247C180.456 36.247 181.353 36.638 181.936 37.42C182.519 38.1943 182.81 39.2792 182.81 40.6745V48H179.659V41.1345C179.659 40.4215 179.536 39.835 179.291 39.375C179.053 38.9073 178.674 38.6735 178.152 38.6735C177.761 38.6735 177.42 38.8 177.129 39.053C176.838 39.2983 176.604 39.605 176.427 39.973C176.251 40.341 176.14 40.7052 176.094 41.0655V48H173.023ZM203.869 34.062C203.279 34.062 202.777 33.8588 202.363 33.4525C201.956 33.0385 201.753 32.5363 201.753 31.946C201.753 31.3557 201.956 30.8573 202.363 30.451C202.777 30.037 203.279 29.83 203.869 29.83C204.46 29.83 204.958 30.037 205.364 30.451C205.778 30.8573 205.985 31.3557 205.985 31.946C205.985 32.5363 205.778 33.0385 205.364 33.4525C204.958 33.8588 204.46 34.062 203.869 34.062ZM205.433 45.677H208.757V48H202.271V38.823H199.005V36.5H205.433V45.677ZM217.032 48.253C215.882 48.253 214.855 48.0843 213.95 47.747C213.053 47.402 212.383 46.9343 211.938 46.344L214.41 44.734C214.633 45.0943 214.982 45.3818 215.457 45.5965C215.94 45.8035 216.48 45.907 217.078 45.907C217.722 45.907 218.236 45.8188 218.619 45.6425C219.01 45.4585 219.206 45.1595 219.206 44.7455C219.206 44.3698 218.953 44.0632 218.447 43.8255C217.941 43.5878 217.247 43.3693 216.365 43.17C215.622 42.986 214.947 42.7445 214.341 42.4455C213.743 42.1465 213.264 41.7632 212.904 41.2955C212.551 40.8278 212.375 40.2413 212.375 39.536C212.375 38.7923 212.605 38.1752 213.065 37.6845C213.533 37.1938 214.138 36.8297 214.882 36.592C215.626 36.3467 216.419 36.224 217.262 36.224C218.497 36.224 219.524 36.4195 220.344 36.8105C221.172 37.2015 221.717 37.6538 221.977 38.1675L219.597 39.697C219.451 39.3597 219.16 39.0837 218.723 38.869C218.286 38.6467 217.807 38.5355 217.285 38.5355C216.741 38.5355 216.281 38.6198 215.905 38.7885C215.53 38.9572 215.342 39.2217 215.342 39.582C215.342 39.95 215.534 40.2222 215.917 40.3985C216.308 40.5748 216.875 40.7435 217.619 40.9045C218.064 41.0042 218.547 41.146 219.068 41.33C219.597 41.5063 220.095 41.7363 220.563 42.02C221.031 42.3037 221.414 42.6563 221.713 43.078C222.012 43.4997 222.161 44.0095 222.161 44.6075C222.161 45.4278 221.916 46.1102 221.425 46.6545C220.935 47.1912 220.298 47.5937 219.516 47.862C218.734 48.1227 217.906 48.253 217.032 48.253ZM246.958 48.391L245.82 46.896C245.521 47.241 245.095 47.5553 244.543 47.839C243.991 48.115 243.271 48.253 242.381 48.253C241.093 48.253 240.043 47.9272 239.23 47.2755C238.418 46.6162 238.011 45.6578 238.011 44.4005C238.011 43.2582 238.467 42.3803 239.38 41.767C240.292 41.146 241.503 40.8355 243.014 40.8355H244.854V40.364C244.854 39.789 244.67 39.3597 244.302 39.076C243.934 38.7847 243.466 38.639 242.899 38.639C242.354 38.639 241.894 38.777 241.519 39.053C241.151 39.3213 240.886 39.582 240.725 39.835L238.161 38.2365C238.444 37.7382 239.008 37.2782 239.851 36.8565C240.702 36.4348 241.753 36.224 243.002 36.224C243.922 36.224 244.75 36.3697 245.486 36.661C246.23 36.9523 246.816 37.3702 247.246 37.9145C247.675 38.4588 247.89 39.1105 247.89 39.8695V45.2055L249.201 46.8155L246.958 48.391ZM242.83 46.0335C243.32 46.0335 243.738 45.9223 244.083 45.7C244.436 45.4777 244.693 45.1978 244.854 44.8605V42.986H243.209C242.527 42.986 241.998 43.1087 241.622 43.354C241.254 43.5993 241.07 43.975 241.07 44.481C241.07 45.0253 241.224 45.4202 241.53 45.6655C241.837 45.9108 242.27 46.0335 242.83 46.0335ZM251.485 36.5H254.096L254.487 38.0295C254.816 37.4928 255.242 37.0597 255.763 36.73C256.292 36.3927 256.932 36.224 257.684 36.224C258.91 36.224 259.876 36.7377 260.582 37.765C261.295 38.7923 261.651 40.2912 261.651 42.2615C261.651 44.2318 261.283 45.723 260.547 46.735C259.819 47.747 258.772 48.253 257.408 48.253C256.779 48.253 256.235 48.1188 255.775 47.8505C255.315 47.5745 254.931 47.2103 254.625 46.758V52.6H251.485V36.5ZM256.591 38.662C256.192 38.662 255.859 38.7847 255.591 39.03C255.322 39.2753 255.108 39.5743 254.947 39.927C254.793 40.2797 254.686 40.617 254.625 40.939V43.607C254.686 43.929 254.789 44.2625 254.935 44.6075C255.081 44.9448 255.28 45.2323 255.533 45.47C255.794 45.7077 256.123 45.8265 256.522 45.8265C257.212 45.8265 257.718 45.516 258.04 44.895C258.37 44.274 258.535 43.3962 258.535 42.2615C258.535 41.1345 258.381 40.2528 258.075 39.6165C257.776 38.9802 257.281 38.662 256.591 38.662ZM264.602 36.5H267.213L267.604 38.0295C267.933 37.4928 268.359 37.0597 268.88 36.73C269.409 36.3927 270.049 36.224 270.801 36.224C272.027 36.224 272.993 36.7377 273.699 37.765C274.412 38.7923 274.768 40.2912 274.768 42.2615C274.768 44.2318 274.4 45.723 273.664 46.735C272.936 47.747 271.889 48.253 270.525 48.253C269.896 48.253 269.352 48.1188 268.892 47.8505C268.432 47.5745 268.048 47.2103 267.742 46.758V52.6H264.602V36.5ZM269.708 38.662C269.31 38.662 268.976 38.7847 268.708 39.03C268.439 39.2753 268.225 39.5743 268.064 39.927C267.91 40.2797 267.803 40.617 267.742 40.939V43.607C267.803 43.929 267.907 44.2625 268.052 44.6075C268.198 44.9448 268.397 45.2323 268.65 45.47C268.911 45.7077 269.241 45.8265 269.639 45.8265C270.329 45.8265 270.835 45.516 271.157 44.895C271.487 44.274 271.652 43.3962 271.652 42.2615C271.652 41.1345 271.498 40.2528 271.192 39.6165C270.893 38.9802 270.398 38.662 269.708 38.662ZM283.17 45.677H285.413V48H277.811V45.677H280.1V38.823H277.834V36.5H282.469L282.952 37.995C283.381 37.466 283.899 37.0405 284.504 36.7185C285.11 36.3888 285.769 36.224 286.482 36.224C287.08 36.224 287.563 36.3083 287.931 36.477C288.307 36.6457 288.575 36.799 288.736 36.937L287.161 39.513C287.008 39.3673 286.801 39.2332 286.54 39.1105C286.287 38.9802 285.969 38.915 285.585 38.915C284.995 38.915 284.481 39.122 284.044 39.536C283.615 39.95 283.324 40.433 283.17 40.985V45.677ZM295.77 48.253C295.149 48.253 294.536 48.1495 293.93 47.9425C293.332 47.7355 292.788 47.3982 292.297 46.9305C291.814 46.4628 291.427 45.8457 291.136 45.079C290.852 44.3047 290.71 43.354 290.71 42.227C290.71 41.1077 290.852 40.1647 291.136 39.398C291.427 38.6237 291.814 38.0065 292.297 37.5465C292.78 37.0788 293.321 36.7415 293.919 36.5345C294.524 36.3275 295.141 36.224 295.77 36.224C296.391 36.224 297.001 36.3275 297.599 36.5345C298.197 36.7415 298.737 37.0788 299.22 37.5465C299.711 38.0142 300.098 38.6313 300.382 39.398C300.673 40.1647 300.819 41.1077 300.819 42.227C300.819 43.354 300.673 44.3047 300.382 45.079C300.098 45.8457 299.711 46.4628 299.22 46.9305C298.737 47.3982 298.197 47.7355 297.599 47.9425C297.001 48.1495 296.391 48.253 295.77 48.253ZM295.77 45.838C296.123 45.838 296.441 45.7383 296.725 45.539C297.016 45.3397 297.246 44.9793 297.415 44.458C297.591 43.9367 297.679 43.193 297.679 42.227C297.679 41.2763 297.591 40.5403 297.415 40.019C297.246 39.4977 297.016 39.1373 296.725 38.938C296.441 38.7387 296.123 38.639 295.77 38.639C295.402 38.639 295.072 38.7387 294.781 38.938C294.49 39.1373 294.26 39.4977 294.091 40.019C293.922 40.5403 293.838 41.2763 293.838 42.227C293.838 43.193 293.922 43.9367 294.091 44.458C294.267 44.9793 294.501 45.3397 294.793 45.539C295.084 45.7383 295.41 45.838 295.77 45.838ZM310.566 36.5H313.729L310.992 48H306.714L303.965 36.5H307.116L308.749 45.6195H308.945L310.566 36.5ZM326.8 45.6655C326.639 46.0182 326.355 46.3977 325.949 46.804C325.55 47.2027 325.021 47.5438 324.362 47.8275C323.71 48.1112 322.928 48.253 322.016 48.253C321.004 48.253 320.088 48.0268 319.267 47.5745C318.447 47.1145 317.795 46.4398 317.312 45.5505C316.829 44.6535 316.588 43.5457 316.588 42.227C316.588 40.9083 316.833 39.8043 317.324 38.915C317.822 38.0257 318.478 37.3548 319.29 36.9025C320.111 36.4502 321.012 36.224 321.993 36.224C323.534 36.224 324.78 36.7568 325.73 37.8225C326.689 38.8882 327.168 40.502 327.168 42.664H319.75C319.827 44.7877 320.582 45.8495 322.016 45.8495C322.591 45.8495 323.059 45.6885 323.419 45.3665C323.787 45.0368 324.04 44.6842 324.178 44.3085L326.8 45.6655ZM322.039 38.547C321.487 38.547 321.019 38.7348 320.636 39.1105C320.253 39.4862 319.988 40.0803 319.842 40.893H324.063C324.055 40.5633 323.986 40.2183 323.856 39.858C323.726 39.4977 323.511 39.191 323.212 38.938C322.921 38.6773 322.53 38.547 322.039 38.547ZM334.041 48.253C332.714 48.253 331.668 47.7547 330.901 46.758C330.134 45.7537 329.751 44.2433 329.751 42.227C329.751 40.2107 330.123 38.7118 330.867 37.7305C331.61 36.7415 332.626 36.247 333.914 36.247C334.573 36.247 335.148 36.3812 335.639 36.6495C336.137 36.9178 336.548 37.2782 336.87 37.7305V29.6H340.021V48H337.479L337.008 46.62C336.716 47.1107 336.325 47.5055 335.835 47.8045C335.352 48.1035 334.754 48.253 334.041 48.253ZM333.052 42.227C333.052 43.3847 333.213 44.274 333.535 44.895C333.857 45.516 334.332 45.8265 334.961 45.8265C335.352 45.8265 335.677 45.7038 335.938 45.4585C336.206 45.2132 336.413 44.8988 336.559 44.5155C336.712 44.1245 336.816 43.7143 336.87 43.285V41.0425C336.785 40.4292 336.574 39.881 336.237 39.398C335.907 38.915 335.47 38.6735 334.926 38.6735C333.676 38.6735 333.052 39.858 333.052 42.227ZM365.013 48.391L363.875 46.896C363.576 47.241 363.15 47.5553 362.598 47.839C362.046 48.115 361.325 48.253 360.436 48.253C359.148 48.253 358.098 47.9272 357.285 47.2755C356.472 46.6162 356.066 45.6578 356.066 44.4005C356.066 43.2582 356.522 42.3803 357.435 41.767C358.347 41.146 359.558 40.8355 361.069 40.8355H362.909V40.364C362.909 39.789 362.725 39.3597 362.357 39.076C361.989 38.7847 361.521 38.639 360.954 38.639C360.409 38.639 359.949 38.777 359.574 39.053C359.206 39.3213 358.941 39.582 358.78 39.835L356.216 38.2365C356.499 37.7382 357.063 37.2782 357.906 36.8565C358.757 36.4348 359.807 36.224 361.057 36.224C361.977 36.224 362.805 36.3697 363.541 36.661C364.285 36.9523 364.871 37.3702 365.301 37.9145C365.73 38.4588 365.945 39.1105 365.945 39.8695V45.2055L367.256 46.8155L365.013 48.391ZM360.884 46.0335C361.375 46.0335 361.793 45.9223 362.138 45.7C362.491 45.4777 362.748 45.1978 362.909 44.8605V42.986H361.264C360.582 42.986 360.053 43.1087 359.677 43.354C359.309 43.5993 359.125 43.975 359.125 44.481C359.125 45.0253 359.278 45.4202 359.585 45.6655C359.892 45.9108 360.325 46.0335 360.884 46.0335ZM369.781 48V36.5H372.265L372.668 38.0755C373.043 37.5312 373.515 37.0903 374.082 36.753C374.65 36.4157 375.29 36.247 376.003 36.247C377.214 36.247 378.111 36.638 378.694 37.42C379.276 38.1943 379.568 39.2792 379.568 40.6745V48H376.417V41.1345C376.417 40.4215 376.294 39.835 376.049 39.375C375.811 38.9073 375.432 38.6735 374.91 38.6735C374.519 38.6735 374.178 38.8 373.887 39.053C373.595 39.2983 373.362 39.605 373.185 39.973C373.009 40.341 372.898 40.7052 372.852 41.0655V48H369.781ZM386.509 48.253C385.183 48.253 384.137 47.7547 383.37 46.758C382.603 45.7537 382.22 44.2433 382.22 42.227C382.22 40.2107 382.592 38.7118 383.335 37.7305C384.079 36.7415 385.095 36.247 386.383 36.247C387.042 36.247 387.617 36.3812 388.108 36.6495C388.606 36.9178 389.016 37.2782 389.338 37.7305V29.6H392.489V48H389.948L389.476 46.62C389.185 47.1107 388.794 47.5055 388.303 47.8045C387.82 48.1035 387.222 48.253 386.509 48.253ZM385.52 42.227C385.52 43.3847 385.681 44.274 386.003 44.895C386.325 45.516 386.801 45.8265 387.429 45.8265C387.82 45.8265 388.146 45.7038 388.407 45.4585C388.675 45.2132 388.882 44.8988 389.028 44.5155C389.181 44.1245 389.285 43.7143 389.338 43.285V41.0425C389.254 40.4292 389.043 39.881 388.706 39.398C388.376 38.915 387.939 38.6735 387.395 38.6735C386.145 38.6735 385.52 39.858 385.52 42.227ZM409.133 48V36.5H411.617L412.019 38.0755C412.395 37.5312 412.866 37.0903 413.434 36.753C414.001 36.4157 414.641 36.247 415.354 36.247C416.566 36.247 417.463 36.638 418.045 37.42C418.628 38.1943 418.919 39.2792 418.919 40.6745V48H415.768V41.1345C415.768 40.4215 415.646 39.835 415.4 39.375C415.163 38.9073 414.783 38.6735 414.262 38.6735C413.871 38.6735 413.53 38.8 413.238 39.053C412.947 39.2983 412.713 39.605 412.537 39.973C412.36 40.341 412.249 40.7052 412.203 41.0655V48H409.133ZM431.737 45.6655C431.576 46.0182 431.293 46.3977 430.886 46.804C430.488 47.2027 429.959 47.5438 429.299 47.8275C428.648 48.1112 427.866 48.253 426.953 48.253C425.941 48.253 425.025 48.0268 424.205 47.5745C423.385 47.1145 422.733 46.4398 422.25 45.5505C421.767 44.6535 421.525 43.5457 421.525 42.227C421.525 40.9083 421.771 39.8043 422.261 38.915C422.76 38.0257 423.415 37.3548 424.228 36.9025C425.048 36.4502 425.949 36.224 426.93 36.224C428.471 36.224 429.717 36.7568 430.668 37.8225C431.626 38.8882 432.105 40.502 432.105 42.664H424.688C424.765 44.7877 425.52 45.8495 426.953 45.8495C427.528 45.8495 427.996 45.6885 428.356 45.3665C428.724 45.0368 428.977 44.6842 429.115 44.3085L431.737 45.6655ZM426.976 38.547C426.424 38.547 425.957 38.7348 425.573 39.1105C425.19 39.4862 424.926 40.0803 424.78 40.893H429C428.993 40.5633 428.924 40.2183 428.793 39.858C428.663 39.4977 428.448 39.191 428.149 38.938C427.858 38.6773 427.467 38.547 426.976 38.547ZM438.495 48H435.804L434.102 36.5H436.874L437.564 44.2395L438.955 38.225H441.106L442.497 44.205L443.187 36.5H445.97L444.268 48H441.577L440.036 41.445L438.495 48ZM461.245 48V29.6H464.396V37.6845C464.733 37.2475 465.147 36.8987 465.638 36.638C466.129 36.3773 466.7 36.247 467.352 36.247C468.64 36.247 469.655 36.7415 470.399 37.7305C471.143 38.7118 471.515 40.2107 471.515 42.227C471.515 44.2433 471.131 45.7537 470.365 46.758C469.598 47.7547 468.551 48.253 467.225 48.253C466.52 48.253 465.922 48.1073 465.431 47.816C464.948 47.5247 464.553 47.1375 464.247 46.6545L463.798 48H461.245ZM466.34 38.6735C465.795 38.6735 465.354 38.915 465.017 39.398C464.687 39.881 464.48 40.4292 464.396 41.0425V43.285C464.45 43.7143 464.549 44.1245 464.695 44.5155C464.848 44.8988 465.055 45.2132 465.316 45.4585C465.584 45.7038 465.914 45.8265 466.305 45.8265C466.918 45.8265 467.39 45.516 467.72 44.895C468.049 44.274 468.214 43.3847 468.214 42.227C468.214 39.858 467.589 38.6735 466.34 38.6735ZM480.446 45.677H483.712V48H477.295V31.923H474.144V29.6H480.446V45.677ZM492.528 48.253C491.907 48.253 491.294 48.1495 490.688 47.9425C490.09 47.7355 489.546 47.3982 489.055 46.9305C488.572 46.4628 488.185 45.8457 487.893 45.079C487.61 44.3047 487.468 43.354 487.468 42.227C487.468 41.1077 487.61 40.1647 487.893 39.398C488.185 38.6237 488.572 38.0065 489.055 37.5465C489.538 37.0788 490.078 36.7415 490.676 36.5345C491.282 36.3275 491.899 36.224 492.528 36.224C493.149 36.224 493.758 36.3275 494.356 36.5345C494.954 36.7415 495.495 37.0788 495.978 37.5465C496.469 38.0142 496.856 38.6313 497.139 39.398C497.431 40.1647 497.576 41.1077 497.576 42.227C497.576 43.354 497.431 44.3047 497.139 45.079C496.856 45.8457 496.469 46.4628 495.978 46.9305C495.495 47.3982 494.954 47.7355 494.356 47.9425C493.758 48.1495 493.149 48.253 492.528 48.253ZM492.528 45.838C492.881 45.838 493.199 45.7383 493.482 45.539C493.774 45.3397 494.004 44.9793 494.172 44.458C494.349 43.9367 494.437 43.193 494.437 42.227C494.437 41.2763 494.349 40.5403 494.172 40.019C494.004 39.4977 493.774 39.1373 493.482 38.938C493.199 38.7387 492.881 38.639 492.528 38.639C492.16 38.639 491.83 38.7387 491.539 38.938C491.248 39.1373 491.018 39.4977 490.849 40.019C490.68 40.5403 490.596 41.2763 490.596 42.227C490.596 43.193 490.68 43.9367 490.849 44.458C491.025 44.9793 491.259 45.3397 491.55 45.539C491.842 45.7383 492.168 45.838 492.528 45.838ZM510.993 45.4125C510.801 45.9032 510.479 46.367 510.027 46.804C509.582 47.2333 509.041 47.5822 508.405 47.8505C507.769 48.1188 507.075 48.253 506.324 48.253C505.434 48.253 504.579 48.046 503.759 47.632C502.946 47.218 502.279 46.5702 501.758 45.6885C501.237 44.7992 500.976 43.6453 500.976 42.227C500.976 40.7933 501.237 39.6357 501.758 38.754C502.279 37.8723 502.946 37.2322 503.759 36.8335C504.579 36.4272 505.434 36.224 506.324 36.224C507.451 36.224 508.436 36.4923 509.279 37.029C510.122 37.558 510.686 38.2442 510.97 39.0875L508.382 40.502C508.206 39.9423 507.96 39.49 507.646 39.145C507.332 38.7923 506.899 38.616 506.347 38.616C505.733 38.616 505.212 38.8882 504.783 39.4325C504.353 39.9692 504.139 40.9007 504.139 42.227C504.139 43.5303 504.353 44.4618 504.783 45.0215C505.212 45.5812 505.733 45.861 506.347 45.861C506.899 45.861 507.336 45.677 507.658 45.309C507.987 44.941 508.221 44.5078 508.359 44.0095L510.993 45.4125ZM521.327 48L518.153 43.1125H517.175V48H514.036V29.6H517.175V40.9735H518.141L520.982 36.5H524.363L520.499 41.9855L524.696 48H521.327ZM544.916 34.062C544.326 34.062 543.824 33.8588 543.41 33.4525C543.003 33.0385 542.8 32.5363 542.8 31.946C542.8 31.3557 543.003 30.8573 543.41 30.451C543.824 30.037 544.326 29.83 544.916 29.83C545.506 29.83 546.005 30.037 546.411 30.451C546.825 30.8573 547.032 31.3557 547.032 31.946C547.032 32.5363 546.825 33.0385 546.411 33.4525C546.005 33.8588 545.506 34.062 544.916 34.062ZM546.48 45.677H549.804V48H543.318V38.823H540.052V36.5H546.48V45.677ZM558.079 48.253C556.929 48.253 555.902 48.0843 554.997 47.747C554.1 47.402 553.429 46.9343 552.985 46.344L555.457 44.734C555.68 45.0943 556.028 45.3818 556.504 45.5965C556.987 45.8035 557.527 45.907 558.125 45.907C558.769 45.907 559.283 45.8188 559.666 45.6425C560.057 45.4585 560.253 45.1595 560.253 44.7455C560.253 44.3698 560 44.0632 559.494 43.8255C558.988 43.5878 558.294 43.3693 557.412 43.17C556.669 42.986 555.994 42.7445 555.388 42.4455C554.79 42.1465 554.311 41.7632 553.951 41.2955C553.598 40.8278 553.422 40.2413 553.422 39.536C553.422 38.7923 553.652 38.1752 554.112 37.6845C554.579 37.1938 555.185 36.8297 555.929 36.592C556.672 36.3467 557.466 36.224 558.309 36.224C559.544 36.224 560.571 36.4195 561.391 36.8105C562.219 37.2015 562.764 37.6538 563.024 38.1675L560.644 39.697C560.498 39.3597 560.207 39.0837 559.77 38.869C559.333 38.6467 558.854 38.5355 558.332 38.5355C557.788 38.5355 557.328 38.6198 556.952 38.7885C556.577 38.9572 556.389 39.2217 556.389 39.582C556.389 39.95 556.58 40.2222 556.964 40.3985C557.355 40.5748 557.922 40.7435 558.666 40.9045C559.11 41.0042 559.593 41.146 560.115 41.33C560.644 41.5063 561.142 41.7363 561.61 42.02C562.077 42.3037 562.461 42.6563 562.76 43.078C563.059 43.4997 563.208 44.0095 563.208 44.6075C563.208 45.4278 562.963 46.1102 562.472 46.6545C561.982 47.1912 561.345 47.5937 560.563 47.862C559.781 48.1227 558.953 48.253 558.079 48.253ZM588.005 48.391L586.867 46.896C586.568 47.241 586.142 47.5553 585.59 47.839C585.038 48.115 584.318 48.253 583.428 48.253C582.14 48.253 581.09 47.9272 580.277 47.2755C579.465 46.6162 579.058 45.6578 579.058 44.4005C579.058 43.2582 579.514 42.3803 580.427 41.767C581.339 41.146 582.55 40.8355 584.061 40.8355H585.901V40.364C585.901 39.789 585.717 39.3597 585.349 39.076C584.981 38.7847 584.513 38.639 583.946 38.639C583.401 38.639 582.941 38.777 582.566 39.053C582.198 39.3213 581.933 39.582 581.772 39.835L579.208 38.2365C579.491 37.7382 580.055 37.2782 580.898 36.8565C581.749 36.4348 582.8 36.224 584.049 36.224C584.969 36.224 585.797 36.3697 586.533 36.661C587.277 36.9523 587.863 37.3702 588.293 37.9145C588.722 38.4588 588.937 39.1105 588.937 39.8695V45.2055L590.248 46.8155L588.005 48.391ZM583.877 46.0335C584.367 46.0335 584.785 45.9223 585.13 45.7C585.483 45.4777 585.74 45.1978 585.901 44.8605V42.986H584.256C583.574 42.986 583.045 43.1087 582.669 43.354C582.301 43.5993 582.117 43.975 582.117 44.481C582.117 45.0253 582.271 45.4202 582.577 45.6655C582.884 45.9108 583.317 46.0335 583.877 46.0335ZM596.384 48.253C595.058 48.253 594.012 47.7547 593.245 46.758C592.478 45.7537 592.095 44.2433 592.095 42.227C592.095 40.2107 592.467 38.7118 593.21 37.7305C593.954 36.7415 594.97 36.247 596.258 36.247C596.917 36.247 597.492 36.3812 597.983 36.6495C598.481 36.9178 598.891 37.2782 599.213 37.7305V29.6H602.364V48H599.823L599.351 46.62C599.06 47.1107 598.669 47.5055 598.178 47.8045C597.695 48.1035 597.097 48.253 596.384 48.253ZM595.395 42.227C595.395 43.3847 595.556 44.274 595.878 44.895C596.2 45.516 596.676 45.8265 597.304 45.8265C597.695 45.8265 598.021 45.7038 598.282 45.4585C598.55 45.2132 598.757 44.8988 598.903 44.5155C599.056 44.1245 599.16 43.7143 599.213 43.285V41.0425C599.129 40.4292 598.918 39.881 598.581 39.398C598.251 38.915 597.814 38.6735 597.27 38.6735C596.02 38.6735 595.395 39.858 595.395 42.227ZM609.502 48.253C608.175 48.253 607.129 47.7547 606.362 46.758C605.595 45.7537 605.212 44.2433 605.212 42.227C605.212 40.2107 605.584 38.7118 606.328 37.7305C607.071 36.7415 608.087 36.247 609.375 36.247C610.034 36.247 610.609 36.3812 611.1 36.6495C611.598 36.9178 612.009 37.2782 612.331 37.7305V29.6H615.482V48H612.94L612.469 46.62C612.177 47.1107 611.786 47.5055 611.296 47.8045C610.813 48.1035 610.215 48.253 609.502 48.253ZM608.513 42.227C608.513 43.3847 608.674 44.274 608.996 44.895C609.318 45.516 609.793 45.8265 610.422 45.8265C610.813 45.8265 611.138 45.7038 611.399 45.4585C611.667 45.2132 611.874 44.8988 612.02 44.5155C612.173 44.1245 612.277 43.7143 612.331 43.285V41.0425C612.246 40.4292 612.035 39.881 611.698 39.398C611.368 38.915 610.931 38.6735 610.387 38.6735C609.137 38.6735 608.513 39.858 608.513 42.227ZM628.495 45.6655C628.334 46.0182 628.051 46.3977 627.644 46.804C627.246 47.2027 626.717 47.5438 626.057 47.8275C625.406 48.1112 624.624 48.253 623.711 48.253C622.699 48.253 621.783 48.0268 620.963 47.5745C620.142 47.1145 619.491 46.4398 619.008 45.5505C618.525 44.6535 618.283 43.5457 618.283 42.227C618.283 40.9083 618.529 39.8043 619.019 38.915C619.518 38.0257 620.173 37.3548 620.986 36.9025C621.806 36.4502 622.707 36.224 623.688 36.224C625.229 36.224 626.475 36.7568 627.426 37.8225C628.384 38.8882 628.863 40.502 628.863 42.664H621.446C621.522 44.7877 622.278 45.8495 623.711 45.8495C624.286 45.8495 624.754 45.6885 625.114 45.3665C625.482 45.0368 625.735 44.6842 625.873 44.3085L628.495 45.6655ZM623.734 38.547C623.182 38.547 622.715 38.7348 622.331 39.1105C621.948 39.4862 621.683 40.0803 621.538 40.893H625.758C625.751 40.5633 625.682 40.2183 625.551 39.858C625.421 39.4977 625.206 39.191 624.907 38.938C624.616 38.6773 624.225 38.547 623.734 38.547ZM635.736 48.253C634.41 48.253 633.363 47.7547 632.596 46.758C631.83 45.7537 631.446 44.2433 631.446 42.227C631.446 40.2107 631.818 38.7118 632.562 37.7305C633.306 36.7415 634.321 36.247 635.609 36.247C636.269 36.247 636.844 36.3812 637.334 36.6495C637.833 36.9178 638.243 37.2782 638.565 37.7305V29.6H641.716V48H639.174L638.703 46.62C638.412 47.1107 638.021 47.5055 637.53 47.8045C637.047 48.1035 636.449 48.253 635.736 48.253ZM634.747 42.227C634.747 43.3847 634.908 44.274 635.23 44.895C635.552 45.516 636.027 45.8265 636.656 45.8265C637.047 45.8265 637.373 45.7038 637.633 45.4585C637.902 45.2132 638.109 44.8988 638.254 44.5155C638.408 44.1245 638.511 43.7143 638.565 43.285V41.0425C638.481 40.4292 638.27 39.881 637.932 39.398C637.603 38.915 637.166 38.6735 636.621 38.6735C635.372 38.6735 634.747 39.858 634.747 42.227ZM648.52 43.0435L647.956 31.9H651.084L650.521 43.0435H648.52ZM649.532 48.253C649.018 48.253 648.589 48.0805 648.244 47.7355C647.899 47.3828 647.726 46.9535 647.726 46.4475C647.726 45.9645 647.899 45.5505 648.244 45.2055C648.589 44.8605 649.018 44.688 649.532 44.688C650.038 44.688 650.463 44.8605 650.808 45.2055C651.161 45.5505 651.337 45.9645 651.337 46.4475C651.337 46.9535 651.161 47.3828 650.808 47.7355C650.463 48.0805 650.038 48.253 649.532 48.253Z" fill="black"/>
<rect x="97" y="269" width="544" height="63" fill="#DCF9E4" stroke="#170845" stroke-width="2"/>
<path d="M176.361 306L175.591 301.802H171.416L170.646 306H168.369L171.623 289.9H175.384L178.638 306H176.361ZM173.314 291.429L171.727 300.112H175.292L173.693 291.429H173.314ZM180.899 306V294.5H182.601L182.808 295.96C183.092 295.447 183.445 295.033 183.866 294.718C184.288 294.404 184.752 294.247 185.258 294.247C186.415 294.247 187.132 294.856 187.408 296.075C187.707 295.531 188.087 295.09 188.547 294.753C189.007 294.416 189.52 294.247 190.088 294.247C190.985 294.247 191.613 294.565 191.974 295.201C192.342 295.83 192.526 296.593 192.526 297.49V306H190.559V298.582C190.559 297.578 190.448 296.888 190.226 296.512C190.011 296.137 189.674 295.949 189.214 295.949C188.922 295.949 188.658 296.064 188.42 296.294C188.183 296.524 187.983 296.815 187.822 297.168C187.669 297.521 187.569 297.881 187.523 298.249V306H185.833V298.571C185.833 297.574 185.729 296.888 185.522 296.512C185.315 296.137 184.993 295.949 184.556 295.949C184.273 295.949 184.008 296.064 183.763 296.294C183.525 296.524 183.326 296.811 183.165 297.156C183.011 297.501 182.916 297.839 182.877 298.168V306H180.899ZM197.282 294.5L199.962 304.505L202.538 294.5H204.826L201.284 306C200.832 307.51 200.272 308.657 199.605 309.439C198.946 310.228 198.11 310.623 197.098 310.623C196.592 310.623 196.136 310.52 195.73 310.313C195.331 310.106 195.025 309.891 194.81 309.669L195.707 308.254C195.845 308.43 196.037 308.591 196.282 308.737C196.535 308.883 196.811 308.955 197.11 308.955C197.547 308.955 197.942 308.71 198.294 308.22C198.647 307.737 198.996 306.997 199.341 306H198.582L194.994 294.5H197.282ZM225.932 302.55C225.15 302.55 224.433 302.431 223.781 302.193C223.597 302.339 223.436 302.504 223.298 302.688C223.168 302.872 223.103 303.075 223.103 303.297C223.103 303.696 223.252 303.98 223.551 304.148C223.858 304.317 224.226 304.401 224.655 304.401H227.622C228.742 304.401 229.627 304.643 230.279 305.126C230.938 305.601 231.268 306.349 231.268 307.369C231.268 308.419 230.792 309.228 229.842 309.795C228.899 310.362 227.584 310.646 225.897 310.646C224.241 310.646 222.984 310.385 222.125 309.864C221.267 309.343 220.837 308.63 220.837 307.725C220.837 307.165 220.994 306.705 221.309 306.345C221.623 305.992 221.964 305.716 222.332 305.517C222.026 305.31 221.769 305.045 221.562 304.723C221.355 304.401 221.251 304.037 221.251 303.631C221.251 303.14 221.393 302.722 221.677 302.377C221.968 302.032 222.271 301.756 222.585 301.549C222.156 301.212 221.811 300.783 221.55 300.261C221.29 299.74 221.159 299.115 221.159 298.387C221.159 297.413 221.382 296.62 221.826 296.006C222.271 295.393 222.854 294.945 223.574 294.661C224.303 294.37 225.088 294.224 225.932 294.224C226.43 294.224 226.913 294.274 227.381 294.373C227.848 294.473 228.282 294.63 228.68 294.845L230.279 292.993L231.555 294.189L229.807 295.742C230.076 296.072 230.286 296.455 230.44 296.892C230.601 297.329 230.681 297.827 230.681 298.387C230.681 299.368 230.447 300.166 229.98 300.779C229.52 301.392 228.926 301.841 228.197 302.124C227.469 302.408 226.714 302.55 225.932 302.55ZM225.932 300.871C226.683 300.871 227.293 300.66 227.76 300.238C228.236 299.809 228.473 299.192 228.473 298.387C228.473 297.582 228.251 296.965 227.806 296.535C227.369 296.106 226.744 295.891 225.932 295.891C225.111 295.891 224.479 296.106 224.034 296.535C223.597 296.965 223.379 297.582 223.379 298.387C223.379 299.192 223.616 299.809 224.092 300.238C224.567 300.66 225.18 300.871 225.932 300.871ZM222.769 307.472C222.769 307.94 223.026 308.315 223.54 308.599C224.053 308.883 224.855 309.025 225.943 309.025C227.017 309.025 227.841 308.894 228.416 308.634C228.991 308.381 229.278 307.982 229.278 307.438C229.278 306.993 229.129 306.644 228.83 306.391C228.538 306.146 228.017 306.023 227.266 306.023H223.839C223.793 306.023 223.747 306.023 223.701 306.023C223.44 306.161 223.218 306.349 223.034 306.587C222.857 306.832 222.769 307.127 222.769 307.472ZM243.189 306.322L242.027 304.804C241.728 305.157 241.288 305.486 240.705 305.793C240.122 306.1 239.352 306.253 238.393 306.253C237.174 306.253 236.174 305.939 235.392 305.31C234.618 304.681 234.23 303.742 234.23 302.492C234.23 301.703 234.441 301.047 234.863 300.526C235.292 300.005 235.875 299.614 236.611 299.353C237.355 299.085 238.194 298.95 239.129 298.95H241.314V298.099C241.314 297.348 241.069 296.808 240.578 296.478C240.088 296.141 239.497 295.972 238.807 295.972C238.179 295.972 237.638 296.118 237.186 296.409C236.734 296.7 236.408 296.992 236.208 297.283L234.414 296.087C234.721 295.619 235.265 295.194 236.047 294.81C236.837 294.419 237.799 294.224 238.934 294.224C239.747 294.224 240.494 294.358 241.176 294.626C241.866 294.887 242.418 295.278 242.832 295.799C243.246 296.321 243.453 296.965 243.453 297.731V303.504L244.822 305.183L243.189 306.322ZM238.738 304.631C239.382 304.631 239.927 304.493 240.371 304.217C240.824 303.934 241.138 303.596 241.314 303.205V300.537H239.279C238.451 300.537 237.761 300.691 237.209 300.997C236.657 301.296 236.381 301.81 236.381 302.538C236.381 303.313 236.603 303.857 237.048 304.171C237.493 304.478 238.056 304.631 238.738 304.631ZM254.409 294.5H256.64L253.845 306H250.648L247.842 294.5H250.085L252.132 304.275H252.362L254.409 294.5ZM269.906 303.757C269.753 304.056 269.488 304.401 269.113 304.792C268.737 305.183 268.239 305.525 267.618 305.816C267.004 306.107 266.261 306.253 265.387 306.253C264.444 306.253 263.589 306.031 262.822 305.586C262.063 305.134 261.458 304.463 261.005 303.573C260.561 302.676 260.338 301.557 260.338 300.215C260.338 298.874 260.572 297.758 261.04 296.869C261.507 295.98 262.125 295.316 262.891 294.879C263.666 294.442 264.501 294.224 265.398 294.224C266.893 294.224 268.066 294.784 268.917 295.903C269.768 297.015 270.194 298.548 270.194 300.503H262.558C262.588 301.806 262.845 302.799 263.328 303.481C263.811 304.164 264.497 304.505 265.387 304.505C265.9 304.505 266.337 304.409 266.698 304.217C267.066 304.026 267.357 303.796 267.572 303.527C267.794 303.251 267.951 302.998 268.043 302.768L269.906 303.757ZM265.41 295.926C264.689 295.926 264.076 296.187 263.57 296.708C263.071 297.222 262.753 298.038 262.615 299.157H267.997C267.997 298.674 267.909 298.184 267.733 297.685C267.564 297.187 267.288 296.769 266.905 296.432C266.529 296.095 266.031 295.926 265.41 295.926ZM293.668 303.573H295.957V306H287.884V303.573H290.356V293.407L288.091 294.845L286.918 292.43L290.885 289.9H293.668V303.573ZM312.669 306V289.9H318.166C318.71 289.9 319.262 289.965 319.822 290.095C320.389 290.218 320.907 290.429 321.375 290.728C321.85 291.019 322.233 291.422 322.525 291.935C322.816 292.441 322.962 293.082 322.962 293.856C322.962 294.6 322.85 295.205 322.628 295.673C322.413 296.133 322.153 296.493 321.846 296.754C321.539 297.007 321.248 297.187 320.972 297.294C320.696 297.394 320.501 297.452 320.386 297.467C320.531 297.482 320.769 297.544 321.099 297.651C321.428 297.758 321.773 297.95 322.134 298.226C322.494 298.502 322.801 298.897 323.054 299.41C323.307 299.924 323.433 300.591 323.433 301.411C323.433 302.446 323.218 303.305 322.789 303.987C322.36 304.662 321.773 305.168 321.03 305.505C320.294 305.835 319.469 306 318.557 306H312.669ZM316.407 296.397H317.741C318.17 296.397 318.542 296.244 318.856 295.937C319.178 295.631 319.339 295.094 319.339 294.327C319.339 293.584 319.182 293.097 318.868 292.867C318.553 292.629 318.185 292.51 317.764 292.51H316.407V296.397ZM316.407 303.389H318.143C318.641 303.389 319.032 303.228 319.316 302.906C319.607 302.577 319.753 302.002 319.753 301.181C319.753 300.407 319.6 299.851 319.293 299.514C318.986 299.169 318.595 298.996 318.12 298.996H316.407V303.389ZM330.869 292.28C330.218 292.28 329.666 292.054 329.213 291.602C328.769 291.15 328.546 290.598 328.546 289.946C328.546 289.294 328.769 288.742 329.213 288.29C329.666 287.838 330.218 287.611 330.869 287.611C331.521 287.611 332.073 287.838 332.525 288.29C332.978 288.742 333.204 289.294 333.204 289.946C333.204 290.598 332.978 291.15 332.525 291.602C332.073 292.054 331.521 292.28 330.869 292.28ZM332.675 303.366H335.918V306H329.029V297.133H325.867V294.5H332.675V303.366ZM345.251 303.573H348.069V306H341.64V297.133H338.777V294.5H341.64V291.004H345.251V294.5H348.333V297.133H345.251V303.573ZM362.67 303.309C362.47 303.846 362.133 304.336 361.658 304.781C361.19 305.226 360.623 305.582 359.956 305.85C359.296 306.119 358.587 306.253 357.828 306.253C356.9 306.253 356.015 306.046 355.172 305.632C354.336 305.21 353.65 304.559 353.113 303.677C352.584 302.788 352.32 301.638 352.32 300.227C352.32 298.801 352.584 297.647 353.113 296.765C353.65 295.884 354.336 295.24 355.172 294.833C356.015 294.427 356.9 294.224 357.828 294.224C358.587 294.224 359.296 294.347 359.956 294.592C360.623 294.837 361.19 295.182 361.658 295.627C362.133 296.064 362.463 296.581 362.647 297.179L359.691 298.801C359.538 298.257 359.315 297.812 359.024 297.467C358.733 297.122 358.342 296.949 357.851 296.949C357.291 296.949 356.835 297.191 356.483 297.674C356.13 298.157 355.954 299.008 355.954 300.227C355.954 301.423 356.13 302.274 356.483 302.78C356.835 303.278 357.291 303.527 357.851 303.527C358.334 303.527 358.725 303.355 359.024 303.01C359.323 302.657 359.538 302.22 359.668 301.699L362.67 303.309ZM370.301 306.253C369.665 306.253 369.036 306.15 368.415 305.942C367.794 305.735 367.227 305.402 366.713 304.942C366.207 304.474 365.801 303.853 365.494 303.079C365.188 302.305 365.034 301.354 365.034 300.227C365.034 299.1 365.188 298.153 365.494 297.386C365.801 296.62 366.207 296.006 366.713 295.546C367.219 295.079 367.783 294.741 368.404 294.534C369.025 294.327 369.657 294.224 370.301 294.224C370.93 294.224 371.555 294.327 372.176 294.534C372.797 294.741 373.36 295.079 373.866 295.546C374.372 296.006 374.779 296.62 375.085 297.386C375.392 298.153 375.545 299.1 375.545 300.227C375.545 301.354 375.392 302.305 375.085 303.079C374.779 303.853 374.372 304.474 373.866 304.942C373.36 305.402 372.797 305.735 372.176 305.942C371.555 306.15 370.93 306.253 370.301 306.253ZM370.301 303.504C370.6 303.504 370.872 303.416 371.118 303.24C371.371 303.064 371.57 302.742 371.716 302.274C371.861 301.799 371.934 301.116 371.934 300.227C371.934 299.353 371.861 298.682 371.716 298.214C371.57 297.739 371.371 297.413 371.118 297.237C370.872 297.061 370.6 296.972 370.301 296.972C369.979 296.972 369.692 297.061 369.439 297.237C369.193 297.413 368.998 297.739 368.852 298.214C368.707 298.682 368.634 299.353 368.634 300.227C368.634 301.116 368.707 301.799 368.852 302.274C368.998 302.742 369.197 303.064 369.45 303.24C369.703 303.416 369.987 303.504 370.301 303.504ZM383.338 292.28C382.686 292.28 382.134 292.054 381.682 291.602C381.237 291.15 381.015 290.598 381.015 289.946C381.015 289.294 381.237 288.742 381.682 288.29C382.134 287.838 382.686 287.611 383.338 287.611C383.99 287.611 384.542 287.838 384.994 288.29C385.446 288.742 385.673 289.294 385.673 289.946C385.673 290.598 385.446 291.15 384.994 291.602C384.542 292.054 383.99 292.28 383.338 292.28ZM385.144 303.366H388.387V306H381.498V297.133H378.336V294.5H385.144V303.366ZM391.614 306V294.5H394.431L394.914 296.006C395.282 295.477 395.742 295.052 396.294 294.73C396.854 294.408 397.483 294.247 398.18 294.247C399.407 294.247 400.319 294.63 400.917 295.397C401.523 296.164 401.826 297.237 401.826 298.617V306H398.215V299.169C398.215 298.548 398.104 298.034 397.881 297.628C397.667 297.214 397.333 297.007 396.881 297.007C396.536 297.007 396.241 297.122 395.995 297.352C395.75 297.574 395.554 297.846 395.409 298.168C395.263 298.483 395.175 298.782 395.144 299.065V306H391.614ZM423.472 304.424H426.761V306H421.264V296.19H418.009V294.5H421.264V291.004H423.472V294.5H426.991V296.19H423.472V304.424ZM435.887 306.253C435.09 306.253 434.335 306.061 433.622 305.678C432.916 305.295 432.341 304.662 431.897 303.78C431.452 302.899 431.23 301.714 431.23 300.227C431.23 298.747 431.452 297.57 431.897 296.696C432.341 295.815 432.916 295.182 433.622 294.799C434.335 294.416 435.09 294.224 435.887 294.224C436.685 294.224 437.44 294.416 438.153 294.799C438.866 295.182 439.445 295.815 439.889 296.696C440.334 297.57 440.556 298.747 440.556 300.227C440.556 301.714 440.334 302.899 439.889 303.78C439.445 304.662 438.866 305.295 438.153 305.678C437.44 306.061 436.685 306.253 435.887 306.253ZM435.887 304.505C436.347 304.505 436.761 304.382 437.129 304.137C437.497 303.884 437.789 303.451 438.003 302.837C438.226 302.216 438.337 301.346 438.337 300.227C438.337 299.123 438.226 298.264 438.003 297.651C437.789 297.03 437.497 296.597 437.129 296.351C436.761 296.098 436.347 295.972 435.887 295.972C435.435 295.972 435.021 296.098 434.645 296.351C434.277 296.597 433.982 297.03 433.76 297.651C433.545 298.264 433.438 299.123 433.438 300.227C433.438 301.346 433.545 302.216 433.76 302.837C433.982 303.458 434.277 303.892 434.645 304.137C435.021 304.382 435.435 304.505 435.887 304.505ZM465.411 289.9V301.871C465.411 302.899 465.215 303.731 464.824 304.367C464.441 305.003 463.912 305.471 463.237 305.77C462.562 306.061 461.8 306.207 460.949 306.207C459.975 306.207 459.178 306.023 458.557 305.655C457.943 305.279 457.479 304.865 457.165 304.413L458.718 302.998C458.902 303.343 459.158 303.665 459.488 303.964C459.818 304.263 460.289 304.413 460.903 304.413C461.685 304.413 462.267 304.191 462.651 303.746C463.042 303.301 463.237 302.527 463.237 301.423V291.59H458.246V289.9H465.411ZM475.239 306.253C474.441 306.253 473.686 306.061 472.973 305.678C472.268 305.295 471.693 304.662 471.248 303.78C470.804 302.899 470.581 301.714 470.581 300.227C470.581 298.747 470.804 297.57 471.248 296.696C471.693 295.815 472.268 295.182 472.973 294.799C473.686 294.416 474.441 294.224 475.239 294.224C476.036 294.224 476.791 294.416 477.504 294.799C478.217 295.182 478.796 295.815 479.241 296.696C479.685 297.57 479.908 298.747 479.908 300.227C479.908 301.714 479.685 302.899 479.241 303.78C478.796 304.662 478.217 305.295 477.504 305.678C476.791 306.061 476.036 306.253 475.239 306.253ZM475.239 304.505C475.699 304.505 476.113 304.382 476.481 304.137C476.849 303.884 477.14 303.451 477.355 302.837C477.577 302.216 477.688 301.346 477.688 300.227C477.688 299.123 477.577 298.264 477.355 297.651C477.14 297.03 476.849 296.597 476.481 296.351C476.113 296.098 475.699 295.972 475.239 295.972C474.786 295.972 474.372 296.098 473.997 296.351C473.629 296.597 473.334 297.03 473.111 297.651C472.897 298.264 472.789 299.123 472.789 300.227C472.789 301.346 472.897 302.216 473.111 302.837C473.334 303.458 473.629 303.892 473.997 304.137C474.372 304.382 474.786 304.505 475.239 304.505ZM492.899 303.757C492.745 304.056 492.481 304.401 492.105 304.792C491.729 305.183 491.231 305.525 490.61 305.816C489.997 306.107 489.253 306.253 488.379 306.253C487.436 306.253 486.581 306.031 485.815 305.586C485.056 305.134 484.45 304.463 483.998 303.573C483.553 302.676 483.33 301.557 483.33 300.215C483.33 298.874 483.564 297.758 484.032 296.869C484.5 295.98 485.117 295.316 485.884 294.879C486.658 294.442 487.494 294.224 488.391 294.224C489.886 294.224 491.059 294.784 491.91 295.903C492.761 297.015 493.186 298.548 493.186 300.503H485.55C485.581 301.806 485.838 302.799 486.321 303.481C486.804 304.164 487.49 304.505 488.379 304.505C488.893 304.505 489.33 304.409 489.69 304.217C490.058 304.026 490.349 303.796 490.564 303.527C490.786 303.251 490.944 302.998 491.036 302.768L492.899 303.757ZM488.402 295.926C487.681 295.926 487.068 296.187 486.562 296.708C486.064 297.222 485.746 298.038 485.608 299.157H490.99C490.99 298.674 490.901 298.184 490.725 297.685C490.556 297.187 490.28 296.769 489.897 296.432C489.521 296.095 489.023 295.926 488.402 295.926Z" fill="black"/>
<path d="M142 291L125.5 307.5L118 300" stroke="#1BB145" stroke-width="3" stroke-linecap="round" stroke-linejoin="round"/>
<rect x="96" y="82" width="274" height="32" fill="#431BBB"/>
<rect x="96" y="122" width="274" height="32" fill="#431BBB"/>
<rect x="96" y="162" width="274" height="32" fill="#431BBB"/>
<rect x="96" y="202" width="274" height="32" fill="#431BBB"/>
<rect x="370" y="82" width="275" height="32" fill="#170845"/>
<rect x="370" y="122" width="275" height="32" fill="#170845"/>
<rect x="370" y="162" width="275" height="32" fill="#170845"/>
<rect x="370" y="202" width="275" height="32" fill="#170845"/>
<rect x="64" y="82" width="32" height="32" fill="#B54897"/>
<rect x="64" y="122" width="32" height="32" fill="#B54897"/>
<rect x="64" y="162" width="32" height="32" fill="#B54897"/>
<rect x="64" y="202" width="32" height="32" fill="#B54897"/>
<rect x="64" y="268" width="32" height="32" fill="#B54897"/>
<path d="M85.5624 96.559V102.435C85.3324 102.872 84.9874 103.309 84.5274 103.746C84.0674 104.176 83.4924 104.536 82.8024 104.827C82.1201 105.111 81.3227 105.253 80.4104 105.253C79.6591 105.253 78.9269 105.1 78.2139 104.793C77.5086 104.486 76.8684 104.003 76.2934 103.344C75.7261 102.685 75.2737 101.834 74.9364 100.791C74.5991 99.7407 74.4304 98.4757 74.4304 96.996C74.4304 95.5163 74.5991 94.2552 74.9364 93.2125C75.2814 92.1698 75.7414 91.3227 76.3164 90.671C76.8914 90.0117 77.5354 89.5287 78.2484 89.222C78.9614 88.9153 79.6897 88.762 80.4334 88.762C81.3687 88.762 82.1661 88.9307 82.8254 89.268C83.4847 89.5977 84.0214 90.0385 84.4354 90.5905C84.8571 91.1348 85.1791 91.7367 85.4014 92.396L82.7794 93.6265C82.6721 93.2968 82.5187 92.9442 82.3194 92.5685C82.1277 92.1852 81.8747 91.8593 81.5604 91.591C81.2537 91.3227 80.8781 91.1885 80.4334 91.1885C79.6437 91.1885 78.9614 91.6562 78.3864 92.5915C77.8191 93.5192 77.5354 94.9873 77.5354 96.996C77.5354 98.3377 77.6696 99.4378 77.9379 100.296C78.2139 101.155 78.5704 101.791 79.0074 102.205C79.4444 102.619 79.9121 102.826 80.4104 102.826C81.0467 102.826 81.5374 102.708 81.8824 102.47C82.2274 102.232 82.4881 101.995 82.6644 101.757V98.8015H80.3069V96.559H85.5624Z" fill="black"/>
<path d="M81.8364 142.861H84.2514V145H76.3394V142.861H78.9384V131.959L76.4544 133.534L75.4424 131.407L79.3754 128.9H81.8364V142.861Z" fill="black"/>
<path d="M84.2859 173.408C84.2859 174.06 84.1556 174.75 83.8949 175.478C83.6419 176.206 83.3122 176.935 82.9059 177.663C82.4996 178.384 82.0626 179.074 81.5949 179.733C81.1272 180.385 80.6826 180.967 80.2609 181.481C79.8392 181.995 79.4866 182.393 79.2029 182.677H84.5964V185H75.2699V182.769C75.6532 182.409 76.1017 181.949 76.6154 181.389C77.1367 180.829 77.6696 180.216 78.2139 179.549C78.7582 178.874 79.2604 178.18 79.7204 177.467C80.1881 176.754 80.5676 176.061 80.8589 175.386C81.1502 174.704 81.2959 174.083 81.2959 173.523C81.2959 172.703 81.1541 172.078 80.8704 171.648C80.5944 171.219 80.1536 171.004 79.5479 171.004C79.1722 171.004 78.8272 171.146 78.5129 171.43C78.1986 171.706 77.9264 172.066 77.6964 172.511C77.4664 172.948 77.2824 173.4 77.1444 173.868L74.6029 172.683C74.9479 171.533 75.5536 170.594 76.4199 169.866C77.2939 169.13 78.3711 168.762 79.6514 168.762C81.0927 168.762 82.2236 169.176 83.0439 170.004C83.8719 170.824 84.2859 171.959 84.2859 173.408Z" fill="black"/>
<path d="M80.9854 215.926C81.1924 215.773 81.5221 215.696 81.9744 215.696C82.9327 215.696 83.7147 216.084 84.3204 216.858C84.9261 217.632 85.2289 218.713 85.2289 220.101C85.2289 221.742 84.7612 223.01 83.8259 223.907C82.8982 224.804 81.6907 225.253 80.2034 225.253C79.2451 225.253 78.4286 225.1 77.7539 224.793C77.0792 224.479 76.5234 224.068 76.0864 223.562C75.6494 223.049 75.3082 222.497 75.0629 221.906L77.4549 220.572C77.7002 221.232 78.0414 221.803 78.4784 222.286C78.9231 222.761 79.4827 222.999 80.1574 222.999C80.8704 222.999 81.4262 222.731 81.8249 222.194C82.2312 221.657 82.4344 220.971 82.4344 220.135C82.4344 219.3 82.2734 218.652 81.9514 218.192C81.6294 217.732 81.1694 217.502 80.5714 217.502C80.0654 217.502 79.6016 217.667 79.1799 217.996L77.4204 216.57L81.4224 211.039H75.6609V208.9H84.6079V211.039L80.9854 215.926Z" fill="black"/>
<path d="M85.1714 285.319V287.458H83.4349V291H80.5484L80.5599 287.458H74.9019L74.8674 285.319L78.9614 274.9H83.4349V285.319H85.1714ZM80.5944 277.131H80.5829L77.5814 285.319H80.5714L80.5944 277.131Z" fill="black"/>
<rect x="564" y="92" width="74" height="12" rx="3" fill="#D9EBD4"/>
<rect x="564" y="132" width="74" height="12" rx="3" fill="#D9EBD4"/>
<rect x="564" y="172" width="74" height="12" rx="3" fill="#D9EBD4"/>
<rect x="564" y="212" width="74" height="12" rx="3" fill="#D9EBD4"/>
</svg>
