<svg width="1163" height="380" viewBox="0 0 1163 380" fill="none" xmlns="http://www.w3.org/2000/svg">
<path d="M463.59 328V296.374H478.164C484.758 296.374 489.42 299.062 489.42 304.774C489.42 307.546 487.236 310.36 484.002 311.116C488.37 311.62 490.722 315.106 490.722 318.844C490.722 324.514 487.74 328 478.332 328H463.59ZM478.248 301.54H469.638V309.268H478.248C482.028 309.268 483.372 307.798 483.372 305.404C483.372 303.01 482.028 301.54 478.248 301.54ZM478.836 314.434H469.638V322.834H478.92C483.204 322.834 484.674 321.28 484.674 318.634C484.674 315.988 483.12 314.434 478.836 314.434ZM495.652 328V295.744H501.448V328H495.652ZM505.993 317.038C505.993 310.864 510.067 305.572 517.123 305.572C524.179 305.572 528.253 310.864 528.253 317.038C528.253 323.212 524.179 328.504 517.123 328.504C510.067 328.504 505.993 323.212 505.993 317.038ZM517.123 309.604C513.637 309.604 511.789 311.872 511.789 317.038C511.789 322.204 513.637 324.472 517.123 324.472C520.609 324.472 522.499 322.204 522.457 317.038C522.415 311.872 520.609 309.604 517.123 309.604ZM552.721 319.768C552.007 324.682 548.101 328.504 542.137 328.504C535.081 328.504 531.259 323.212 531.259 317.038C531.259 310.864 535.207 305.572 542.263 305.572C547.975 305.572 551.461 309.016 552.553 313.594H546.841C546.253 310.864 544.993 309.604 542.263 309.604C538.777 309.604 537.055 311.872 537.055 317.038C537.055 322.204 538.777 324.472 542.263 324.472C545.203 324.472 546.589 323.002 547.009 319.768H552.721ZM557.134 328V295.744H562.93V313.048L570.112 306.076H577.378L569.23 313.888L578.68 328H571.708L565.114 317.794L562.93 319.894V328H557.134ZM602.022 319.768C601.308 324.682 597.402 328.504 591.438 328.504C584.382 328.504 580.56 323.212 580.56 317.038C580.56 310.864 584.508 305.572 591.564 305.572C597.276 305.572 600.762 309.016 601.854 313.594H596.142C595.554 310.864 594.294 309.604 591.564 309.604C588.078 309.604 586.356 311.872 586.356 317.038C586.356 322.204 588.078 324.472 591.564 324.472C594.504 324.472 595.89 323.002 596.31 319.768H602.022ZM612.231 316.408V328H606.435V295.744H612.231V309.352C612.735 308.344 614.877 305.572 618.951 305.572C625.209 305.572 626.721 310.612 626.721 316.492V328H620.925V316.114C620.925 312.754 620.169 310.36 617.061 310.36C614.835 310.36 612.231 311.788 612.231 316.408ZM650.245 328.504C646.465 328.504 644.995 326.656 644.281 324.598C643.861 326.194 641.803 328.504 637.855 328.504C633.361 328.504 631.009 325.48 631.009 322.12C631.009 315.148 640.165 315.106 643.819 314.938V312.712C643.819 310.57 642.475 309.604 640.627 309.604C638.527 309.604 637.309 310.696 637.309 312.88H631.639C631.639 309.982 633.529 305.572 640.501 305.572C645.247 305.572 649.405 307.798 649.405 312.754V321.616C649.405 323.548 649.951 323.884 651.337 323.884C651.967 323.884 652.387 323.8 652.387 323.8V328.21C652.387 328.21 652.219 328.504 650.245 328.504ZM639.451 324.346C641.635 324.346 643.819 322.204 643.819 318.424V318.172C640.375 318.298 636.679 318.802 636.679 322.12C636.679 323.548 637.771 324.346 639.451 324.346ZM655.777 301.792V295.744H661.825V301.792H655.777ZM655.903 328V306.076H661.699V328H655.903ZM673.673 316.408V328H667.877V306.076H673.673V309.226C674.177 308.218 676.319 305.572 680.393 305.572C686.651 305.572 688.163 310.612 688.163 316.492V328H682.367V316.114C682.367 312.754 681.611 310.36 678.503 310.36C676.277 310.36 673.673 311.788 673.673 316.408Z" fill="black"/>
<path d="M113.858 150.832C113.354 146.548 109.826 145.078 106.382 145.078C101.342 145.078 97.3521 147.892 97.3521 156.124C97.3521 164.356 100.964 167.254 106.256 167.338C110.54 167.338 113.774 166.078 114.11 160.366H120.032C119.78 166.708 116.084 172.504 106.046 172.504C95.7141 172.504 91.1781 163.432 91.1781 156.124C91.1781 148.816 95.4621 139.87 106.172 139.87C115.16 139.87 119.192 144.994 119.78 150.832H113.858ZM130.757 161.794V172H124.961V150.076H130.757V154.402C131.135 153.016 133.781 149.572 138.653 149.572V155.368C134.621 155.116 130.757 157.048 130.757 161.794ZM147.809 172.252L139.913 150.076H145.877L150.497 166.708L155.117 150.076H160.955L153.185 172.252C152.009 175.654 151.043 181.744 144.953 181.744C142.433 181.744 140.963 181.366 140.963 181.366V176.536C140.963 176.536 142.391 176.83 143.651 176.83C145.793 176.83 146.759 176.746 147.515 173.512L147.809 172.252ZM176.974 172.504C173.236 172.504 171.094 170.866 170.296 169.06V181.744H164.5V150.076H170.296V153.058C171.304 151.252 173.614 149.572 176.974 149.572C182.77 149.572 186.76 154.486 186.76 161.038C186.76 167.59 182.77 172.504 176.974 172.504ZM175.756 153.772C172.9 153.772 170.044 155.872 170.044 161.038C170.044 166.204 172.9 168.304 175.756 168.304C178.864 168.304 180.964 166.078 180.964 161.038C180.964 155.998 178.864 153.772 175.756 153.772ZM192.291 166.75V154.36H189.141V150.076H192.291V143.146H198.087V150.076H201.993V154.36H198.087V165.784C198.087 167.086 198.675 167.674 200.229 167.674C201.531 167.674 202.371 167.548 202.371 167.548V172.294C202.371 172.294 200.985 172.504 198.507 172.504C192.627 172.504 192.291 168.472 192.291 166.75ZM205.521 161.038C205.521 154.864 209.595 149.572 216.651 149.572C223.707 149.572 227.781 154.864 227.781 161.038C227.781 167.212 223.707 172.504 216.651 172.504C209.595 172.504 205.521 167.212 205.521 161.038ZM216.651 153.604C213.165 153.604 211.317 155.872 211.317 161.038C211.317 166.204 213.165 168.472 216.651 168.472C220.137 168.472 222.027 166.204 221.985 161.038C221.943 155.872 220.137 153.604 216.651 153.604ZM252.248 163.768C251.534 168.682 247.628 172.504 241.664 172.504C234.608 172.504 230.786 167.212 230.786 161.038C230.786 154.864 234.734 149.572 241.79 149.572C247.502 149.572 250.988 153.016 252.08 157.594H246.368C245.78 154.864 244.52 153.604 241.79 153.604C238.304 153.604 236.582 155.872 236.582 161.038C236.582 166.204 238.304 168.472 241.79 168.472C244.73 168.472 246.116 167.002 246.536 163.768H252.248ZM270.9 161.668V150.076H276.696V172H270.9V168.976C270.396 169.984 268.254 172.504 264.18 172.504C257.922 172.504 256.41 167.464 256.41 161.584V150.076H262.206V161.962C262.206 165.322 262.962 167.716 266.07 167.716C268.296 167.716 270.9 166.288 270.9 161.668ZM288.544 161.794V172H282.748V150.076H288.544V154.402C288.922 153.016 291.568 149.572 296.44 149.572V155.368C292.408 155.116 288.544 157.048 288.544 161.794ZM306.016 161.794V172H300.22V150.076H306.016V154.402C306.394 153.016 309.04 149.572 313.912 149.572V155.368C309.88 155.116 306.016 157.048 306.016 161.794ZM337.685 161.542H321.851C321.977 166.204 324.035 168.304 327.059 168.304C329.621 168.304 331.091 167.17 331.721 164.818H337.307C336.173 169.606 332.855 172.504 326.681 172.504C319.499 172.504 316.181 167.212 316.181 161.038C316.181 154.864 319.877 149.572 326.933 149.572C333.989 149.572 337.685 154.738 337.685 161.542ZM326.975 153.604C324.581 153.604 322.817 154.738 322.145 157.888H331.847C331.259 154.822 329.705 153.604 326.975 153.604ZM348.016 160.408V172H342.22V150.076H348.016V153.226C348.52 152.218 350.662 149.572 354.736 149.572C360.994 149.572 362.506 154.612 362.506 160.492V172H356.71V160.114C356.71 156.754 355.954 154.36 352.846 154.36C350.62 154.36 348.016 155.788 348.016 160.408ZM388.256 163.768C387.542 168.682 383.636 172.504 377.672 172.504C370.616 172.504 366.794 167.212 366.794 161.038C366.794 154.864 370.742 149.572 377.798 149.572C383.51 149.572 386.996 153.016 388.088 157.594H382.376C381.788 154.864 380.528 153.604 377.798 153.604C374.312 153.604 372.59 155.872 372.59 161.038C372.59 166.204 374.312 168.472 377.798 168.472C380.738 168.472 382.124 167.002 382.544 163.768H388.256ZM398.046 172.252L390.15 150.076H396.114L400.734 166.708L405.354 150.076H411.192L403.422 172.252C402.246 175.654 401.28 181.744 395.19 181.744C392.67 181.744 391.2 181.366 391.2 181.366V176.536C391.2 176.536 392.628 176.83 393.888 176.83C396.03 176.83 396.996 176.746 397.752 173.512L398.046 172.252Z" fill="black"/>
<path d="M885.793 172H879.283L863.659 148.774V172H857.611V140.374H864.163L879.745 163.558V140.374H885.793V172ZM892.843 172V140.374H916.153V145.54H898.891V154.15H914.263V159.316H898.891V172H892.843ZM918.536 140.374H945.164V145.54H934.874V172H928.826V145.54H918.536V140.374Z" fill="black"/>
<path fill-rule="evenodd" clip-rule="evenodd" d="M546.832 223.083C543.38 223.083 540.582 225.881 540.582 229.333V262.666C540.582 266.118 543.38 268.916 546.832 268.916H571.832C573.433 268.916 574.893 268.315 575.999 267.325C577.105 268.315 578.565 268.916 580.165 268.916H605.165C608.617 268.916 611.415 266.118 611.415 262.666V229.333C611.415 225.881 608.617 223.083 605.165 223.083H580.165C578.565 223.083 577.105 223.685 575.999 224.674C574.893 223.685 573.433 223.083 571.832 223.083H546.832ZM578.082 229.333V262.666C578.082 263.817 579.015 264.75 580.165 264.75H605.165C606.316 264.75 607.249 263.817 607.249 262.666V229.333C607.249 228.182 606.316 227.25 605.165 227.25H580.165C579.015 227.25 578.082 228.182 578.082 229.333ZM573.915 229.333C573.915 228.182 572.982 227.25 571.832 227.25H546.832C545.681 227.25 544.749 228.182 544.749 229.333V262.666C544.749 263.817 545.681 264.75 546.832 264.75H571.832C572.982 264.75 573.915 263.817 573.915 262.666V229.333Z" fill="black"/>
<path fill-rule="evenodd" clip-rule="evenodd" d="M582.25 237.666C582.25 236.516 583.183 235.583 584.333 235.583H601C602.15 235.583 603.083 236.516 603.083 237.666C603.083 238.817 602.15 239.75 601 239.75H584.333C583.183 239.75 582.25 238.817 582.25 237.666Z" fill="black"/>
<path fill-rule="evenodd" clip-rule="evenodd" d="M548.918 237.666C548.918 236.516 549.851 235.583 551.001 235.583H567.668C568.818 235.583 569.751 236.516 569.751 237.666C569.751 238.817 568.818 239.75 567.668 239.75H551.001C549.851 239.75 548.918 238.817 548.918 237.666Z" fill="black"/>
<path fill-rule="evenodd" clip-rule="evenodd" d="M582.25 246C582.25 244.85 583.183 243.917 584.333 243.917H592.667C593.817 243.917 594.75 244.85 594.75 246C594.75 247.151 593.817 248.084 592.667 248.084H584.333C583.183 248.084 582.25 247.151 582.25 246Z" fill="black"/>
<path fill-rule="evenodd" clip-rule="evenodd" d="M548.918 246C548.918 244.85 549.851 243.917 551.001 243.917H559.335C560.485 243.917 561.418 244.85 561.418 246C561.418 247.151 560.485 248.084 559.335 248.084H551.001C549.851 248.084 548.918 247.151 548.918 246Z" fill="black"/>
<path fill-rule="evenodd" clip-rule="evenodd" d="M872.926 66.262C873.417 91.4038 892.243 103.03 900.157 107.751C904.915 105.591 911.411 100.799 916.846 93.8243C922.448 86.6343 926.819 77.2601 927.072 66.2607C923.528 63.6002 914.227 57.9997 900 57.9997C885.771 57.9997 876.469 63.6021 872.926 66.262ZM869.513 63.6442C872.807 60.9439 883.345 53.833 900 53.833C916.655 53.833 927.193 60.9439 930.487 63.6442C930.97 64.0399 931.25 64.6312 931.25 65.2554C931.25 77.8159 926.34 88.4193 920.133 96.3851C913.952 104.317 906.375 109.777 900.774 112.017C900.17 112.259 899.489 112.205 898.931 111.871C898.74 111.757 898.539 111.638 898.327 111.511C890.505 106.86 868.75 93.9213 868.75 65.2554C868.75 64.6312 869.03 64.0399 869.513 63.6442Z" fill="black"/>
<path fill-rule="evenodd" clip-rule="evenodd" d="M911.889 71.1102C912.702 71.9238 912.702 73.2429 911.889 74.0565L899.389 86.5567C898.575 87.37 897.256 87.37 896.442 86.5567L890.192 80.3067C889.379 79.4929 889.379 78.1738 890.192 77.36C891.006 76.5467 892.325 76.5467 893.139 77.36L897.915 82.1371L908.942 71.1102C909.756 70.2966 911.075 70.2966 911.889 71.1102Z" fill="black"/>
<path fill-rule="evenodd" clip-rule="evenodd" d="M242.668 44.667C243.818 44.667 244.751 45.5997 244.751 46.7503V55.0837H248.918V46.7503C248.918 45.5997 249.851 44.667 251.001 44.667C252.152 44.667 253.085 45.5997 253.085 46.7503V55.0837H258.053C264.224 55.0837 269.751 59.4774 269.751 65.5003C269.751 68.6105 268.277 71.2862 266.002 73.147C270.72 75.5041 273.918 80.5816 273.918 86.3337C273.918 94.267 267.835 100.917 260.07 100.917H253.085V109.25C253.085 110.401 252.152 111.334 251.001 111.334C249.851 111.334 248.918 110.401 248.918 109.25V100.917H244.751V109.25C244.751 110.401 243.818 111.334 242.668 111.334C241.517 111.334 240.585 110.401 240.585 109.25V100.917H238.501C237.351 100.917 236.418 99.9841 236.418 98.8337C236.418 97.6832 237.351 96.7503 238.501 96.7503H240.585V59.2503H238.501C237.351 59.2503 236.418 58.3176 236.418 57.167C236.418 56.0164 237.351 55.0837 238.501 55.0837H240.585V46.7503C240.585 45.5997 241.517 44.667 242.668 44.667ZM244.751 59.2503V71.7503H258.053C262.502 71.7503 265.585 68.6822 265.585 65.5003C265.585 62.3184 262.502 59.2503 258.053 59.2503H244.751ZM244.751 75.917V96.7503H260.07C265.3 96.7503 269.751 92.2074 269.751 86.3337C269.751 80.4599 265.3 75.917 260.07 75.917H244.751Z" fill="black"/>
<path d="M346.586 92.5858C345.805 93.3668 345.805 94.6332 346.586 95.4142L359.314 108.142C360.095 108.923 361.361 108.923 362.142 108.142C362.923 107.361 362.923 106.095 362.142 105.314L350.828 94L362.142 82.6863C362.923 81.9052 362.923 80.6389 362.142 79.8579C361.361 79.0768 360.095 79.0768 359.314 79.8579L346.586 92.5858ZM348 96L758 96V92L348 92V96Z" fill="black"/>
<path d="M805.414 73.4142C806.195 72.6332 806.195 71.3668 805.414 70.5858L792.686 57.8579C791.905 57.0768 790.639 57.0768 789.858 57.8579C789.077 58.6389 789.077 59.9052 789.858 60.6863L801.172 72L789.858 83.3137C789.077 84.0948 789.077 85.3611 789.858 86.1421C790.639 86.9232 791.905 86.9232 792.686 86.1421L805.414 73.4142ZM394 74L804 74V70L394 70V74Z" fill="black"/>
<path d="M261 210V246H487" stroke="black" stroke-width="4"/>
<path d="M884 210V246H665" stroke="black" stroke-width="4"/>
</svg>
