<svg width="702" height="433" viewBox="0 0 702 433" fill="none" xmlns="http://www.w3.org/2000/svg">
<rect x="61" y="40" width="579" height="30" stroke="black" stroke-width="2"/>
<rect x="61" y="80" width="579" height="30" stroke="black" stroke-width="2"/>
<rect x="61" y="120" width="579" height="30" stroke="black" stroke-width="2"/>
<rect x="61" y="160" width="579" height="30" stroke="black" stroke-width="2"/>
<rect x="61" y="202" width="579" height="30" stroke="black" stroke-width="2"/>
<rect x="61" y="244" width="579" height="30" stroke="black" stroke-width="2"/>
<rect x="61" y="286" width="579" height="30" stroke="black" stroke-width="2"/>
<rect x="61" y="328" width="579" height="30" stroke="black" stroke-width="2"/>
<rect x="367" y="40" width="273" height="30" stroke="black" stroke-width="2"/>
<rect x="367" y="80" width="273" height="30" stroke="black" stroke-width="2"/>
<rect x="367" y="120" width="273" height="30" stroke="black" stroke-width="2"/>
<rect x="367" y="160" width="273" height="30" stroke="black" stroke-width="2"/>
<rect x="367" y="202" width="273" height="30" stroke="black" stroke-width="2"/>
<rect x="367" y="244" width="273" height="30" stroke="black" stroke-width="2"/>
<rect x="367" y="286" width="273" height="30" stroke="black" stroke-width="2"/>
<rect x="367" y="328" width="273" height="30" stroke="black" stroke-width="2"/>
<rect x="61" y="40" width="30" height="30" stroke="black" stroke-width="2"/>
<rect x="61" y="80" width="30" height="30" stroke="black" stroke-width="2"/>
<rect x="61" y="120" width="30" height="30" stroke="black" stroke-width="2"/>
<rect x="61" y="160" width="30" height="30" stroke="black" stroke-width="2"/>
<rect x="61" y="202" width="30" height="30" stroke="black" stroke-width="2"/>
<rect x="61" y="244" width="30" height="30" stroke="black" stroke-width="2"/>
<rect x="61" y="286" width="30" height="30" stroke="black" stroke-width="2"/>
<rect x="61" y="328" width="30" height="30" stroke="black" stroke-width="2"/>
<path d="M81.5624 53.559V59.4355C81.3324 59.8725 80.9874 60.3095 80.5274 60.7465C80.0674 61.1758 79.4924 61.5362 78.8024 61.8275C78.1201 62.1112 77.3227 62.253 76.4104 62.253C75.6591 62.253 74.9269 62.0997 74.2139 61.793C73.5086 61.4863 72.8684 61.0033 72.2934 60.344C71.7261 59.6847 71.2737 58.8337 70.9364 57.791C70.5991 56.7407 70.4304 55.4757 70.4304 53.996C70.4304 52.5163 70.5991 51.2552 70.9364 50.2125C71.2814 49.1698 71.7414 48.3227 72.3164 47.671C72.8914 47.0117 73.5354 46.5287 74.2484 46.222C74.9614 45.9153 75.6897 45.762 76.4334 45.762C77.3687 45.762 78.1661 45.9307 78.8254 46.268C79.4847 46.5977 80.0214 47.0385 80.4354 47.5905C80.8571 48.1348 81.1791 48.7367 81.4014 49.396L78.7794 50.6265C78.6721 50.2968 78.5187 49.9442 78.3194 49.5685C78.1277 49.1852 77.8747 48.8593 77.5604 48.591C77.2537 48.3227 76.8781 48.1885 76.4334 48.1885C75.6437 48.1885 74.9614 48.6562 74.3864 49.5915C73.8191 50.5192 73.5354 51.9873 73.5354 53.996C73.5354 55.3377 73.6696 56.4378 73.9379 57.2965C74.2139 58.1552 74.5704 58.7915 75.0074 59.2055C75.4444 59.6195 75.9121 59.8265 76.4104 59.8265C77.0467 59.8265 77.5374 59.7077 77.8824 59.47C78.2274 59.2323 78.4881 58.9947 78.6644 58.757V55.8015H76.3069V53.559H81.5624Z" fill="#322E2E"/>
<path d="M77.8364 99.861H80.2514V102H72.3394V99.861H74.9384V88.959L72.4544 90.5345L71.4424 88.407L75.3754 85.9H77.8364V99.861Z" fill="#322E2E"/>
<path d="M80.2859 130.408C80.2859 131.06 80.1556 131.75 79.8949 132.478C79.6419 133.206 79.3122 133.935 78.9059 134.663C78.4996 135.384 78.0626 136.074 77.5949 136.733C77.1272 137.385 76.6826 137.967 76.2609 138.481C75.8392 138.995 75.4866 139.393 75.2029 139.677H80.5964V142H71.2699V139.769C71.6532 139.409 72.1017 138.949 72.6154 138.389C73.1367 137.829 73.6696 137.216 74.2139 136.549C74.7582 135.874 75.2604 135.18 75.7204 134.467C76.1881 133.754 76.5676 133.061 76.8589 132.386C77.1502 131.704 77.2959 131.083 77.2959 130.523C77.2959 129.703 77.1541 129.078 76.8704 128.648C76.5944 128.219 76.1536 128.004 75.5479 128.004C75.1722 128.004 74.8272 128.146 74.5129 128.43C74.1986 128.706 73.9264 129.066 73.6964 129.511C73.4664 129.948 73.2824 130.4 73.1444 130.868L70.6029 129.683C70.9479 128.533 71.5536 127.594 72.4199 126.866C73.2939 126.13 74.3711 125.762 75.6514 125.762C77.0927 125.762 78.2236 126.176 79.0439 127.004C79.8719 127.824 80.2859 128.959 80.2859 130.408Z" fill="#322E2E"/>
<path d="M76.9854 172.926C77.1924 172.773 77.5221 172.696 77.9744 172.696C78.9327 172.696 79.7147 173.084 80.3204 173.858C80.9261 174.632 81.2289 175.713 81.2289 177.101C81.2289 178.742 80.7612 180.01 79.8259 180.907C78.8982 181.804 77.6907 182.253 76.2034 182.253C75.2451 182.253 74.4286 182.1 73.7539 181.793C73.0792 181.479 72.5234 181.068 72.0864 180.562C71.6494 180.049 71.3082 179.497 71.0629 178.906L73.4549 177.572C73.7002 178.232 74.0414 178.803 74.4784 179.286C74.9231 179.761 75.4827 179.999 76.1574 179.999C76.8704 179.999 77.4262 179.731 77.8249 179.194C78.2312 178.657 78.4344 177.971 78.4344 177.135C78.4344 176.3 78.2734 175.652 77.9514 175.192C77.6294 174.732 77.1694 174.502 76.5714 174.502C76.0654 174.502 75.6016 174.667 75.1799 174.996L73.4204 173.57L77.4224 168.039H71.6609V165.9H80.6079V168.039L76.9854 172.926Z" fill="#322E2E"/>
<path d="M81.1714 218.319V220.458H79.4349V224H76.5484L76.5599 220.458H70.9019L70.8674 218.319L74.9614 207.9H79.4349V218.319H81.1714ZM76.5944 210.131H76.5829L73.5814 218.319H76.5714L76.5944 210.131Z" fill="#322E2E"/>
<path d="M75.8124 266.253C74.6547 266.253 73.6657 265.985 72.8454 265.448C72.0251 264.911 71.4309 264.21 71.0629 263.343L73.4549 262.067C73.6466 262.558 73.9302 263.006 74.3059 263.412C74.6816 263.811 75.1876 264.01 75.8239 264.01C77.2422 264.01 77.9514 262.88 77.9514 260.618C77.9514 259.537 77.7751 258.747 77.4224 258.249C77.0774 257.743 76.5867 257.49 75.9504 257.49C75.4137 257.49 74.9461 257.67 74.5474 258.03C74.1487 258.391 73.8344 258.874 73.6044 259.479V259.503H73.5929V259.491L71.2469 258.766L72.2704 249.9H80.2974V252.039H74.4899L73.9954 256.167C74.3634 255.861 74.7774 255.623 75.2374 255.454C75.6974 255.278 76.2072 255.19 76.7669 255.19C77.9706 255.19 78.9366 255.631 79.6649 256.512C80.4009 257.394 80.7689 258.763 80.7689 260.618C80.7689 261.921 80.5504 262.991 80.1134 263.826C79.6764 264.654 79.0822 265.268 78.3309 265.666C77.5872 266.058 76.7477 266.253 75.8124 266.253Z" fill="#322E2E"/>
<path d="M76.8819 297.167C78.1546 297.167 79.1666 297.619 79.9179 298.524C80.6692 299.421 81.0449 300.77 81.0449 302.572C81.0449 303.745 80.8379 304.757 80.4239 305.608C80.0176 306.451 79.4464 307.103 78.7104 307.563C77.9821 308.023 77.1387 308.253 76.1804 308.253C75.1991 308.253 74.3251 308.012 73.5584 307.528C72.7994 307.038 72.1976 306.229 71.7529 305.102C71.3159 303.975 71.0974 302.453 71.0974 300.536C71.0974 298.903 71.2584 297.527 71.5804 296.408C71.9024 295.289 72.3317 294.388 72.8684 293.705C73.4127 293.023 74.0261 292.529 74.7084 292.222C75.3984 291.915 76.1076 291.762 76.8359 291.762C77.5029 291.762 78.0817 291.854 78.5724 292.038C79.0631 292.222 79.4656 292.437 79.7799 292.682C80.1019 292.92 80.3281 293.127 80.4584 293.303L78.7334 294.982C78.5571 294.737 78.3156 294.518 78.0089 294.326C77.7099 294.127 77.3112 294.027 76.8129 294.027C76.3759 294.027 75.9657 294.158 75.5824 294.418C75.1991 294.679 74.8694 295.124 74.5934 295.752C74.3174 296.373 74.1181 297.228 73.9954 298.317C74.4247 297.926 74.8886 297.638 75.3869 297.454C75.8852 297.263 76.3836 297.167 76.8819 297.167ZM76.3299 299.455C75.7779 299.455 75.2872 299.682 74.8579 300.134C74.4286 300.586 74.1219 301.223 73.9379 302.043C74.0069 303.109 74.1487 303.929 74.3634 304.504C74.5781 305.071 74.8387 305.462 75.1454 305.677C75.4521 305.892 75.7856 305.999 76.1459 305.999C76.7746 305.999 77.2806 305.742 77.6639 305.228C78.0549 304.715 78.2504 303.848 78.2504 302.629C78.2504 301.472 78.0817 300.655 77.7444 300.18C77.4147 299.697 76.9432 299.455 76.3299 299.455Z" fill="#322E2E"/>
<path d="M71.4884 333.9H80.5389V336.039L76.2609 350H73.2939L77.6639 336.039H71.4884V333.9Z" fill="#322E2E"/>
<rect x="561" y="50" width="72" height="10" rx="2" stroke="black" stroke-width="2"/>
<rect x="561" y="90" width="72" height="10" rx="2" stroke="black" stroke-width="2"/>
<rect x="561" y="130" width="72" height="10" rx="2" stroke="black" stroke-width="2"/>
<rect x="561" y="170" width="72" height="10" rx="2" stroke="black" stroke-width="2"/>
<rect x="561" y="212" width="72" height="10" rx="2" stroke="black" stroke-width="2"/>
<rect x="561" y="254" width="72" height="10" rx="2" stroke="black" stroke-width="2"/>
<rect x="561" y="296" width="72" height="10" rx="2" stroke="black" stroke-width="2"/>
<rect x="561" y="338" width="72" height="10" rx="2" stroke="black" stroke-width="2"/>
</svg>
