<svg width="702" height="433" viewBox="0 0 702 433" fill="none" xmlns="http://www.w3.org/2000/svg">
<g clip-path="url(#clip0_1826_373)">
<rect x="97" y="122" width="547" height="278" fill="#170845" stroke="#170845" stroke-width="2"/>
<rect x="64" y="121" width="32" height="32" fill="#B54897"/>
<path d="M79.8124 144.253C78.6547 144.253 77.6657 143.985 76.8454 143.448C76.0251 142.911 75.4309 142.21 75.0629 141.343L77.4549 140.067C77.6466 140.558 77.9302 141.006 78.3059 141.412C78.6816 141.811 79.1876 142.01 79.8239 142.01C81.2422 142.01 81.9514 140.88 81.9514 138.618C81.9514 137.537 81.7751 136.747 81.4224 136.249C81.0774 135.743 80.5867 135.49 79.9504 135.49C79.4137 135.49 78.9461 135.67 78.5474 136.03C78.1487 136.391 77.8344 136.874 77.6044 137.479V137.503H77.5929V137.491L75.2469 136.766L76.2704 127.9H84.2974V130.039H78.4899L77.9954 134.167C78.3634 133.861 78.7774 133.623 79.2374 133.454C79.6974 133.278 80.2072 133.19 80.7669 133.19C81.9706 133.19 82.9366 133.631 83.6649 134.512C84.4009 135.394 84.7689 136.763 84.7689 138.618C84.7689 139.921 84.5504 140.991 84.1134 141.826C83.6764 142.654 83.0822 143.268 82.3309 143.666C81.5872 144.058 80.7477 144.253 79.8124 144.253Z" fill="black"/>
<g opacity="0.7">
<rect opacity="0.1" x="96" y="-15" width="274" height="32" fill="#431BBB"/>
<rect opacity="0.25" x="96" y="25" width="274" height="32" fill="#431BBB"/>
<rect opacity="0.5" x="96" y="65" width="274" height="32" fill="#431BBB"/>
<rect opacity="0.1" x="370" y="-15" width="275" height="32" fill="#170845"/>
<rect opacity="0.25" x="370" y="25" width="275" height="32" fill="#170845"/>
<rect opacity="0.5" x="370" y="65" width="275" height="32" fill="#170845"/>
<rect opacity="0.1" x="64" y="-15" width="32" height="32" fill="#B54897"/>
<rect opacity="0.25" x="64" y="25" width="32" height="32" fill="#B54897"/>
<rect opacity="0.5" x="64" y="65" width="32" height="32" fill="#B54897"/>
<path opacity="0.1" d="M84.2859 -3.592C84.2859 -2.94033 84.1556 -2.25033 83.8949 -1.522C83.6419 -0.793667 83.3122 -0.0653337 82.9059 0.663C82.4996 1.38367 82.0626 2.07367 81.5949 2.733C81.1272 3.38467 80.6826 3.96733 80.2609 4.481C79.8392 4.99467 79.4866 5.39333 79.2029 5.677H84.5964V8H75.2699V5.769C75.6532 5.40867 76.1017 4.94867 76.6154 4.389C77.1367 3.82933 77.6696 3.216 78.2139 2.549C78.7582 1.87433 79.2604 1.1805 79.7204 0.4675C80.1881 -0.2455 80.5676 -0.939334 80.8589 -1.614C81.1502 -2.29633 81.2959 -2.91733 81.2959 -3.477C81.2959 -4.29733 81.1541 -4.92217 80.8704 -5.3515C80.5944 -5.78083 80.1536 -5.9955 79.5479 -5.9955C79.1722 -5.9955 78.8272 -5.85367 78.5129 -5.57C78.1986 -5.294 77.9264 -4.93367 77.6964 -4.489C77.4664 -4.052 77.2824 -3.59967 77.1444 -3.132L74.6029 -4.3165C74.9479 -5.4665 75.5536 -6.40567 76.4199 -7.134C77.2939 -7.87 78.3711 -8.238 79.6514 -8.238C81.0927 -8.238 82.2236 -7.824 83.0439 -6.996C83.8719 -6.17567 84.2859 -5.041 84.2859 -3.592Z" fill="black"/>
<path opacity="0.25" d="M80.9854 38.9265C81.1924 38.7732 81.5221 38.6965 81.9744 38.6965C82.9327 38.6965 83.7147 39.0837 84.3204 39.858C84.9261 40.6323 85.2289 41.7133 85.2289 43.101C85.2289 44.7417 84.7612 46.0105 83.8259 46.9075C82.8982 47.8045 81.6907 48.253 80.2034 48.253C79.2451 48.253 78.4286 48.0997 77.7539 47.793C77.0792 47.4787 76.5234 47.0685 76.0864 46.5625C75.6494 46.0488 75.3082 45.4968 75.0629 44.9065L77.4549 43.5725C77.7002 44.2318 78.0414 44.803 78.4784 45.286C78.9231 45.7613 79.4827 45.999 80.1574 45.999C80.8704 45.999 81.4262 45.7307 81.8249 45.194C82.2312 44.6573 82.4344 43.9712 82.4344 43.1355C82.4344 42.2998 82.2734 41.652 81.9514 41.192C81.6294 40.732 81.1694 40.502 80.5714 40.502C80.0654 40.502 79.6016 40.6668 79.1799 40.9965L77.4204 39.5705L81.4224 34.039H75.6609V31.9H84.6079V34.039L80.9854 38.9265Z" fill="black"/>
<path opacity="0.5" d="M85.1714 82.319V84.458H83.4349V88H80.5484L80.5599 84.458H74.9019L74.8674 82.319L78.9614 71.9H83.4349V82.319H85.1714ZM80.5944 74.131H80.5829L77.5814 82.319H80.5714L80.5944 74.131Z" fill="black"/>
<rect opacity="0.1" x="564" y="-5" width="74" height="12" rx="3" fill="#D9EBD4"/>
<rect opacity="0.3" x="564" y="35" width="74" height="12" rx="3" fill="#D9EBD4"/>
<rect opacity="0.5" x="564" y="75" width="74" height="12" rx="3" fill="#D9EBD4"/>
</g>
<rect x="564" y="131" width="74" height="12" rx="3" fill="#D9EBD4"/>
<rect x="133" y="167" width="100" height="100" fill="#DAA3F3"/>
<rect x="149.668" y="200.334" width="5.55556" height="27.7778" fill="#E7A358"/>
<rect x="160.777" y="194.777" width="44.4444" height="38.8889" fill="#E7A358"/>
<rect x="138.555" y="211.445" width="5.55556" height="5.55556" fill="#492B10"/>
<rect x="138.555" y="217" width="5.55556" height="5.55556" fill="#492B10"/>
<rect x="144.109" y="222.555" width="5.55556" height="5.55556" fill="#492B10"/>
<rect x="144.109" y="228.111" width="5.55556" height="5.55556" fill="#492B10"/>
<rect x="149.668" y="228.111" width="5.55556" height="5.55556" fill="#492B10"/>
<rect x="155.223" y="228.111" width="5.55556" height="5.55556" fill="#492B10"/>
<rect x="155.223" y="222.555" width="5.55556" height="5.55556" fill="#492B10"/>
<rect x="205.223" y="222.555" width="5.55556" height="5.55556" fill="#492B10"/>
<rect x="155.223" y="217" width="5.55556" height="5.55556" fill="#492B10"/>
<rect x="205.223" y="217" width="5.55556" height="5.55556" fill="#492B10"/>
<rect x="155.223" y="211.445" width="5.55556" height="5.55556" fill="#492B10"/>
<rect x="205.223" y="211.445" width="5.55556" height="5.55556" fill="#492B10"/>
<rect x="155.223" y="205.889" width="5.55556" height="5.55556" fill="#492B10"/>
<rect x="205.223" y="205.889" width="5.55556" height="5.55556" fill="#492B10"/>
<rect x="155.223" y="200.334" width="5.55556" height="5.55556" fill="#492B10"/>
<rect x="205.223" y="200.334" width="5.55556" height="5.55556" fill="#492B10"/>
<rect x="216.332" y="222.555" width="5.55556" height="5.55556" fill="#492B10"/>
<rect x="216.332" y="228.111" width="5.55556" height="5.55556" fill="#492B10"/>
<rect x="210.777" y="228.111" width="5.55556" height="5.55556" fill="#492B10"/>
<rect x="205.223" y="228.111" width="5.55556" height="5.55556" fill="#492B10"/>
<rect x="144.109" y="205.889" width="5.55556" height="5.55556" fill="#492B10"/>
<rect x="144.109" y="200.334" width="5.55556" height="5.55556" fill="#492B10"/>
<rect x="149.668" y="194.777" width="5.55556" height="5.55556" fill="#492B10"/>
<rect x="155.223" y="189.223" width="5.55556" height="5.55556" fill="#492B10"/>
<rect x="160.777" y="189.223" width="5.55556" height="5.55556" fill="#492B10"/>
<rect x="166.332" y="183.666" width="5.55556" height="5.55556" fill="#492B10"/>
<rect x="166.332" y="205.889" width="5.55556" height="5.55556" fill="#492B10"/>
<rect x="171.891" y="205.889" width="5.55556" height="5.55556" fill="white"/>
<rect x="194.109" y="205.889" width="5.55556" height="5.55556" fill="white"/>
<rect x="160.777" y="233.666" width="5.55556" height="5.55556" fill="#492B10"/>
<rect x="171.891" y="239.223" width="5.55556" height="5.55556" fill="#492B10"/>
<rect x="183" y="244.777" width="5.55556" height="5.55556" fill="#492B10"/>
<rect x="194.109" y="233.666" width="5.55556" height="5.55556" fill="#492B10"/>
<rect x="166.332" y="233.666" width="5.55556" height="5.55556" fill="#492B10"/>
<rect x="177.445" y="244.777" width="5.55556" height="5.55556" fill="#492B10"/>
<rect x="188.555" y="239.223" width="5.55556" height="5.55556" fill="#492B10"/>
<rect x="199.668" y="233.666" width="5.55556" height="5.55556" fill="#492B10"/>
<rect x="188.555" y="205.889" width="5.55556" height="5.55556" fill="#492B10"/>
<rect x="166.332" y="211.445" width="5.55556" height="5.55556" fill="#492B10"/>
<rect x="188.555" y="211.445" width="5.55556" height="5.55556" fill="#492B10"/>
<rect x="171.891" y="211.445" width="5.55556" height="5.55556" fill="#492B10"/>
<rect x="171.891" y="228.111" width="11.1111" height="5.55556" fill="#492B10"/>
<rect x="183" y="228.111" width="11.1111" height="5.55556" fill="#492B10"/>
<rect x="176.891" y="223.111" width="11.1111" height="5.55556" fill="#492B10"/>
<rect x="194.109" y="211.445" width="5.55556" height="5.55556" fill="#492B10"/>
<rect x="171.891" y="183.666" width="5.55556" height="5.55556" fill="#492B10"/>
<rect x="177.445" y="183.666" width="5.55556" height="5.55556" fill="#492B10"/>
<rect x="183" y="183.666" width="5.55556" height="5.55556" fill="#492B10"/>
<rect x="188.555" y="183.666" width="5.55556" height="5.55556" fill="#492B10"/>
<rect x="194.109" y="183.666" width="5.55556" height="5.55556" fill="#492B10"/>
<rect x="199.668" y="189.223" width="5.55556" height="5.55556" fill="#492B10"/>
<rect x="205.223" y="189.223" width="5.55556" height="5.55556" fill="#492B10"/>
<rect x="210.777" y="194.777" width="5.55556" height="5.55556" fill="#492B10"/>
<rect x="216.332" y="200.334" width="5.55556" height="5.55556" fill="#492B10"/>
<rect x="216.332" y="205.889" width="5.55556" height="5.55556" fill="#492B10"/>
<rect x="221.891" y="211.445" width="5.55556" height="5.55556" fill="#492B10"/>
<rect x="221.891" y="217" width="5.55556" height="5.55556" fill="#492B10"/>
<rect x="210.777" y="200.334" width="5.55556" height="27.7778" fill="#E7A358"/>
<rect x="166.332" y="189.223" width="33.3333" height="5.55556" fill="#E7A358"/>
<rect x="155.223" y="194.777" width="55.5556" height="5.55556" fill="#E7A358"/>
<rect x="171.891" y="233.666" width="22.2222" height="5.55556" fill="#FFB7B9"/>
<rect x="177.445" y="239.223" width="11.1111" height="5.55556" fill="#FFB7B9"/>
<rect x="144.109" y="211.445" width="5.55556" height="11.1111" fill="white"/>
<rect x="216.332" y="211.445" width="5.55556" height="11.1111" fill="white"/>
<path d="M290.797 327.253C290.015 327.253 289.271 327.111 288.566 326.827C287.868 326.536 287.247 326.068 286.703 325.424C286.158 324.78 285.729 323.933 285.415 322.883C285.108 321.825 284.955 320.529 284.955 318.996C284.955 317.463 285.112 316.171 285.426 315.121C285.74 314.07 286.174 313.227 286.726 312.59C287.278 311.946 287.906 311.483 288.612 311.199C289.317 310.908 290.061 310.762 290.843 310.762C291.571 310.762 292.219 310.896 292.786 311.164C293.353 311.433 293.84 311.782 294.247 312.211C294.653 312.64 294.983 313.104 295.236 313.602C295.489 314.093 295.669 314.568 295.776 315.028L293.223 316.224C293.146 315.818 293.008 315.373 292.809 314.89C292.61 314.407 292.345 313.993 292.016 313.648C291.694 313.296 291.299 313.119 290.831 313.119C290.026 313.119 289.367 313.579 288.853 314.499C288.347 315.419 288.094 316.918 288.094 318.996C288.094 321.081 288.347 322.588 288.853 323.515C289.359 324.435 290.007 324.895 290.797 324.895C291.272 324.895 291.674 324.723 292.004 324.378C292.334 324.025 292.598 323.615 292.798 323.147C293.005 322.672 293.146 322.247 293.223 321.871L295.719 323.055C295.619 323.485 295.443 323.945 295.19 324.435C294.944 324.918 294.618 325.375 294.212 325.804C293.813 326.233 293.327 326.582 292.752 326.85C292.184 327.119 291.533 327.253 290.797 327.253ZM302.43 327.23C301.694 327.23 301.046 327.092 300.487 326.816C299.927 326.54 299.486 326.084 299.164 325.447C298.85 324.803 298.693 323.941 298.693 322.86V315.477H301.844V322.227C301.844 323.14 301.951 323.799 302.166 324.205C302.38 324.612 302.817 324.815 303.477 324.815C304.052 324.815 304.489 324.593 304.788 324.148C305.094 323.703 305.286 323.147 305.363 322.48V315.477H308.525V327H306.237L305.685 325.62C305.286 326.134 304.811 326.532 304.259 326.816C303.714 327.092 303.105 327.23 302.43 327.23ZM317.295 324.677H319.538V327H311.936V324.677H314.225V317.823H311.959V315.5H316.594L317.077 316.995C317.506 316.466 318.024 316.04 318.629 315.718C319.235 315.389 319.894 315.224 320.607 315.224C321.205 315.224 321.688 315.308 322.056 315.477C322.432 315.646 322.7 315.799 322.861 315.937L321.286 318.513C321.133 318.367 320.926 318.233 320.665 318.11C320.412 317.98 320.094 317.915 319.71 317.915C319.12 317.915 318.606 318.122 318.169 318.536C317.74 318.95 317.449 319.433 317.295 319.985V324.677ZM330.413 324.677H332.655V327H325.054V324.677H327.342V317.823H325.077V315.5H329.711L330.194 316.995C330.623 316.466 331.141 316.04 331.747 315.718C332.352 315.389 333.012 315.224 333.725 315.224C334.323 315.224 334.806 315.308 335.174 315.477C335.549 315.646 335.818 315.799 335.979 315.937L334.403 318.513C334.25 318.367 334.043 318.233 333.782 318.11C333.529 317.98 333.211 317.915 332.828 317.915C332.237 317.915 331.724 318.122 331.287 318.536C330.857 318.95 330.566 319.433 330.413 319.985V324.677ZM347.808 324.665C347.647 325.018 347.363 325.398 346.957 325.804C346.558 326.203 346.029 326.544 345.37 326.827C344.718 327.111 343.936 327.253 343.024 327.253C342.012 327.253 341.096 327.027 340.275 326.574C339.455 326.114 338.803 325.44 338.32 324.55C337.837 323.653 337.596 322.546 337.596 321.227C337.596 319.908 337.841 318.804 338.332 317.915C338.83 317.026 339.486 316.355 340.298 315.902C341.119 315.45 342.019 315.224 343.001 315.224C344.542 315.224 345.788 315.757 346.738 316.822C347.697 317.888 348.176 319.502 348.176 321.664H340.758C340.835 323.788 341.59 324.849 343.024 324.849C343.599 324.849 344.066 324.688 344.427 324.366C344.795 324.037 345.048 323.684 345.186 323.308L347.808 324.665ZM343.047 317.547C342.495 317.547 342.027 317.735 341.644 318.11C341.26 318.486 340.996 319.08 340.85 319.893H345.071C345.063 319.563 344.994 319.218 344.864 318.858C344.733 318.498 344.519 318.191 344.22 317.938C343.928 317.677 343.537 317.547 343.047 317.547ZM351.437 327V315.5H353.921L354.324 317.075C354.7 316.531 355.171 316.09 355.738 315.753C356.306 315.416 356.946 315.247 357.659 315.247C358.87 315.247 359.767 315.638 360.35 316.42C360.933 317.194 361.224 318.279 361.224 319.674V327H358.073V320.134C358.073 319.421 357.95 318.835 357.705 318.375C357.467 317.907 357.088 317.673 356.566 317.673C356.175 317.673 355.834 317.8 355.543 318.053C355.252 318.298 355.018 318.605 354.841 318.973C354.665 319.341 354.554 319.705 354.508 320.065V327H351.437ZM370.27 324.861H373.249V327H367.131V317.823H364.129V315.5H367.131V312.004H370.27V315.5H373.502V317.823H370.27V324.861ZM395.481 327.253C394.86 327.253 394.247 327.15 393.641 326.942C393.043 326.735 392.499 326.398 392.008 325.93C391.525 325.463 391.138 324.846 390.847 324.079C390.563 323.305 390.421 322.354 390.421 321.227C390.421 320.108 390.563 319.165 390.847 318.398C391.138 317.624 391.525 317.006 392.008 316.546C392.491 316.079 393.032 315.741 393.63 315.534C394.235 315.327 394.852 315.224 395.481 315.224C396.102 315.224 396.712 315.327 397.31 315.534C397.908 315.741 398.448 316.079 398.931 316.546C399.422 317.014 399.809 317.631 400.093 318.398C400.384 319.165 400.53 320.108 400.53 321.227C400.53 322.354 400.384 323.305 400.093 324.079C399.809 324.846 399.422 325.463 398.931 325.93C398.448 326.398 397.908 326.735 397.31 326.942C396.712 327.15 396.102 327.253 395.481 327.253ZM395.481 324.838C395.834 324.838 396.152 324.738 396.436 324.539C396.727 324.34 396.957 323.979 397.126 323.458C397.302 322.937 397.39 322.193 397.39 321.227C397.39 320.276 397.302 319.54 397.126 319.019C396.957 318.498 396.727 318.137 396.436 317.938C396.152 317.739 395.834 317.639 395.481 317.639C395.113 317.639 394.783 317.739 394.492 317.938C394.201 318.137 393.971 318.498 393.802 319.019C393.633 319.54 393.549 320.276 393.549 321.227C393.549 322.193 393.633 322.937 393.802 323.458C393.978 323.979 394.212 324.34 394.504 324.539C394.795 324.738 395.121 324.838 395.481 324.838ZM407.034 327H404.343L402.641 315.5H405.413L406.103 323.239L407.494 317.225H409.645L411.036 323.205L411.726 315.5H414.509L412.807 327H410.116L408.575 320.445L407.034 327ZM417.023 327V315.5H419.507L419.91 317.075C420.286 316.531 420.757 316.09 421.324 315.753C421.892 315.416 422.532 315.247 423.245 315.247C424.456 315.247 425.353 315.638 425.936 316.42C426.519 317.194 426.81 318.279 426.81 319.674V327H423.659V320.134C423.659 319.421 423.536 318.835 423.291 318.375C423.053 317.907 422.674 317.673 422.152 317.673C421.761 317.673 421.42 317.8 421.129 318.053C420.838 318.298 420.604 318.605 420.427 318.973C420.251 319.341 420.14 319.705 420.094 320.065V327H417.023ZM439.628 324.665C439.467 325.018 439.183 325.398 438.777 325.804C438.378 326.203 437.849 326.544 437.19 326.827C436.538 327.111 435.756 327.253 434.844 327.253C433.832 327.253 432.916 327.027 432.096 326.574C431.275 326.114 430.624 325.44 430.141 324.55C429.658 323.653 429.416 322.546 429.416 321.227C429.416 319.908 429.661 318.804 430.152 317.915C430.65 317.026 431.306 316.355 432.119 315.902C432.939 315.45 433.84 315.224 434.821 315.224C436.362 315.224 437.608 315.757 438.559 316.822C439.517 317.888 439.996 319.502 439.996 321.664H432.579C432.655 323.788 433.41 324.849 434.844 324.849C435.419 324.849 435.887 324.688 436.247 324.366C436.615 324.037 436.868 323.684 437.006 323.308L439.628 324.665ZM434.867 317.547C434.315 317.547 433.847 317.735 433.464 318.11C433.081 318.486 432.816 319.08 432.671 319.893H436.891C436.883 319.563 436.814 319.218 436.684 318.858C436.554 318.498 436.339 318.191 436.04 317.938C435.749 317.677 435.358 317.547 434.867 317.547ZM448.467 324.677H450.71V327H443.108V324.677H445.397V317.823H443.131V315.5H447.766L448.249 316.995C448.678 316.466 449.196 316.04 449.801 315.718C450.407 315.389 451.066 315.224 451.779 315.224C452.377 315.224 452.86 315.308 453.228 315.477C453.604 315.646 453.872 315.799 454.033 315.937L452.458 318.513C452.304 318.367 452.097 318.233 451.837 318.11C451.584 317.98 451.266 317.915 450.882 317.915C450.292 317.915 449.778 318.122 449.341 318.536C448.912 318.95 448.621 319.433 448.467 319.985V324.677ZM459.951 319.019C459.33 319.019 458.801 318.804 458.364 318.375C457.935 317.946 457.72 317.417 457.72 316.788C457.72 316.167 457.935 315.642 458.364 315.212C458.801 314.775 459.33 314.557 459.951 314.557C460.58 314.557 461.109 314.775 461.538 315.212C461.975 315.642 462.194 316.167 462.194 316.788C462.194 317.409 461.975 317.938 461.538 318.375C461.109 318.804 460.58 319.019 459.951 319.019ZM459.951 327.253C459.33 327.253 458.801 327.038 458.364 326.609C457.935 326.18 457.72 325.651 457.72 325.022C457.72 324.401 457.935 323.876 458.364 323.446C458.801 323.009 459.33 322.791 459.951 322.791C460.58 322.791 461.109 323.009 461.538 323.446C461.975 323.876 462.194 324.401 462.194 325.022C462.194 325.643 461.975 326.172 461.538 326.609C461.109 327.038 460.58 327.253 459.951 327.253ZM487.807 318.145C488.106 317.953 488.509 317.857 489.015 317.857C490.004 317.857 490.824 318.229 491.476 318.973C492.127 319.717 492.453 320.805 492.453 322.239C492.453 323.818 491.997 325.049 491.085 325.93C490.18 326.812 488.996 327.253 487.531 327.253C486.251 327.253 485.212 326.966 484.415 326.39C483.625 325.808 483.042 325.106 482.667 324.286L484.38 323.285C484.626 323.914 485.013 324.458 485.542 324.918C486.071 325.371 486.719 325.597 487.485 325.597C488.39 325.597 489.107 325.294 489.636 324.688C490.165 324.083 490.429 323.274 490.429 322.262C490.429 321.235 490.215 320.476 489.785 319.985C489.364 319.487 488.796 319.237 488.083 319.237C487.531 319.237 486.995 319.406 486.473 319.743L485.197 318.674L489.613 312.475H483.322V310.9H491.89V312.475L487.807 318.145ZM499.43 327V320.503L495.324 310.9H497.521L500.442 318.501L503.351 310.9H505.536L501.454 320.503V327H499.43ZM513.524 327.253C512.834 327.253 512.179 327.123 511.558 326.862C510.937 326.601 510.381 326.164 509.89 325.551C509.407 324.93 509.024 324.087 508.74 323.021C508.464 321.955 508.326 320.614 508.326 318.996C508.326 317.386 508.464 316.052 508.74 314.994C509.024 313.928 509.407 313.089 509.89 312.475C510.381 311.854 510.937 311.414 511.558 311.153C512.179 310.892 512.834 310.762 513.524 310.762C514.207 310.762 514.858 310.892 515.479 311.153C516.1 311.414 516.648 311.854 517.124 312.475C517.607 313.089 517.986 313.928 518.262 314.994C518.546 316.052 518.688 317.386 518.688 318.996C518.688 320.782 518.515 322.231 518.17 323.343C517.833 324.455 517.381 325.313 516.813 325.919L518.527 328.334L516.94 329.496L515.295 326.942C515.019 327.05 514.732 327.127 514.433 327.173C514.134 327.226 513.831 327.253 513.524 327.253ZM513.524 325.493C514.038 325.493 514.513 325.298 514.95 324.907C515.395 324.516 515.755 323.849 516.031 322.906C516.307 321.955 516.445 320.652 516.445 318.996C516.445 317.348 516.307 316.052 516.031 315.109C515.755 314.166 515.395 313.499 514.95 313.108C514.513 312.717 514.038 312.521 513.524 312.521C513.003 312.521 512.52 312.717 512.075 313.108C511.631 313.499 511.27 314.166 510.994 315.109C510.726 316.052 510.592 317.348 510.592 318.996C510.592 320.652 510.726 321.955 510.994 322.906C511.27 323.849 511.631 324.516 512.075 324.907C512.52 325.298 513.003 325.493 513.524 325.493ZM530.747 315.385C530.747 316.09 530.594 316.842 530.287 317.639C529.988 318.429 529.601 319.218 529.125 320.008C528.65 320.798 528.144 321.545 527.607 322.25C527.071 322.948 526.565 323.565 526.089 324.102C525.614 324.631 525.227 325.033 524.928 325.31H531.092V327H522.11V325.367C522.509 325.007 522.984 324.539 523.536 323.964C524.096 323.381 524.667 322.733 525.25 322.02C525.84 321.307 526.388 320.568 526.894 319.801C527.408 319.027 527.822 318.268 528.136 317.524C528.458 316.78 528.619 316.086 528.619 315.443C528.619 314.476 528.42 313.729 528.021 313.2C527.63 312.671 527.044 312.406 526.262 312.406C525.787 312.406 525.357 312.544 524.974 312.82C524.591 313.089 524.257 313.441 523.973 313.878C523.697 314.308 523.479 314.76 523.318 315.235L521.524 314.35C521.884 313.3 522.482 312.441 523.318 311.774C524.154 311.099 525.162 310.762 526.342 310.762C527.715 310.762 528.792 311.176 529.574 312.004C530.356 312.824 530.747 313.951 530.747 315.385ZM544.037 312.59H537.896V318.248H542.898V319.927H537.896V325.31H544.037V327H535.757V310.9H544.037V312.59ZM556.981 315.385C556.981 316.09 556.828 316.842 556.521 317.639C556.222 318.429 555.835 319.218 555.36 320.008C554.884 320.798 554.378 321.545 553.842 322.25C553.305 322.948 552.799 323.565 552.324 324.102C551.848 324.631 551.461 325.033 551.162 325.31H557.326V327H548.345V325.367C548.743 325.007 549.219 324.539 549.771 323.964C550.33 323.381 550.902 322.733 551.484 322.02C552.075 321.307 552.623 320.568 553.129 319.801C553.642 319.027 554.056 318.268 554.371 317.524C554.693 316.78 554.854 316.086 554.854 315.443C554.854 314.476 554.654 313.729 554.256 313.2C553.865 312.671 553.278 312.406 552.496 312.406C552.021 312.406 551.592 312.544 551.208 312.82C550.825 313.089 550.491 313.441 550.208 313.878C549.932 314.308 549.713 314.76 549.552 315.235L547.758 314.35C548.119 313.3 548.717 312.441 549.552 311.774C550.388 311.099 551.396 310.762 552.577 310.762C553.949 310.762 555.026 311.176 555.808 312.004C556.59 312.824 556.981 313.951 556.981 315.385Z" fill="white"/>
<path d="M285.967 365V348.9H290.693C291.214 348.9 291.766 348.984 292.349 349.153C292.939 349.314 293.491 349.594 294.005 349.992C294.519 350.391 294.937 350.939 295.259 351.637C295.581 352.335 295.742 353.216 295.742 354.282C295.742 355.394 295.581 356.321 295.259 357.065C294.937 357.801 294.519 358.384 294.005 358.813C293.491 359.242 292.939 359.549 292.349 359.733C291.766 359.917 291.214 360.009 290.693 360.009H289.072V365H285.967ZM289.072 357.709H290.682C291.042 357.709 291.368 357.609 291.659 357.41C291.958 357.211 292.196 356.869 292.372 356.386C292.556 355.903 292.648 355.233 292.648 354.374C292.648 353.178 292.453 352.35 292.062 351.89C291.678 351.43 291.218 351.2 290.682 351.2H289.072V357.709ZM302.43 365.23C301.694 365.23 301.046 365.092 300.487 364.816C299.927 364.54 299.486 364.084 299.164 363.447C298.85 362.803 298.693 361.941 298.693 360.86V353.477H301.844V360.227C301.844 361.14 301.951 361.799 302.166 362.205C302.38 362.612 302.817 362.815 303.477 362.815C304.052 362.815 304.489 362.593 304.788 362.148C305.094 361.703 305.286 361.147 305.363 360.48V353.477H308.525V365H306.237L305.685 363.62C305.286 364.134 304.811 364.532 304.259 364.816C303.714 365.092 303.105 365.23 302.43 365.23ZM317.295 362.677H319.538V365H311.936V362.677H314.225V355.823H311.959V353.5H316.594L317.077 354.995C317.506 354.466 318.024 354.04 318.629 353.718C319.235 353.389 319.894 353.224 320.607 353.224C321.205 353.224 321.688 353.308 322.056 353.477C322.432 353.646 322.7 353.799 322.861 353.937L321.286 356.513C321.133 356.367 320.926 356.233 320.665 356.11C320.412 355.98 320.094 355.915 319.71 355.915C319.12 355.915 318.606 356.122 318.169 356.536C317.74 356.95 317.449 357.433 317.295 357.985V362.677ZM335.243 362.412C335.051 362.903 334.729 363.367 334.277 363.804C333.832 364.233 333.291 364.582 332.655 364.85C332.019 365.119 331.325 365.253 330.574 365.253C329.684 365.253 328.829 365.046 328.009 364.632C327.196 364.218 326.529 363.57 326.008 362.688C325.487 361.799 325.226 360.645 325.226 359.227C325.226 357.793 325.487 356.636 326.008 355.754C326.529 354.872 327.196 354.232 328.009 353.833C328.829 353.427 329.684 353.224 330.574 353.224C331.701 353.224 332.686 353.492 333.529 354.029C334.372 354.558 334.936 355.244 335.22 356.087L332.632 357.502C332.456 356.942 332.21 356.49 331.896 356.145C331.582 355.792 331.149 355.616 330.597 355.616C329.983 355.616 329.462 355.888 329.033 356.432C328.603 356.969 328.389 357.901 328.389 359.227C328.389 360.53 328.603 361.462 329.033 362.021C329.462 362.581 329.983 362.861 330.597 362.861C331.149 362.861 331.586 362.677 331.908 362.309C332.237 361.941 332.471 361.508 332.609 361.009L335.243 362.412ZM337.998 365V346.6H341.126V354.799C341.548 354.324 342.039 353.948 342.598 353.672C343.166 353.389 343.76 353.247 344.381 353.247C345.492 353.247 346.378 353.607 347.037 354.328C347.704 355.041 348.038 356.222 348.038 357.87V365H344.887V358.341C344.887 356.563 344.323 355.673 343.196 355.673C342.629 355.673 342.154 355.938 341.77 356.467C341.395 356.996 341.18 357.628 341.126 358.364V365H337.998ZM359.786 365.391L358.648 363.896C358.349 364.241 357.923 364.555 357.371 364.839C356.819 365.115 356.099 365.253 355.209 365.253C353.921 365.253 352.871 364.927 352.058 364.275C351.246 363.616 350.839 362.658 350.839 361.4C350.839 360.258 351.296 359.38 352.208 358.767C353.12 358.146 354.332 357.835 355.842 357.835H357.682V357.364C357.682 356.789 357.498 356.36 357.13 356.076C356.762 355.785 356.294 355.639 355.727 355.639C355.183 355.639 354.723 355.777 354.347 356.053C353.979 356.321 353.714 356.582 353.553 356.835L350.989 355.236C351.273 354.738 351.836 354.278 352.679 353.856C353.53 353.435 354.581 353.224 355.83 353.224C356.75 353.224 357.578 353.37 358.314 353.661C359.058 353.952 359.645 354.37 360.074 354.914C360.503 355.459 360.718 356.11 360.718 356.869V362.205L362.029 363.815L359.786 365.391ZM355.658 363.033C356.149 363.033 356.566 362.922 356.911 362.7C357.264 362.478 357.521 362.198 357.682 361.86V359.986H356.037C355.355 359.986 354.826 360.109 354.45 360.354C354.082 360.599 353.898 360.975 353.898 361.481C353.898 362.025 354.052 362.42 354.358 362.665C354.665 362.911 355.098 363.033 355.658 363.033ZM369.212 365.253C368.062 365.253 367.035 365.084 366.13 364.747C365.233 364.402 364.562 363.934 364.118 363.344L366.59 361.734C366.812 362.094 367.161 362.382 367.637 362.596C368.12 362.803 368.66 362.907 369.258 362.907C369.902 362.907 370.416 362.819 370.799 362.642C371.19 362.458 371.386 362.159 371.386 361.745C371.386 361.37 371.133 361.063 370.627 360.825C370.121 360.588 369.427 360.369 368.545 360.17C367.801 359.986 367.127 359.744 366.521 359.445C365.923 359.146 365.444 358.763 365.084 358.295C364.731 357.828 364.555 357.241 364.555 356.536C364.555 355.792 364.785 355.175 365.245 354.684C365.712 354.194 366.318 353.83 367.062 353.592C367.805 353.347 368.599 353.224 369.442 353.224C370.676 353.224 371.704 353.419 372.524 353.81C373.352 354.201 373.896 354.654 374.157 355.167L371.777 356.697C371.631 356.36 371.34 356.084 370.903 355.869C370.466 355.647 369.986 355.535 369.465 355.535C368.921 355.535 368.461 355.62 368.085 355.788C367.709 355.957 367.522 356.222 367.522 356.582C367.522 356.95 367.713 357.222 368.097 357.398C368.488 357.575 369.055 357.743 369.799 357.904C370.243 358.004 370.726 358.146 371.248 358.33C371.777 358.506 372.275 358.736 372.743 359.02C373.21 359.304 373.594 359.656 373.893 360.078C374.192 360.5 374.341 361.009 374.341 361.607C374.341 362.428 374.096 363.11 373.605 363.654C373.114 364.191 372.478 364.594 371.696 364.862C370.914 365.123 370.086 365.253 369.212 365.253ZM387.159 362.665C386.998 363.018 386.715 363.398 386.308 363.804C385.91 364.203 385.381 364.544 384.721 364.827C384.07 365.111 383.288 365.253 382.375 365.253C381.363 365.253 380.447 365.027 379.627 364.574C378.806 364.114 378.155 363.44 377.672 362.55C377.189 361.653 376.947 360.546 376.947 359.227C376.947 357.908 377.193 356.804 377.683 355.915C378.182 355.026 378.837 354.355 379.65 353.902C380.47 353.45 381.371 353.224 382.352 353.224C383.893 353.224 385.139 353.757 386.09 354.822C387.048 355.888 387.527 357.502 387.527 359.664H380.11C380.186 361.788 380.942 362.849 382.375 362.849C382.95 362.849 383.418 362.688 383.778 362.366C384.146 362.037 384.399 361.684 384.537 361.308L387.159 362.665ZM382.398 355.547C381.846 355.547 381.379 355.735 380.995 356.11C380.612 356.486 380.347 357.08 380.202 357.893H384.422C384.415 357.563 384.346 357.218 384.215 356.858C384.085 356.498 383.87 356.191 383.571 355.938C383.28 355.677 382.889 355.547 382.398 355.547ZM403.665 353.5H406.275L406.666 355.029C406.996 354.493 407.421 354.06 407.943 353.73C408.472 353.393 409.112 353.224 409.863 353.224C411.09 353.224 412.056 353.738 412.761 354.765C413.474 355.792 413.831 357.291 413.831 359.261C413.831 361.232 413.463 362.723 412.727 363.735C411.998 364.747 410.952 365.253 409.587 365.253C408.959 365.253 408.414 365.119 407.954 364.85C407.494 364.574 407.111 364.21 406.804 363.758V369.6H403.665V353.5ZM408.771 355.662C408.372 355.662 408.039 355.785 407.77 356.03C407.502 356.275 407.287 356.574 407.126 356.927C406.973 357.28 406.866 357.617 406.804 357.939V360.607C406.866 360.929 406.969 361.262 407.115 361.607C407.26 361.945 407.46 362.232 407.713 362.47C407.973 362.708 408.303 362.826 408.702 362.826C409.392 362.826 409.898 362.516 410.22 361.895C410.549 361.274 410.714 360.396 410.714 359.261C410.714 358.134 410.561 357.253 410.254 356.616C409.955 355.98 409.461 355.662 408.771 355.662ZM422.233 362.677H424.475V365H416.874V362.677H419.162V355.823H416.897V353.5H421.531L422.014 354.995C422.444 354.466 422.961 354.04 423.567 353.718C424.173 353.389 424.832 353.224 425.545 353.224C426.143 353.224 426.626 353.308 426.994 353.477C427.37 353.646 427.638 353.799 427.799 353.937L426.223 356.513C426.07 356.367 425.863 356.233 425.602 356.11C425.349 355.98 425.031 355.915 424.648 355.915C424.058 355.915 423.544 356.122 423.107 356.536C422.678 356.95 422.386 357.433 422.233 357.985V362.677ZM434.752 351.062C434.162 351.062 433.66 350.859 433.246 350.452C432.839 350.038 432.636 349.536 432.636 348.946C432.636 348.356 432.839 347.857 433.246 347.451C433.66 347.037 434.162 346.83 434.752 346.83C435.342 346.83 435.841 347.037 436.247 347.451C436.661 347.857 436.868 348.356 436.868 348.946C436.868 349.536 436.661 350.038 436.247 350.452C435.841 350.859 435.342 351.062 434.752 351.062ZM436.316 362.677H439.64V365H433.154V355.823H429.888V353.5H436.316V362.677ZM453.297 362.412C453.106 362.903 452.784 363.367 452.331 363.804C451.887 364.233 451.346 364.582 450.71 364.85C450.073 365.119 449.38 365.253 448.628 365.253C447.739 365.253 446.884 365.046 446.064 364.632C445.251 364.218 444.584 363.57 444.063 362.688C443.541 361.799 443.281 360.645 443.281 359.227C443.281 357.793 443.541 356.636 444.063 355.754C444.584 354.872 445.251 354.232 446.064 353.833C446.884 353.427 447.739 353.224 448.628 353.224C449.755 353.224 450.74 353.492 451.584 354.029C452.427 354.558 452.991 355.244 453.274 356.087L450.687 357.502C450.51 356.942 450.265 356.49 449.951 356.145C449.636 355.792 449.203 355.616 448.651 355.616C448.038 355.616 447.517 355.888 447.087 356.432C446.658 356.969 446.443 357.901 446.443 359.227C446.443 360.53 446.658 361.462 447.087 362.021C447.517 362.581 448.038 362.861 448.651 362.861C449.203 362.861 449.64 362.677 449.962 362.309C450.292 361.941 450.526 361.508 450.664 361.009L453.297 362.412ZM465.862 362.665C465.701 363.018 465.418 363.398 465.011 363.804C464.613 364.203 464.084 364.544 463.424 364.827C462.773 365.111 461.991 365.253 461.078 365.253C460.066 365.253 459.15 365.027 458.33 364.574C457.51 364.114 456.858 363.44 456.375 362.55C455.892 361.653 455.65 360.546 455.65 359.227C455.65 357.908 455.896 356.804 456.386 355.915C456.885 355.026 457.54 354.355 458.353 353.902C459.173 353.45 460.074 353.224 461.055 353.224C462.596 353.224 463.842 353.757 464.793 354.822C465.751 355.888 466.23 357.502 466.23 359.664H458.813C458.89 361.788 459.645 362.849 461.078 362.849C461.653 362.849 462.121 362.688 462.481 362.366C462.849 362.037 463.102 361.684 463.24 361.308L465.862 362.665ZM461.101 355.547C460.549 355.547 460.082 355.735 459.698 356.11C459.315 356.486 459.051 357.08 458.905 357.893H463.125C463.118 357.563 463.049 357.218 462.918 356.858C462.788 356.498 462.573 356.191 462.274 355.938C461.983 355.677 461.592 355.547 461.101 355.547ZM473.069 357.019C472.448 357.019 471.919 356.804 471.482 356.375C471.052 355.946 470.838 355.417 470.838 354.788C470.838 354.167 471.052 353.642 471.482 353.212C471.919 352.775 472.448 352.557 473.069 352.557C473.697 352.557 474.226 352.775 474.656 353.212C475.093 353.642 475.311 354.167 475.311 354.788C475.311 355.409 475.093 355.938 474.656 356.375C474.226 356.804 473.697 357.019 473.069 357.019ZM473.069 365.253C472.448 365.253 471.919 365.038 471.482 364.609C471.052 364.18 470.838 363.651 470.838 363.022C470.838 362.401 471.052 361.876 471.482 361.446C471.919 361.009 472.448 360.791 473.069 360.791C473.697 360.791 474.226 361.009 474.656 361.446C475.093 361.876 475.311 362.401 475.311 363.022C475.311 363.643 475.093 364.172 474.656 364.609C474.226 365.038 473.697 365.253 473.069 365.253ZM500.372 365.253C499.744 365.253 499.131 365.123 498.533 364.862C497.935 364.601 497.39 364.16 496.9 363.539C496.417 362.918 496.029 362.075 495.738 361.009C495.454 359.944 495.312 358.606 495.312 356.996C495.312 355.394 495.454 354.063 495.738 353.005C496.029 351.94 496.417 351.096 496.9 350.475C497.39 349.854 497.935 349.414 498.533 349.153C499.131 348.892 499.744 348.762 500.372 348.762C500.955 348.762 501.542 348.892 502.132 349.153C502.722 349.414 503.263 349.854 503.754 350.475C504.244 351.096 504.635 351.94 504.927 353.005C505.226 354.063 505.375 355.394 505.375 356.996C505.375 358.606 505.226 359.944 504.927 361.009C504.635 362.075 504.244 362.918 503.754 363.539C503.263 364.16 502.722 364.601 502.132 364.862C501.542 365.123 500.955 365.253 500.372 365.253ZM500.372 363.608C500.886 363.608 501.365 363.398 501.81 362.976C502.262 362.547 502.627 361.849 502.903 360.883C503.179 359.917 503.317 358.621 503.317 356.996C503.317 355.371 503.179 354.079 502.903 353.121C502.627 352.154 502.262 351.461 501.81 351.039C501.365 350.617 500.886 350.406 500.372 350.406C499.828 350.406 499.33 350.617 498.878 351.039C498.425 351.461 498.061 352.154 497.785 353.121C497.517 354.079 497.383 355.371 497.383 356.996C497.383 358.621 497.517 359.917 497.785 360.883C498.061 361.849 498.425 362.547 498.878 362.976C499.33 363.398 499.828 363.608 500.372 363.608ZM500.396 358.537C500.143 358.537 499.936 358.426 499.775 358.203C499.621 357.973 499.545 357.567 499.545 356.984C499.545 356.425 499.621 356.034 499.775 355.811C499.936 355.589 500.143 355.478 500.396 355.478C500.61 355.478 500.79 355.589 500.936 355.811C501.082 356.034 501.155 356.425 501.155 356.984C501.155 357.567 501.082 357.973 500.936 358.203C500.79 358.426 500.61 358.537 500.396 358.537ZM513.294 365.265C512.788 365.265 512.359 365.088 512.006 364.735C511.654 364.383 511.477 363.953 511.477 363.447C511.477 362.941 511.654 362.512 512.006 362.159C512.359 361.807 512.788 361.63 513.294 361.63C513.8 361.63 514.23 361.807 514.582 362.159C514.935 362.512 515.111 362.941 515.111 363.447C515.111 363.953 514.935 364.383 514.582 364.735C514.23 365.088 513.8 365.265 513.294 365.265ZM526.607 365.253C525.978 365.253 525.365 365.123 524.767 364.862C524.169 364.601 523.625 364.16 523.134 363.539C522.651 362.918 522.264 362.075 521.972 361.009C521.689 359.944 521.547 358.606 521.547 356.996C521.547 355.394 521.689 354.063 521.972 353.005C522.264 351.94 522.651 351.096 523.134 350.475C523.625 349.854 524.169 349.414 524.767 349.153C525.365 348.892 525.978 348.762 526.607 348.762C527.19 348.762 527.776 348.892 528.366 349.153C528.957 349.414 529.497 349.854 529.988 350.475C530.479 351.096 530.87 351.94 531.161 353.005C531.46 354.063 531.609 355.394 531.609 356.996C531.609 358.606 531.46 359.944 531.161 361.009C530.87 362.075 530.479 362.918 529.988 363.539C529.497 364.16 528.957 364.601 528.366 364.862C527.776 365.123 527.19 365.253 526.607 365.253ZM526.607 363.608C527.121 363.608 527.6 363.398 528.044 362.976C528.497 362.547 528.861 361.849 529.137 360.883C529.413 359.917 529.551 358.621 529.551 356.996C529.551 355.371 529.413 354.079 529.137 353.121C528.861 352.154 528.497 351.461 528.044 351.039C527.6 350.617 527.121 350.406 526.607 350.406C526.063 350.406 525.564 350.617 525.112 351.039C524.66 351.461 524.295 352.154 524.019 353.121C523.751 354.079 523.617 355.371 523.617 356.996C523.617 358.621 523.751 359.917 524.019 360.883C524.295 361.849 524.66 362.547 525.112 362.976C525.564 363.398 526.063 363.608 526.607 363.608ZM526.63 358.537C526.377 358.537 526.17 358.426 526.009 358.203C525.856 357.973 525.779 357.567 525.779 356.984C525.779 356.425 525.856 356.034 526.009 355.811C526.17 355.589 526.377 355.478 526.63 355.478C526.845 355.478 527.025 355.589 527.17 355.811C527.316 356.034 527.389 356.425 527.389 356.984C527.389 357.567 527.316 357.973 527.17 358.203C527.025 358.426 526.845 358.537 526.63 358.537ZM544.577 359.641V361.216H542.68V365H540.621L540.633 361.216H535.032L534.986 359.641L539.333 348.9H542.68V359.641H544.577ZM540.656 350.533H540.518L536.976 359.641H540.633L540.656 350.533ZM570.271 350.59H564.13V356.248H569.132V357.927H564.13V363.31H570.271V365H561.991V348.9H570.271V350.59ZM583.883 348.9V350.59H580.088V365H577.903V350.59H574.131V348.9H583.883ZM594.55 348.9H596.747V365H594.55V357.467H589.927V365H587.731V348.9H589.927V355.788H594.55V348.9Z" fill="white"/>
<path d="M292.775 189L292.177 185.274H288.738L288.14 189H284.897L287.979 172.9H292.936L296.018 189H292.775ZM290.371 174.958L289.106 182.951H291.809L290.544 174.958H290.371ZM302.43 189.23C301.694 189.23 301.046 189.092 300.487 188.816C299.927 188.54 299.486 188.084 299.164 187.447C298.85 186.803 298.693 185.941 298.693 184.86V177.477H301.844V184.227C301.844 185.14 301.951 185.799 302.166 186.205C302.38 186.612 302.817 186.815 303.477 186.815C304.052 186.815 304.489 186.593 304.788 186.148C305.094 185.703 305.286 185.147 305.363 184.48V177.477H308.525V189H306.237L305.685 187.62C305.286 188.134 304.811 188.532 304.259 188.816C303.714 189.092 303.105 189.23 302.43 189.23ZM317.801 186.861H320.78V189H314.662V179.823H311.66V177.5H314.662V174.004H317.801V177.5H321.033V179.823H317.801V186.861ZM324.881 189V170.6H328.009V178.799C328.431 178.324 328.921 177.948 329.481 177.672C330.048 177.389 330.643 177.247 331.264 177.247C332.375 177.247 333.261 177.607 333.92 178.328C334.587 179.041 334.921 180.222 334.921 181.87V189H331.77V182.341C331.77 180.563 331.206 179.673 330.079 179.673C329.512 179.673 329.036 179.938 328.653 180.467C328.277 180.996 328.063 181.628 328.009 182.364V189H324.881ZM343.012 189.253C342.391 189.253 341.778 189.15 341.172 188.942C340.574 188.735 340.03 188.398 339.539 187.93C339.056 187.463 338.669 186.846 338.378 186.079C338.094 185.305 337.952 184.354 337.952 183.227C337.952 182.108 338.094 181.165 338.378 180.398C338.669 179.624 339.056 179.006 339.539 178.546C340.022 178.079 340.563 177.741 341.161 177.534C341.766 177.327 342.384 177.224 343.012 177.224C343.633 177.224 344.243 177.327 344.841 177.534C345.439 177.741 345.979 178.079 346.462 178.546C346.953 179.014 347.34 179.631 347.624 180.398C347.915 181.165 348.061 182.108 348.061 183.227C348.061 184.354 347.915 185.305 347.624 186.079C347.34 186.846 346.953 187.463 346.462 187.93C345.979 188.398 345.439 188.735 344.841 188.942C344.243 189.15 343.633 189.253 343.012 189.253ZM343.012 186.838C343.365 186.838 343.683 186.738 343.967 186.539C344.258 186.34 344.488 185.979 344.657 185.458C344.833 184.937 344.921 184.193 344.921 183.227C344.921 182.276 344.833 181.54 344.657 181.019C344.488 180.498 344.258 180.137 343.967 179.938C343.683 179.739 343.365 179.639 343.012 179.639C342.644 179.639 342.315 179.739 342.023 179.938C341.732 180.137 341.502 180.498 341.333 181.019C341.165 181.54 341.08 182.276 341.08 183.227C341.08 184.193 341.165 184.937 341.333 185.458C341.51 185.979 341.743 186.34 342.035 186.539C342.326 186.738 342.652 186.838 343.012 186.838ZM356.647 186.677H358.889V189H351.288V186.677H353.576V179.823H351.311V177.5H355.945L356.428 178.995C356.858 178.466 357.375 178.04 357.981 177.718C358.587 177.389 359.246 177.224 359.959 177.224C360.557 177.224 361.04 177.308 361.408 177.477C361.784 177.646 362.052 177.799 362.213 177.937L360.637 180.513C360.484 180.367 360.277 180.233 360.016 180.11C359.763 179.98 359.445 179.915 359.062 179.915C358.472 179.915 357.958 180.122 357.521 180.536C357.092 180.95 356.8 181.433 356.647 181.985V186.677ZM368.131 181.019C367.51 181.019 366.981 180.804 366.544 180.375C366.115 179.946 365.9 179.417 365.9 178.788C365.9 178.167 366.115 177.642 366.544 177.212C366.981 176.775 367.51 176.557 368.131 176.557C368.76 176.557 369.289 176.775 369.718 177.212C370.155 177.642 370.374 178.167 370.374 178.788C370.374 179.409 370.155 179.938 369.718 180.375C369.289 180.804 368.76 181.019 368.131 181.019ZM368.131 189.253C367.51 189.253 366.981 189.038 366.544 188.609C366.115 188.18 365.9 187.651 365.9 187.022C365.9 186.401 366.115 185.876 366.544 185.446C366.981 185.009 367.51 184.791 368.131 184.791C368.76 184.791 369.289 185.009 369.718 185.446C370.155 185.876 370.374 186.401 370.374 187.022C370.374 187.643 370.155 188.172 369.718 188.609C369.289 189.038 368.76 189.253 368.131 189.253ZM390.019 189L390.789 172.9H393.25L395.55 183.537L397.839 172.9H400.3L401.059 189H399.104L398.655 175.683L396.321 187.091H394.757L392.434 175.66L391.985 189H390.019ZM404.228 189V172.9H408.851C409.572 172.9 410.266 173.011 410.933 173.233C411.6 173.448 412.144 173.839 412.566 174.406C412.995 174.966 413.21 175.76 413.21 176.787C413.21 177.454 413.114 178.017 412.922 178.477C412.731 178.93 412.497 179.298 412.221 179.581C411.945 179.865 411.676 180.08 411.416 180.225C411.155 180.371 410.948 180.463 410.795 180.501C410.979 180.532 411.228 180.624 411.542 180.777C411.857 180.923 412.175 181.149 412.497 181.456C412.826 181.763 413.102 182.165 413.325 182.664C413.555 183.162 413.67 183.783 413.67 184.526C413.67 186.044 413.244 187.171 412.393 187.907C411.55 188.636 410.484 189 409.196 189H404.228ZM406.471 179.857H408.644C409.258 179.857 409.798 179.62 410.266 179.144C410.741 178.661 410.979 177.956 410.979 177.028C410.979 176.07 410.76 175.422 410.323 175.085C409.894 174.74 409.365 174.567 408.736 174.567H406.471V179.857ZM406.471 187.332H409.024C409.744 187.332 410.323 187.11 410.76 186.665C411.205 186.213 411.427 185.462 411.427 184.411C411.427 183.453 411.19 182.736 410.714 182.261C410.239 181.778 409.695 181.536 409.081 181.536H406.471V187.332ZM417.437 172.9H426.292V174.475L421.543 189H419.438L424.257 174.475H417.437V172.9ZM432.717 187.31H439.249V189H430.463V187.31L436.65 174.59H430.658V172.9H438.858V174.59L432.717 187.31ZM450.261 172.9H452.458V189H450.261V181.467H445.638V189H443.442V172.9H445.638V179.788H450.261V172.9ZM465.977 174.59H459.813V180.352H465.011V182.031H459.813V189H457.674V172.9H465.977V174.59Z" fill="white"/>
<path d="M292.959 272.9H295.73V289H292.407L288.129 278.466V289H285.369V272.9H288.669L292.959 283.825V272.9ZM307.318 289.391L306.179 287.896C305.88 288.241 305.455 288.555 304.903 288.839C304.351 289.115 303.63 289.253 302.741 289.253C301.453 289.253 300.402 288.927 299.59 288.275C298.777 287.616 298.371 286.658 298.371 285.4C298.371 284.258 298.827 283.38 299.739 282.767C300.652 282.146 301.863 281.835 303.373 281.835H305.213V281.364C305.213 280.789 305.029 280.36 304.661 280.076C304.293 279.785 303.826 279.639 303.258 279.639C302.714 279.639 302.254 279.777 301.878 280.053C301.51 280.321 301.246 280.582 301.085 280.835L298.52 279.236C298.804 278.738 299.367 278.278 300.211 277.856C301.062 277.435 302.112 277.224 303.362 277.224C304.282 277.224 305.11 277.37 305.846 277.661C306.589 277.952 307.176 278.37 307.605 278.914C308.035 279.459 308.249 280.11 308.249 280.869V286.205L309.56 287.815L307.318 289.391ZM303.189 287.033C303.68 287.033 304.098 286.922 304.443 286.7C304.795 286.478 305.052 286.198 305.213 285.86V283.986H303.569C302.886 283.986 302.357 284.109 301.982 284.354C301.614 284.599 301.43 284.975 301.43 285.481C301.43 286.025 301.583 286.42 301.89 286.665C302.196 286.911 302.63 287.033 303.189 287.033ZM310.809 289V277.5H313.109L313.454 278.857C313.738 278.374 314.083 277.987 314.489 277.695C314.896 277.396 315.337 277.247 315.812 277.247C316.372 277.247 316.816 277.396 317.146 277.695C317.476 277.987 317.706 278.401 317.836 278.937C318.15 278.431 318.53 278.025 318.974 277.718C319.427 277.404 319.921 277.247 320.458 277.247C321.301 277.247 321.911 277.534 322.286 278.109C322.67 278.677 322.861 279.409 322.861 280.306V289H320.113V281.755C320.113 280.958 320.036 280.394 319.883 280.064C319.73 279.735 319.484 279.57 319.147 279.57C318.84 279.57 318.576 279.758 318.353 280.133C318.131 280.501 318.001 280.938 317.962 281.444V289H315.662V281.743C315.662 280.946 315.593 280.386 315.455 280.064C315.317 279.735 315.084 279.57 314.754 279.57C314.447 279.57 314.183 279.754 313.96 280.122C313.738 280.482 313.608 280.892 313.569 281.352V289H310.809ZM334.691 286.665C334.53 287.018 334.246 287.398 333.84 287.804C333.441 288.203 332.912 288.544 332.253 288.827C331.601 289.111 330.819 289.253 329.907 289.253C328.895 289.253 327.978 289.027 327.158 288.574C326.338 288.114 325.686 287.44 325.203 286.55C324.72 285.653 324.479 284.546 324.479 283.227C324.479 281.908 324.724 280.804 325.215 279.915C325.713 279.026 326.368 278.355 327.181 277.902C328.001 277.45 328.902 277.224 329.884 277.224C331.425 277.224 332.67 277.757 333.621 278.822C334.579 279.888 335.059 281.502 335.059 283.664H327.641C327.718 285.788 328.473 286.849 329.907 286.849C330.482 286.849 330.949 286.688 331.31 286.366C331.678 286.037 331.931 285.684 332.069 285.308L334.691 286.665ZM329.93 279.547C329.378 279.547 328.91 279.735 328.527 280.11C328.143 280.486 327.879 281.08 327.733 281.893H331.954C331.946 281.563 331.877 281.218 331.747 280.858C331.616 280.498 331.402 280.191 331.103 279.938C330.811 279.677 330.42 279.547 329.93 279.547ZM341.897 281.019C341.276 281.019 340.747 280.804 340.31 280.375C339.88 279.946 339.666 279.417 339.666 278.788C339.666 278.167 339.88 277.642 340.31 277.212C340.747 276.775 341.276 276.557 341.897 276.557C342.525 276.557 343.054 276.775 343.484 277.212C343.921 277.642 344.139 278.167 344.139 278.788C344.139 279.409 343.921 279.938 343.484 280.375C343.054 280.804 342.525 281.019 341.897 281.019ZM341.897 289.253C341.276 289.253 340.747 289.038 340.31 288.609C339.88 288.18 339.666 287.651 339.666 287.022C339.666 286.401 339.88 285.876 340.31 285.446C340.747 285.009 341.276 284.791 341.897 284.791C342.525 284.791 343.054 285.009 343.484 285.446C343.921 285.876 344.139 286.401 344.139 287.022C344.139 287.643 343.921 288.172 343.484 288.609C343.054 289.038 342.525 289.253 341.897 289.253ZM374.157 274.59H367.993V280.352H373.191V282.031H367.993V289H365.854V272.9H374.157V274.59ZM382.283 274.625C381.816 274.625 381.417 274.464 381.087 274.142C380.765 273.812 380.604 273.414 380.604 272.946C380.604 272.478 380.765 272.083 381.087 271.761C381.417 271.432 381.816 271.267 382.283 271.267C382.759 271.267 383.157 271.432 383.479 271.761C383.809 272.083 383.974 272.478 383.974 272.946C383.974 273.414 383.809 273.812 383.479 274.142C383.157 274.464 382.759 274.625 382.283 274.625ZM383.387 287.31H386.872V289H381.156V279.19H377.695V277.5H383.387V287.31ZM394.642 289.253C393.423 289.253 392.407 288.762 391.594 287.781C390.789 286.8 390.387 285.282 390.387 283.227C390.387 281.172 390.774 279.662 391.548 278.696C392.322 277.73 393.308 277.247 394.504 277.247C395.232 277.247 395.864 277.412 396.401 277.741C396.945 278.071 397.39 278.504 397.735 279.041V270.6H399.943V289H398.092L397.793 287.424C397.478 287.969 397.06 288.41 396.539 288.747C396.018 289.084 395.385 289.253 394.642 289.253ZM392.687 283.227C392.687 284.668 392.92 285.742 393.388 286.447C393.863 287.145 394.481 287.493 395.24 287.493C395.723 287.493 396.137 287.348 396.482 287.056C396.827 286.757 397.103 286.378 397.31 285.918C397.517 285.45 397.658 284.967 397.735 284.469V281.858C397.651 281.391 397.497 280.942 397.275 280.513C397.053 280.076 396.765 279.716 396.413 279.432C396.06 279.148 395.646 279.006 395.171 279.006C394.412 279.006 393.806 279.348 393.354 280.03C392.909 280.705 392.687 281.77 392.687 283.227ZM408.598 289.253C407.801 289.253 407.046 289.061 406.333 288.678C405.627 288.295 405.052 287.662 404.608 286.78C404.163 285.899 403.941 284.714 403.941 283.227C403.941 281.747 404.163 280.57 404.608 279.696C405.052 278.815 405.627 278.182 406.333 277.799C407.046 277.416 407.801 277.224 408.598 277.224C409.396 277.224 410.151 277.416 410.864 277.799C411.577 278.182 412.156 278.815 412.6 279.696C413.045 280.57 413.267 281.747 413.267 283.227C413.267 284.714 413.045 285.899 412.6 286.78C412.156 287.662 411.577 288.295 410.864 288.678C410.151 289.061 409.396 289.253 408.598 289.253ZM408.598 287.505C409.058 287.505 409.472 287.382 409.84 287.137C410.208 286.884 410.5 286.451 410.714 285.837C410.937 285.216 411.048 284.346 411.048 283.227C411.048 282.123 410.937 281.264 410.714 280.651C410.5 280.03 410.208 279.597 409.84 279.351C409.472 279.098 409.058 278.972 408.598 278.972C408.146 278.972 407.732 279.098 407.356 279.351C406.988 279.597 406.693 280.03 406.471 280.651C406.256 281.264 406.149 282.123 406.149 283.227C406.149 284.346 406.256 285.216 406.471 285.837C406.693 286.458 406.988 286.892 407.356 287.137C407.732 287.382 408.146 287.505 408.598 287.505ZM429.462 282.997H431.325L431.785 279.052H429.968L430.164 277.362H431.992L432.521 272.9H434.511L433.982 277.362H436.742L437.271 272.9H439.272L438.743 277.362H440.675L440.468 279.052H438.536L438.076 282.997H439.962L439.766 284.687H437.869L437.351 289H435.362L435.868 284.687H433.119L432.613 289H430.612L431.13 284.687H429.267L429.462 282.997ZM433.315 282.997H436.075L436.546 279.052H433.786L433.315 282.997ZM448.456 280.145C448.755 279.953 449.157 279.857 449.663 279.857C450.652 279.857 451.473 280.229 452.124 280.973C452.776 281.717 453.102 282.805 453.102 284.239C453.102 285.818 452.646 287.049 451.733 287.93C450.829 288.812 449.644 289.253 448.18 289.253C446.899 289.253 445.861 288.966 445.063 288.39C444.274 287.808 443.691 287.106 443.315 286.286L445.029 285.285C445.274 285.914 445.661 286.458 446.19 286.918C446.719 287.371 447.367 287.597 448.134 287.597C449.038 287.597 449.755 287.294 450.284 286.688C450.813 286.083 451.078 285.274 451.078 284.262C451.078 283.235 450.863 282.476 450.434 281.985C450.012 281.487 449.445 281.237 448.732 281.237C448.18 281.237 447.643 281.406 447.122 281.743L445.845 280.674L450.261 274.475H443.971V272.9H452.538V274.475L448.456 280.145ZM465.161 277.385C465.161 278.09 465.008 278.842 464.701 279.639C464.402 280.429 464.015 281.218 463.539 282.008C463.064 282.798 462.558 283.545 462.021 284.25C461.485 284.948 460.979 285.565 460.503 286.102C460.028 286.631 459.641 287.033 459.342 287.31H465.506V289H456.524V287.367C456.923 287.007 457.398 286.539 457.95 285.964C458.51 285.381 459.081 284.733 459.664 284.02C460.254 283.307 460.802 282.568 461.308 281.801C461.822 281.027 462.236 280.268 462.55 279.524C462.872 278.78 463.033 278.086 463.033 277.443C463.033 276.476 462.834 275.729 462.435 275.2C462.044 274.671 461.458 274.406 460.676 274.406C460.201 274.406 459.771 274.544 459.388 274.82C459.005 275.089 458.671 275.441 458.387 275.878C458.111 276.308 457.893 276.76 457.732 277.235L455.938 276.35C456.298 275.3 456.896 274.441 457.732 273.774C458.568 273.099 459.576 272.762 460.756 272.762C462.129 272.762 463.206 273.176 463.988 274.004C464.77 274.824 465.161 275.951 465.161 277.385Z" fill="white"/>
<path d="M285.553 227V210.9H289.739C290.582 210.9 291.379 211.015 292.131 211.245C292.89 211.467 293.56 211.87 294.143 212.452C294.726 213.035 295.182 213.852 295.512 214.902C295.841 215.952 296.006 217.302 296.006 218.95C296.006 220.598 295.841 221.948 295.512 222.998C295.182 224.048 294.726 224.865 294.143 225.447C293.56 226.03 292.89 226.436 292.131 226.666C291.379 226.889 290.582 227 289.739 227H285.553ZM288.589 224.677H289.969C290.912 224.677 291.632 224.217 292.131 223.297C292.629 222.377 292.878 220.928 292.878 218.95C292.878 216.972 292.629 215.523 292.131 214.603C291.632 213.683 290.912 213.223 289.969 213.223H288.589V224.677ZM307.318 227.391L306.179 225.896C305.88 226.241 305.455 226.555 304.903 226.839C304.351 227.115 303.63 227.253 302.741 227.253C301.453 227.253 300.402 226.927 299.59 226.275C298.777 225.616 298.371 224.658 298.371 223.4C298.371 222.258 298.827 221.38 299.739 220.767C300.652 220.146 301.863 219.835 303.373 219.835H305.213V219.364C305.213 218.789 305.029 218.36 304.661 218.076C304.293 217.785 303.826 217.639 303.258 217.639C302.714 217.639 302.254 217.777 301.878 218.053C301.51 218.321 301.246 218.582 301.085 218.835L298.52 217.236C298.804 216.738 299.367 216.278 300.211 215.856C301.062 215.435 302.112 215.224 303.362 215.224C304.282 215.224 305.11 215.37 305.846 215.661C306.589 215.952 307.176 216.37 307.605 216.914C308.035 217.459 308.249 218.11 308.249 218.869V224.205L309.56 225.815L307.318 227.391ZM303.189 225.033C303.68 225.033 304.098 224.922 304.443 224.7C304.795 224.478 305.052 224.198 305.213 223.86V221.986H303.569C302.886 221.986 302.357 222.109 301.982 222.354C301.614 222.599 301.43 222.975 301.43 223.481C301.43 224.025 301.583 224.42 301.89 224.665C302.196 224.911 302.63 225.033 303.189 225.033ZM317.801 224.861H320.78V227H314.662V217.823H311.66V215.5H314.662V212.004H317.801V215.5H321.033V217.823H317.801V224.861ZM334.691 224.665C334.53 225.018 334.246 225.398 333.84 225.804C333.441 226.203 332.912 226.544 332.253 226.827C331.601 227.111 330.819 227.253 329.907 227.253C328.895 227.253 327.978 227.027 327.158 226.574C326.338 226.114 325.686 225.44 325.203 224.55C324.72 223.653 324.479 222.546 324.479 221.227C324.479 219.908 324.724 218.804 325.215 217.915C325.713 217.026 326.368 216.355 327.181 215.902C328.001 215.45 328.902 215.224 329.884 215.224C331.425 215.224 332.67 215.757 333.621 216.822C334.579 217.888 335.059 219.502 335.059 221.664H327.641C327.718 223.788 328.473 224.849 329.907 224.849C330.482 224.849 330.949 224.688 331.31 224.366C331.678 224.037 331.931 223.684 332.069 223.308L334.691 224.665ZM329.93 217.547C329.378 217.547 328.91 217.735 328.527 218.11C328.143 218.486 327.879 219.08 327.733 219.893H331.954C331.946 219.563 331.877 219.218 331.747 218.858C331.616 218.498 331.402 218.191 331.103 217.938C330.811 217.677 330.42 217.547 329.93 217.547ZM361.477 224.412C361.285 224.903 360.963 225.367 360.511 225.804C360.066 226.233 359.526 226.582 358.889 226.85C358.253 227.119 357.559 227.253 356.808 227.253C355.919 227.253 355.064 227.046 354.243 226.632C353.431 226.218 352.764 225.57 352.242 224.688C351.721 223.799 351.46 222.645 351.46 221.227C351.46 219.793 351.721 218.636 352.242 217.754C352.764 216.872 353.431 216.232 354.243 215.833C355.064 215.427 355.919 215.224 356.808 215.224C357.935 215.224 358.92 215.492 359.763 216.029C360.607 216.558 361.17 217.244 361.454 218.087L358.866 219.502C358.69 218.942 358.445 218.49 358.13 218.145C357.816 217.792 357.383 217.616 356.831 217.616C356.218 217.616 355.696 217.888 355.267 218.432C354.838 218.969 354.623 219.901 354.623 221.227C354.623 222.53 354.838 223.462 355.267 224.021C355.696 224.581 356.218 224.861 356.831 224.861C357.383 224.861 357.82 224.677 358.142 224.309C358.472 223.941 358.705 223.508 358.843 223.009L361.477 224.412ZM369.764 224.677H372.007V227H364.405V224.677H366.694V217.823H364.428V215.5H369.063L369.546 216.995C369.975 216.466 370.492 216.04 371.098 215.718C371.704 215.389 372.363 215.224 373.076 215.224C373.674 215.224 374.157 215.308 374.525 215.477C374.901 215.646 375.169 215.799 375.33 215.937L373.755 218.513C373.601 218.367 373.394 218.233 373.134 218.11C372.881 217.98 372.562 217.915 372.179 217.915C371.589 217.915 371.075 218.122 370.638 218.536C370.209 218.95 369.917 219.433 369.764 219.985V224.677ZM387.159 224.665C386.998 225.018 386.715 225.398 386.308 225.804C385.91 226.203 385.381 226.544 384.721 226.827C384.07 227.111 383.288 227.253 382.375 227.253C381.363 227.253 380.447 227.027 379.627 226.574C378.806 226.114 378.155 225.44 377.672 224.55C377.189 223.653 376.947 222.546 376.947 221.227C376.947 219.908 377.193 218.804 377.683 217.915C378.182 217.026 378.837 216.355 379.65 215.902C380.47 215.45 381.371 215.224 382.352 215.224C383.893 215.224 385.139 215.757 386.09 216.822C387.048 217.888 387.527 219.502 387.527 221.664H380.11C380.186 223.788 380.942 224.849 382.375 224.849C382.95 224.849 383.418 224.688 383.778 224.366C384.146 224.037 384.399 223.684 384.537 223.308L387.159 224.665ZM382.398 217.547C381.846 217.547 381.379 217.735 380.995 218.11C380.612 218.486 380.347 219.08 380.202 219.893H384.422C384.415 219.563 384.346 219.218 384.215 218.858C384.085 218.498 383.87 218.191 383.571 217.938C383.28 217.677 382.889 217.547 382.398 217.547ZM399.138 227.391L398 225.896C397.701 226.241 397.275 226.555 396.723 226.839C396.171 227.115 395.45 227.253 394.561 227.253C393.273 227.253 392.223 226.927 391.41 226.275C390.597 225.616 390.191 224.658 390.191 223.4C390.191 222.258 390.647 221.38 391.56 220.767C392.472 220.146 393.683 219.835 395.194 219.835H397.034V219.364C397.034 218.789 396.85 218.36 396.482 218.076C396.114 217.785 395.646 217.639 395.079 217.639C394.534 217.639 394.074 217.777 393.699 218.053C393.331 218.321 393.066 218.582 392.905 218.835L390.341 217.236C390.624 216.738 391.188 216.278 392.031 215.856C392.882 215.435 393.932 215.224 395.182 215.224C396.102 215.224 396.93 215.37 397.666 215.661C398.41 215.952 398.996 216.37 399.426 216.914C399.855 217.459 400.07 218.11 400.07 218.869V224.205L401.381 225.815L399.138 227.391ZM395.009 225.033C395.5 225.033 395.918 224.922 396.263 224.7C396.616 224.478 396.873 224.198 397.034 223.86V221.986H395.389C394.707 221.986 394.178 222.109 393.802 222.354C393.434 222.599 393.25 222.975 393.25 223.481C393.25 224.025 393.403 224.42 393.71 224.665C394.017 224.911 394.45 225.033 395.009 225.033ZM409.622 224.861H412.6V227H406.482V217.823H403.481V215.5H406.482V212.004H409.622V215.5H412.853V217.823H409.622V224.861ZM426.511 224.665C426.35 225.018 426.066 225.398 425.66 225.804C425.261 226.203 424.732 226.544 424.073 226.827C423.421 227.111 422.639 227.253 421.727 227.253C420.715 227.253 419.799 227.027 418.978 226.574C418.158 226.114 417.506 225.44 417.023 224.55C416.54 223.653 416.299 222.546 416.299 221.227C416.299 219.908 416.544 218.804 417.035 217.915C417.533 217.026 418.189 216.355 419.001 215.902C419.822 215.45 420.723 215.224 421.704 215.224C423.245 215.224 424.491 215.757 425.441 216.822C426.4 217.888 426.879 219.502 426.879 221.664H419.461C419.538 223.788 420.293 224.849 421.727 224.849C422.302 224.849 422.77 224.688 423.13 224.366C423.498 224.037 423.751 223.684 423.889 223.308L426.511 224.665ZM421.75 217.547C421.198 217.547 420.73 217.735 420.347 218.11C419.964 218.486 419.699 219.08 419.553 219.893H423.774C423.766 219.563 423.697 219.218 423.567 218.858C423.437 218.498 423.222 218.191 422.923 217.938C422.632 217.677 422.241 217.547 421.75 217.547ZM433.752 227.253C432.425 227.253 431.379 226.755 430.612 225.758C429.845 224.754 429.462 223.243 429.462 221.227C429.462 219.211 429.834 217.712 430.578 216.73C431.321 215.741 432.337 215.247 433.625 215.247C434.284 215.247 434.859 215.381 435.35 215.649C435.848 215.918 436.259 216.278 436.581 216.73V208.6H439.732V227H437.19L436.719 225.62C436.427 226.111 436.036 226.505 435.546 226.804C435.063 227.104 434.465 227.253 433.752 227.253ZM432.763 221.227C432.763 222.385 432.924 223.274 433.246 223.895C433.568 224.516 434.043 224.826 434.672 224.826C435.063 224.826 435.388 224.704 435.649 224.458C435.917 224.213 436.124 223.899 436.27 223.515C436.423 223.124 436.527 222.714 436.581 222.285V220.042C436.496 219.429 436.285 218.881 435.948 218.398C435.618 217.915 435.181 217.673 434.637 217.673C433.387 217.673 432.763 218.858 432.763 221.227ZM446.834 219.019C446.213 219.019 445.684 218.804 445.247 218.375C444.818 217.946 444.603 217.417 444.603 216.788C444.603 216.167 444.818 215.642 445.247 215.212C445.684 214.775 446.213 214.557 446.834 214.557C447.463 214.557 447.992 214.775 448.421 215.212C448.858 215.642 449.077 216.167 449.077 216.788C449.077 217.409 448.858 217.938 448.421 218.375C447.992 218.804 447.463 219.019 446.834 219.019ZM446.834 227.253C446.213 227.253 445.684 227.038 445.247 226.609C444.818 226.18 444.603 225.651 444.603 225.022C444.603 224.401 444.818 223.876 445.247 223.446C445.684 223.009 446.213 222.791 446.834 222.791C447.463 222.791 447.992 223.009 448.421 223.446C448.858 223.876 449.077 224.401 449.077 225.022C449.077 225.643 448.858 226.172 448.421 226.609C447.992 227.038 447.463 227.253 446.834 227.253ZM473.966 227.253C472.877 227.253 471.949 227.008 471.183 226.517C470.424 226.026 469.856 225.398 469.481 224.631L471.183 223.676C471.428 224.19 471.777 224.639 472.229 225.022C472.689 225.405 473.276 225.597 473.989 225.597C474.84 225.597 475.499 225.275 475.967 224.631C476.434 223.987 476.668 222.99 476.668 221.641C476.668 220.353 476.45 219.418 476.013 218.835C475.576 218.245 474.997 217.949 474.276 217.949C473.034 217.949 472.08 218.693 471.413 220.18V220.215L471.401 220.203V220.215V220.203L469.711 219.651L470.677 210.9H478.255V212.475H472.287L471.712 217.524C472.095 217.133 472.543 216.826 473.057 216.604C473.571 216.374 474.142 216.259 474.771 216.259C475.944 216.259 476.89 216.7 477.611 217.581C478.339 218.463 478.704 219.82 478.704 221.652C478.704 223.531 478.267 224.934 477.393 225.861C476.519 226.789 475.376 227.253 473.966 227.253ZM490.912 208.6L485.185 230.266H483.334L489.061 208.6H490.912ZM500.476 227.253C499.571 227.253 498.743 227.096 497.992 226.781C497.241 226.459 496.639 225.957 496.187 225.275C495.742 224.585 495.52 223.688 495.52 222.584C495.52 221.518 495.753 220.648 496.221 219.973C496.696 219.299 497.275 218.793 497.958 218.455C497.406 218.103 496.946 217.627 496.578 217.029C496.217 216.424 496.037 215.699 496.037 214.856C496.037 213.867 496.248 213.07 496.67 212.464C497.091 211.858 497.639 211.421 498.314 211.153C498.989 210.877 499.709 210.739 500.476 210.739C501.243 210.739 501.963 210.877 502.638 211.153C503.313 211.421 503.861 211.858 504.283 212.464C504.704 213.07 504.915 213.867 504.915 214.856C504.915 215.699 504.731 216.424 504.363 217.029C503.995 217.627 503.535 218.103 502.983 218.455C503.665 218.793 504.244 219.303 504.72 219.985C505.195 220.66 505.432 221.526 505.432 222.584C505.432 223.688 505.206 224.585 504.754 225.275C504.309 225.957 503.711 226.459 502.96 226.781C502.209 227.096 501.381 227.253 500.476 227.253ZM500.476 217.754C501.273 217.754 501.879 217.505 502.293 217.006C502.707 216.5 502.914 215.81 502.914 214.936C502.914 214.254 502.791 213.729 502.546 213.361C502.301 212.993 501.99 212.74 501.615 212.602C501.247 212.464 500.867 212.395 500.476 212.395C500.093 212.395 499.713 212.464 499.338 212.602C498.962 212.74 498.651 212.993 498.406 213.361C498.161 213.729 498.038 214.254 498.038 214.936C498.038 215.81 498.253 216.5 498.682 217.006C499.119 217.505 499.717 217.754 500.476 217.754ZM500.476 225.597C500.974 225.597 501.438 225.509 501.868 225.332C502.297 225.156 502.646 224.846 502.914 224.401C503.182 223.949 503.317 223.316 503.317 222.503C503.317 221.737 503.179 221.12 502.903 220.652C502.634 220.177 502.282 219.832 501.845 219.617C501.415 219.402 500.959 219.295 500.476 219.295C499.993 219.295 499.533 219.402 499.096 219.617C498.659 219.832 498.303 220.177 498.027 220.652C497.758 221.12 497.624 221.737 497.624 222.503C497.624 223.316 497.758 223.949 498.027 224.401C498.295 224.846 498.648 225.156 499.085 225.332C499.522 225.509 499.985 225.597 500.476 225.597ZM517.147 208.6L511.42 230.266H509.568L515.295 208.6H517.147ZM530.747 215.385C530.747 216.09 530.594 216.842 530.287 217.639C529.988 218.429 529.601 219.218 529.125 220.008C528.65 220.798 528.144 221.545 527.607 222.25C527.071 222.948 526.565 223.565 526.089 224.102C525.614 224.631 525.227 225.033 524.928 225.31H531.092V227H522.11V225.367C522.509 225.007 522.984 224.539 523.536 223.964C524.096 223.381 524.667 222.733 525.25 222.02C525.84 221.307 526.388 220.568 526.894 219.801C527.408 219.027 527.822 218.268 528.136 217.524C528.458 216.78 528.619 216.086 528.619 215.443C528.619 214.476 528.42 213.729 528.021 213.2C527.63 212.671 527.044 212.406 526.262 212.406C525.787 212.406 525.357 212.544 524.974 212.82C524.591 213.089 524.257 213.441 523.973 213.878C523.697 214.308 523.479 214.76 523.318 215.235L521.524 214.35C521.884 213.3 522.482 212.441 523.318 211.774C524.154 211.099 525.162 210.762 526.342 210.762C527.715 210.762 528.792 211.176 529.574 212.004C530.356 212.824 530.747 213.951 530.747 215.385ZM540.276 218.145C540.575 217.953 540.978 217.857 541.484 217.857C542.473 217.857 543.293 218.229 543.945 218.973C544.596 219.717 544.922 220.805 544.922 222.239C544.922 223.818 544.466 225.049 543.554 225.93C542.649 226.812 541.464 227.253 540 227.253C538.72 227.253 537.681 226.966 536.884 226.39C536.094 225.808 535.511 225.106 535.136 224.286L536.849 223.285C537.094 223.914 537.482 224.458 538.011 224.918C538.54 225.371 539.187 225.597 539.954 225.597C540.859 225.597 541.576 225.294 542.105 224.688C542.634 224.083 542.898 223.274 542.898 222.262C542.898 221.235 542.683 220.476 542.254 219.985C541.832 219.487 541.265 219.237 540.552 219.237C540 219.237 539.463 219.406 538.942 219.743L537.666 218.674L542.082 212.475H535.791V210.9H544.359V212.475L540.276 218.145Z" fill="white"/>
</g>
<defs>
<clipPath id="clip0_1826_373">
<rect width="702" height="433" fill="white"/>
</clipPath>
</defs>
</svg>
