<svg width="702" height="433" viewBox="0 0 702 433" fill="none" xmlns="http://www.w3.org/2000/svg">
<rect x="320.5" y="56.5" width="326" height="304" fill="#F1F0FC" stroke="#17158E" stroke-width="3"/>
<rect x="362" y="144" width="100" height="100" fill="#DAA3F3"/>
<rect x="378.668" y="177.334" width="5.55556" height="27.7778" fill="#E7A358"/>
<rect x="389.777" y="171.777" width="44.4444" height="38.8889" fill="#E7A358"/>
<rect x="367.555" y="188.445" width="5.55556" height="5.55556" fill="#492B10"/>
<rect x="367.555" y="194" width="5.55556" height="5.55556" fill="#492B10"/>
<rect x="373.109" y="199.555" width="5.55556" height="5.55556" fill="#492B10"/>
<rect x="373.109" y="205.111" width="5.55556" height="5.55556" fill="#492B10"/>
<rect x="378.668" y="205.111" width="5.55556" height="5.55556" fill="#492B10"/>
<rect x="384.223" y="205.111" width="5.55556" height="5.55556" fill="#492B10"/>
<rect x="384.223" y="199.555" width="5.55556" height="5.55556" fill="#492B10"/>
<rect x="434.223" y="199.555" width="5.55556" height="5.55556" fill="#492B10"/>
<rect x="384.223" y="194" width="5.55556" height="5.55556" fill="#492B10"/>
<rect x="434.223" y="194" width="5.55556" height="5.55556" fill="#492B10"/>
<rect x="384.223" y="188.445" width="5.55556" height="5.55556" fill="#492B10"/>
<rect x="434.223" y="188.445" width="5.55556" height="5.55556" fill="#492B10"/>
<rect x="384.223" y="182.889" width="5.55556" height="5.55556" fill="#492B10"/>
<rect x="434.223" y="182.889" width="5.55556" height="5.55556" fill="#492B10"/>
<rect x="384.223" y="177.334" width="5.55556" height="5.55556" fill="#492B10"/>
<rect x="434.223" y="177.334" width="5.55556" height="5.55556" fill="#492B10"/>
<rect x="445.332" y="199.555" width="5.55556" height="5.55556" fill="#492B10"/>
<rect x="445.332" y="205.111" width="5.55556" height="5.55556" fill="#492B10"/>
<rect x="439.777" y="205.111" width="5.55556" height="5.55556" fill="#492B10"/>
<rect x="434.223" y="205.111" width="5.55556" height="5.55556" fill="#492B10"/>
<rect x="373.109" y="182.889" width="5.55556" height="5.55556" fill="#492B10"/>
<rect x="373.109" y="177.334" width="5.55556" height="5.55556" fill="#492B10"/>
<rect x="378.668" y="171.777" width="5.55556" height="5.55556" fill="#492B10"/>
<rect x="384.223" y="166.223" width="5.55556" height="5.55556" fill="#492B10"/>
<rect x="389.777" y="166.223" width="5.55556" height="5.55556" fill="#492B10"/>
<rect x="395.332" y="160.666" width="5.55556" height="5.55556" fill="#492B10"/>
<rect x="395.332" y="182.889" width="5.55556" height="5.55556" fill="#492B10"/>
<rect x="400.891" y="182.889" width="5.55556" height="5.55556" fill="white"/>
<rect x="423.109" y="182.889" width="5.55556" height="5.55556" fill="white"/>
<rect x="389.777" y="210.666" width="5.55556" height="5.55556" fill="#492B10"/>
<rect x="400.891" y="216.223" width="5.55556" height="5.55556" fill="#492B10"/>
<rect x="412" y="221.777" width="5.55556" height="5.55556" fill="#492B10"/>
<rect x="423.109" y="210.666" width="5.55556" height="5.55556" fill="#492B10"/>
<rect x="395.332" y="210.666" width="5.55556" height="5.55556" fill="#492B10"/>
<rect x="406.445" y="221.777" width="5.55556" height="5.55556" fill="#492B10"/>
<rect x="417.555" y="216.223" width="5.55556" height="5.55556" fill="#492B10"/>
<rect x="428.668" y="210.666" width="5.55556" height="5.55556" fill="#492B10"/>
<rect x="417.555" y="182.889" width="5.55556" height="5.55556" fill="#492B10"/>
<rect x="395.332" y="188.445" width="5.55556" height="5.55556" fill="#492B10"/>
<rect x="417.555" y="188.445" width="5.55556" height="5.55556" fill="#492B10"/>
<rect x="400.891" y="188.445" width="5.55556" height="5.55556" fill="#492B10"/>
<rect x="400.891" y="205.111" width="11.1111" height="5.55556" fill="#492B10"/>
<rect x="412" y="205.111" width="11.1111" height="5.55556" fill="#492B10"/>
<rect x="405.891" y="200.111" width="11.1111" height="5.55556" fill="#492B10"/>
<rect x="423.109" y="188.445" width="5.55556" height="5.55556" fill="#492B10"/>
<rect x="400.891" y="160.666" width="5.55556" height="5.55556" fill="#492B10"/>
<rect x="406.445" y="160.666" width="5.55556" height="5.55556" fill="#492B10"/>
<rect x="412" y="160.666" width="5.55556" height="5.55556" fill="#492B10"/>
<rect x="417.555" y="160.666" width="5.55556" height="5.55556" fill="#492B10"/>
<rect x="423.109" y="160.666" width="5.55556" height="5.55556" fill="#492B10"/>
<rect x="428.668" y="166.223" width="5.55556" height="5.55556" fill="#492B10"/>
<rect x="434.223" y="166.223" width="5.55556" height="5.55556" fill="#492B10"/>
<rect x="439.777" y="171.777" width="5.55556" height="5.55556" fill="#492B10"/>
<rect x="445.332" y="177.334" width="5.55556" height="5.55556" fill="#492B10"/>
<rect x="445.332" y="182.889" width="5.55556" height="5.55556" fill="#492B10"/>
<rect x="450.891" y="188.445" width="5.55556" height="5.55556" fill="#492B10"/>
<rect x="450.891" y="194" width="5.55556" height="5.55556" fill="#492B10"/>
<rect x="439.777" y="177.334" width="5.55556" height="27.7778" fill="#E7A358"/>
<rect x="395.332" y="166.223" width="33.3333" height="5.55556" fill="#E7A358"/>
<rect x="384.223" y="171.777" width="55.5556" height="5.55556" fill="#E7A358"/>
<rect x="400.891" y="210.666" width="22.2222" height="5.55556" fill="#FFB7B9"/>
<rect x="406.445" y="216.223" width="11.1111" height="5.55556" fill="#FFB7B9"/>
<rect x="373.109" y="188.445" width="5.55556" height="11.1111" fill="white"/>
<rect x="445.332" y="188.445" width="5.55556" height="11.1111" fill="white"/>
<rect x="55.5" y="159.5" width="226" height="158" fill="#F2F5F3" stroke="#17158E" stroke-width="3"/>
<path d="M81.7745 197L81.1765 193.274H77.738L77.14 197H73.897L76.979 180.9H81.9355L85.0175 197H81.7745ZM79.371 182.958L78.106 190.951H80.8085L79.5435 182.958H79.371ZM86.6922 197V185.5H88.9922L89.3372 186.857C89.6209 186.374 89.9659 185.987 90.3722 185.695C90.7785 185.396 91.2194 185.247 91.6947 185.247C92.2544 185.247 92.699 185.396 93.0287 185.695C93.3584 185.987 93.5884 186.401 93.7187 186.937C94.033 186.431 94.4125 186.025 94.8572 185.718C95.3095 185.404 95.804 185.247 96.3407 185.247C97.184 185.247 97.7935 185.534 98.1692 186.109C98.5525 186.677 98.7442 187.409 98.7442 188.306V197H95.9957V189.755C95.9957 188.958 95.919 188.394 95.7657 188.064C95.6124 187.735 95.367 187.57 95.0297 187.57C94.723 187.57 94.4585 187.758 94.2362 188.133C94.0139 188.501 93.8835 188.938 93.8452 189.444V197H91.5452V189.743C91.5452 188.946 91.4762 188.386 91.3382 188.064C91.2002 187.735 90.9664 187.57 90.6367 187.57C90.33 187.57 90.0655 187.754 89.8432 188.122C89.6209 188.482 89.4905 188.892 89.4522 189.352V197H86.6922ZM103.708 185.5L105.87 194.838L107.928 185.5H111.16L107.721 197C107.307 198.426 106.729 199.553 105.985 200.381C105.241 201.217 104.283 201.635 103.11 201.635C102.512 201.635 101.971 201.512 101.488 201.267C101.013 201.021 100.66 200.787 100.43 200.565L101.626 198.633C101.764 198.809 101.968 198.974 102.236 199.128C102.512 199.289 102.788 199.369 103.064 199.369C103.432 199.369 103.769 199.185 104.076 198.817C104.39 198.449 104.701 197.843 105.007 197H103.926L100.465 185.5H103.708ZM118.516 178.853C119.029 178.853 119.462 179.029 119.815 179.382C120.168 179.735 120.344 180.16 120.344 180.658C120.344 180.934 120.29 181.195 120.183 181.44L118.723 185.074L117.354 184.511L117.998 182.429C117.615 182.322 117.3 182.107 117.055 181.785C116.81 181.463 116.687 181.088 116.687 180.658C116.687 180.16 116.863 179.735 117.216 179.382C117.569 179.029 118.002 178.853 118.516 178.853ZM131.978 197.253C130.828 197.253 129.8 197.084 128.896 196.747C127.999 196.402 127.328 195.934 126.883 195.344L129.356 193.734C129.578 194.094 129.927 194.382 130.402 194.596C130.885 194.803 131.426 194.907 132.024 194.907C132.668 194.907 133.181 194.819 133.565 194.642C133.956 194.458 134.151 194.159 134.151 193.745C134.151 193.37 133.898 193.063 133.392 192.825C132.886 192.588 132.192 192.369 131.311 192.17C130.567 191.986 129.892 191.744 129.287 191.445C128.689 191.146 128.21 190.763 127.849 190.295C127.497 189.828 127.32 189.241 127.32 188.536C127.32 187.792 127.55 187.175 128.01 186.684C128.478 186.194 129.084 185.83 129.827 185.592C130.571 185.347 131.364 185.224 132.208 185.224C133.442 185.224 134.469 185.419 135.29 185.81C136.118 186.201 136.662 186.654 136.923 187.167L134.542 188.697C134.397 188.36 134.105 188.084 133.668 187.869C133.231 187.647 132.752 187.535 132.231 187.535C131.686 187.535 131.226 187.62 130.851 187.788C130.475 187.957 130.287 188.222 130.287 188.582C130.287 188.95 130.479 189.222 130.862 189.398C131.253 189.575 131.821 189.743 132.564 189.904C133.009 190.004 133.492 190.146 134.013 190.33C134.542 190.506 135.041 190.736 135.508 191.02C135.976 191.304 136.359 191.656 136.658 192.078C136.957 192.5 137.107 193.009 137.107 193.607C137.107 194.428 136.861 195.11 136.371 195.654C135.88 196.191 135.244 196.594 134.462 196.862C133.68 197.123 132.852 197.253 131.978 197.253ZM156.683 197H153.992L152.29 185.5H155.061L155.751 193.239L157.143 187.225H159.293L160.685 193.205L161.375 185.5H164.158L162.456 197H159.765L158.224 190.445L156.683 197ZM175.021 197.391L173.882 195.896C173.583 196.241 173.158 196.555 172.606 196.839C172.054 197.115 171.333 197.253 170.444 197.253C169.156 197.253 168.105 196.927 167.293 196.275C166.48 195.616 166.074 194.658 166.074 193.4C166.074 192.258 166.53 191.38 167.442 190.767C168.355 190.146 169.566 189.835 171.076 189.835H172.916V189.364C172.916 188.789 172.732 188.36 172.364 188.076C171.996 187.785 171.529 187.639 170.961 187.639C170.417 187.639 169.957 187.777 169.581 188.053C169.213 188.321 168.949 188.582 168.788 188.835L166.223 187.236C166.507 186.738 167.07 186.278 167.914 185.856C168.765 185.435 169.815 185.224 171.065 185.224C171.985 185.224 172.813 185.37 173.549 185.661C174.292 185.952 174.879 186.37 175.308 186.914C175.738 187.459 175.952 188.11 175.952 188.869V194.205L177.263 195.815L175.021 197.391ZM170.892 195.033C171.383 195.033 171.801 194.922 172.146 194.7C172.498 194.478 172.755 194.198 172.916 193.86V191.986H171.272C170.589 191.986 170.06 192.109 169.685 192.354C169.317 192.599 169.133 192.975 169.133 193.481C169.133 194.025 169.286 194.42 169.593 194.665C169.899 194.911 170.333 195.033 170.892 195.033ZM185.516 194.677H188.782V197H182.365V180.923H179.214V178.6H185.516V194.677ZM198.633 194.677H201.899V197H195.482V180.923H192.331V178.6H198.633V194.677ZM215.511 194.665C215.35 195.018 215.066 195.398 214.66 195.804C214.261 196.203 213.732 196.544 213.073 196.827C212.421 197.111 211.639 197.253 210.727 197.253C209.715 197.253 208.799 197.027 207.978 196.574C207.158 196.114 206.506 195.44 206.023 194.55C205.54 193.653 205.299 192.546 205.299 191.227C205.299 189.908 205.544 188.804 206.035 187.915C206.533 187.026 207.189 186.355 208.001 185.902C208.822 185.45 209.723 185.224 210.704 185.224C212.245 185.224 213.491 185.757 214.441 186.822C215.4 187.888 215.879 189.502 215.879 191.664H208.461C208.538 193.788 209.293 194.849 210.727 194.849C211.302 194.849 211.77 194.688 212.13 194.366C212.498 194.037 212.751 193.684 212.889 193.308L215.511 194.665ZM210.75 187.547C210.198 187.547 209.73 187.735 209.347 188.11C208.964 188.486 208.699 189.08 208.553 189.893H212.774C212.766 189.563 212.697 189.218 212.567 188.858C212.437 188.498 212.222 188.191 211.923 187.938C211.632 187.677 211.241 187.547 210.75 187.547ZM224.856 194.861H227.835V197H221.717V187.823H218.715V185.5H221.717V182.004H224.856V185.5H228.088V187.823H224.856V194.861Z" fill="#041426"/>
<path d="M359.775 102L359.177 98.274H355.738L355.14 102H351.897L354.979 85.9H359.936L363.018 102H359.775ZM357.371 87.9585L356.106 95.951H358.809L357.544 87.9585H357.371ZM364.692 102V90.5H366.992L367.337 91.857C367.621 91.374 367.966 90.9868 368.372 90.6955C368.779 90.3965 369.219 90.247 369.695 90.247C370.254 90.247 370.699 90.3965 371.029 90.6955C371.358 90.9868 371.588 91.4008 371.719 91.9375C372.033 91.4315 372.413 91.0252 372.857 90.7185C373.31 90.4042 373.804 90.247 374.341 90.247C375.184 90.247 375.794 90.5345 376.169 91.1095C376.553 91.6768 376.744 92.409 376.744 93.306V102H373.996V94.755C373.996 93.9577 373.919 93.3942 373.766 93.0645C373.612 92.7348 373.367 92.57 373.03 92.57C372.723 92.57 372.459 92.7578 372.236 93.1335C372.014 93.5015 371.884 93.9385 371.845 94.4445V102H369.545V94.7435C369.545 93.9462 369.476 93.3865 369.338 93.0645C369.2 92.7348 368.966 92.57 368.637 92.57C368.33 92.57 368.066 92.754 367.843 93.122C367.621 93.4823 367.491 93.8925 367.452 94.3525V102H364.692ZM381.708 90.5L383.87 99.838L385.928 90.5H389.16L385.721 102C385.307 103.426 384.729 104.553 383.985 105.381C383.241 106.217 382.283 106.635 381.11 106.635C380.512 106.635 379.971 106.512 379.488 106.267C379.013 106.021 378.66 105.787 378.43 105.565L379.626 103.633C379.764 103.809 379.968 103.974 380.236 104.128C380.512 104.289 380.788 104.369 381.064 104.369C381.432 104.369 381.769 104.185 382.076 103.817C382.39 103.449 382.701 102.843 383.007 102H381.926L378.465 90.5H381.708ZM396.516 83.853C397.029 83.853 397.462 84.0293 397.815 84.382C398.168 84.7347 398.344 85.1602 398.344 85.6585C398.344 85.9345 398.29 86.1952 398.183 86.4405L396.723 90.0745L395.354 89.511L395.998 87.4295C395.615 87.3222 395.3 87.1075 395.055 86.7855C394.81 86.4635 394.687 86.0878 394.687 85.6585C394.687 85.1602 394.863 84.7347 395.216 84.382C395.569 84.0293 396.002 83.853 396.516 83.853ZM409.978 102.253C408.828 102.253 407.8 102.084 406.896 101.747C405.999 101.402 405.328 100.934 404.883 100.344L407.356 98.734C407.578 99.0943 407.927 99.3818 408.402 99.5965C408.885 99.8035 409.426 99.907 410.024 99.907C410.668 99.907 411.181 99.8188 411.565 99.6425C411.956 99.4585 412.151 99.1595 412.151 98.7455C412.151 98.3698 411.898 98.0632 411.392 97.8255C410.886 97.5878 410.192 97.3693 409.311 97.17C408.567 96.986 407.892 96.7445 407.287 96.4455C406.689 96.1465 406.21 95.7632 405.849 95.2955C405.497 94.8278 405.32 94.2413 405.32 93.536C405.32 92.7923 405.55 92.1752 406.01 91.6845C406.478 91.1938 407.084 90.8297 407.827 90.592C408.571 90.3467 409.364 90.224 410.208 90.224C411.442 90.224 412.469 90.4195 413.29 90.8105C414.118 91.2015 414.662 91.6538 414.923 92.1675L412.542 93.697C412.397 93.3597 412.105 93.0837 411.668 92.869C411.231 92.6467 410.752 92.5355 410.231 92.5355C409.686 92.5355 409.226 92.6198 408.851 92.7885C408.475 92.9572 408.287 93.2217 408.287 93.582C408.287 93.95 408.479 94.2222 408.862 94.3985C409.253 94.5748 409.821 94.7435 410.564 94.9045C411.009 95.0042 411.492 95.146 412.013 95.33C412.542 95.5063 413.041 95.7363 413.508 96.02C413.976 96.3037 414.359 96.6563 414.658 97.078C414.957 97.4997 415.107 98.0095 415.107 98.6075C415.107 99.4278 414.861 100.11 414.371 100.654C413.88 101.191 413.244 101.594 412.462 101.862C411.68 102.123 410.852 102.253 409.978 102.253ZM438.662 85.9H441.433V102H438.11L433.832 91.466V102H431.072V85.9H434.372L438.662 96.825V85.9ZM454.378 88.223H448.708V93.099H453.458V95.422H448.708V102H445.649V85.9H454.378V88.223ZM467.265 85.9V88.223H463.85V102H460.71V88.223H457.306V85.9H467.265ZM494.063 99.4125C493.871 99.9032 493.549 100.367 493.097 100.804C492.652 101.233 492.112 101.582 491.475 101.85C490.839 102.119 490.145 102.253 489.394 102.253C488.505 102.253 487.65 102.046 486.829 101.632C486.017 101.218 485.35 100.57 484.828 99.6885C484.307 98.7992 484.046 97.6453 484.046 96.227C484.046 94.7933 484.307 93.6357 484.828 92.754C485.35 91.8723 486.017 91.2322 486.829 90.8335C487.65 90.4272 488.505 90.224 489.394 90.224C490.521 90.224 491.506 90.4923 492.349 91.029C493.193 91.558 493.756 92.2442 494.04 93.0875L491.452 94.502C491.276 93.9423 491.031 93.49 490.716 93.145C490.402 92.7923 489.969 92.616 489.417 92.616C488.804 92.616 488.282 92.8882 487.853 93.4325C487.424 93.9692 487.209 94.9007 487.209 96.227C487.209 97.5303 487.424 98.4618 487.853 99.0215C488.282 99.5812 488.804 99.861 489.417 99.861C489.969 99.861 490.406 99.677 490.728 99.309C491.058 98.941 491.291 98.5078 491.429 98.0095L494.063 99.4125ZM501.833 102.253C501.212 102.253 500.598 102.15 499.993 101.942C499.395 101.735 498.85 101.398 498.36 100.93C497.877 100.463 497.489 99.8457 497.198 99.079C496.914 98.3047 496.773 97.354 496.773 96.227C496.773 95.1077 496.914 94.1647 497.198 93.398C497.489 92.6237 497.877 92.0065 498.36 91.5465C498.843 91.0788 499.383 90.7415 499.981 90.5345C500.587 90.3275 501.204 90.224 501.833 90.224C502.454 90.224 503.063 90.3275 503.661 90.5345C504.259 90.7415 504.8 91.0788 505.283 91.5465C505.773 92.0142 506.16 92.6313 506.444 93.398C506.735 94.1647 506.881 95.1077 506.881 96.227C506.881 97.354 506.735 98.3047 506.444 99.079C506.16 99.8457 505.773 100.463 505.283 100.93C504.8 101.398 504.259 101.735 503.661 101.942C503.063 102.15 502.454 102.253 501.833 102.253ZM501.833 99.838C502.185 99.838 502.503 99.7383 502.787 99.539C503.078 99.3397 503.308 98.9793 503.477 98.458C503.653 97.9367 503.742 97.193 503.742 96.227C503.742 95.2763 503.653 94.5403 503.477 94.019C503.308 93.4977 503.078 93.1373 502.787 92.938C502.503 92.7387 502.185 92.639 501.833 92.639C501.465 92.639 501.135 92.7387 500.844 92.938C500.552 93.1373 500.322 93.4977 500.154 94.019C499.985 94.5403 499.901 95.2763 499.901 96.227C499.901 97.193 499.985 97.9367 500.154 98.458C500.33 98.9793 500.564 99.3397 500.855 99.539C501.146 99.7383 501.472 99.838 501.833 99.838ZM515.985 99.677H519.251V102H512.834V85.923H509.683V83.6H515.985V99.677ZM529.102 99.677H532.368V102H525.951V85.923H522.8V83.6H529.102V99.677ZM545.98 99.6655C545.819 100.018 545.535 100.398 545.129 100.804C544.73 101.203 544.201 101.544 543.542 101.827C542.89 102.111 542.108 102.253 541.196 102.253C540.184 102.253 539.267 102.027 538.447 101.574C537.627 101.114 536.975 100.44 536.492 99.5505C536.009 98.6535 535.768 97.5457 535.768 96.227C535.768 94.9083 536.013 93.8043 536.504 92.915C537.002 92.0257 537.657 91.3548 538.47 90.9025C539.29 90.4502 540.191 90.224 541.173 90.224C542.714 90.224 543.959 90.7568 544.91 91.8225C545.868 92.8882 546.348 94.502 546.348 96.664H538.93C539.007 98.7877 539.762 99.8495 541.196 99.8495C541.771 99.8495 542.238 99.6885 542.599 99.3665C542.967 99.0368 543.22 98.6842 543.358 98.3085L545.98 99.6655ZM541.219 92.547C540.667 92.547 540.199 92.7348 539.816 93.1105C539.432 93.4862 539.168 94.0803 539.022 94.893H543.243C543.235 94.5633 543.166 94.2183 543.036 93.858C542.905 93.4977 542.691 93.191 542.392 92.938C542.1 92.6773 541.709 92.547 541.219 92.547ZM559.649 99.4125C559.457 99.9032 559.135 100.367 558.683 100.804C558.238 101.233 557.698 101.582 557.061 101.85C556.425 102.119 555.731 102.253 554.98 102.253C554.09 102.253 553.236 102.046 552.415 101.632C551.603 101.218 550.936 100.57 550.414 99.6885C549.893 98.7992 549.632 97.6453 549.632 96.227C549.632 94.7933 549.893 93.6357 550.414 92.754C550.936 91.8723 551.603 91.2322 552.415 90.8335C553.236 90.4272 554.09 90.224 554.98 90.224C556.107 90.224 557.092 90.4923 557.935 91.029C558.779 91.558 559.342 92.2442 559.626 93.0875L557.038 94.502C556.862 93.9423 556.617 93.49 556.302 93.145C555.988 92.7923 555.555 92.616 555.003 92.616C554.389 92.616 553.868 92.8882 553.439 93.4325C553.009 93.9692 552.795 94.9007 552.795 96.227C552.795 97.5303 553.009 98.4618 553.439 99.0215C553.868 99.5812 554.389 99.861 555.003 99.861C555.555 99.861 555.992 99.677 556.314 99.309C556.643 98.941 556.877 98.5078 557.015 98.0095L559.649 99.4125ZM568.442 99.861H571.421V102H565.303V92.823H562.301V90.5H565.303V87.004H568.442V90.5H571.674V92.823H568.442V99.861ZM580.455 88.062C579.865 88.062 579.363 87.8588 578.949 87.4525C578.542 87.0385 578.339 86.5363 578.339 85.946C578.339 85.3557 578.542 84.8573 578.949 84.451C579.363 84.037 579.865 83.83 580.455 83.83C581.046 83.83 581.544 84.037 581.95 84.451C582.364 84.8573 582.571 85.3557 582.571 85.946C582.571 86.5363 582.364 87.0385 581.95 87.4525C581.544 87.8588 581.046 88.062 580.455 88.062ZM582.019 99.677H585.343V102H578.857V92.823H575.591V90.5H582.019V99.677ZM593.653 102.253C593.032 102.253 592.419 102.15 591.813 101.942C591.215 101.735 590.671 101.398 590.18 100.93C589.697 100.463 589.31 99.8457 589.018 99.079C588.735 98.3047 588.593 97.354 588.593 96.227C588.593 95.1077 588.735 94.1647 589.018 93.398C589.31 92.6237 589.697 92.0065 590.18 91.5465C590.663 91.0788 591.203 90.7415 591.801 90.5345C592.407 90.3275 593.024 90.224 593.653 90.224C594.274 90.224 594.883 90.3275 595.481 90.5345C596.079 90.7415 596.62 91.0788 597.103 91.5465C597.594 92.0142 597.981 92.6313 598.264 93.398C598.556 94.1647 598.701 95.1077 598.701 96.227C598.701 97.354 598.556 98.3047 598.264 99.079C597.981 99.8457 597.594 100.463 597.103 100.93C596.62 101.398 596.079 101.735 595.481 101.942C594.883 102.15 594.274 102.253 593.653 102.253ZM593.653 99.838C594.006 99.838 594.324 99.7383 594.607 99.539C594.899 99.3397 595.129 98.9793 595.297 98.458C595.474 97.9367 595.562 97.193 595.562 96.227C595.562 95.2763 595.474 94.5403 595.297 94.019C595.129 93.4977 594.899 93.1373 594.607 92.938C594.324 92.7387 594.006 92.639 593.653 92.639C593.285 92.639 592.955 92.7387 592.664 92.938C592.373 93.1373 592.143 93.4977 591.974 94.019C591.805 94.5403 591.721 95.2763 591.721 96.227C591.721 97.193 591.805 97.9367 591.974 98.458C592.15 98.9793 592.384 99.3397 592.675 99.539C592.967 99.7383 593.293 99.838 593.653 99.838ZM602.078 102V90.5H604.562L604.965 92.0755C605.34 91.5312 605.812 91.0903 606.379 90.753C606.946 90.4157 607.587 90.247 608.3 90.247C609.511 90.247 610.408 90.638 610.991 91.42C611.573 92.1943 611.865 93.2792 611.865 94.6745V102H608.714V95.1345C608.714 94.4215 608.591 93.835 608.346 93.375C608.108 92.9073 607.728 92.6735 607.207 92.6735C606.816 92.6735 606.475 92.8 606.184 93.053C605.892 93.2983 605.658 93.605 605.482 93.973C605.306 94.341 605.195 94.7052 605.149 95.0655V102H602.078Z" fill="#041426"/>
<path d="M142.05 237.145C142.349 236.953 142.751 236.857 143.257 236.857C144.246 236.857 145.066 237.229 145.718 237.973C146.37 238.717 146.696 239.805 146.696 241.239C146.696 242.818 146.239 244.049 145.327 244.93C144.422 245.812 143.238 246.253 141.774 246.253C140.493 246.253 139.454 245.966 138.657 245.39C137.867 244.808 137.285 244.106 136.909 243.286L138.623 242.285C138.868 242.914 139.255 243.458 139.784 243.918C140.313 244.371 140.961 244.597 141.728 244.597C142.632 244.597 143.349 244.294 143.878 243.688C144.407 243.083 144.672 242.274 144.672 241.262C144.672 240.235 144.457 239.476 144.028 238.985C143.606 238.487 143.039 238.237 142.326 238.237C141.774 238.237 141.237 238.406 140.716 238.743L139.439 237.674L143.855 231.475H137.565V229.9H146.132V231.475L142.05 237.145ZM154.419 246.265C153.913 246.265 153.484 246.088 153.131 245.735C152.779 245.383 152.602 244.953 152.602 244.447C152.602 243.941 152.779 243.512 153.131 243.159C153.484 242.807 153.913 242.63 154.419 242.63C154.925 242.63 155.355 242.807 155.707 243.159C156.06 243.512 156.236 243.941 156.236 244.447C156.236 244.953 156.06 245.383 155.707 245.735C155.355 246.088 154.925 246.265 154.419 246.265ZM167.559 246.253C166.471 246.253 165.543 246.008 164.776 245.517C164.017 245.026 163.45 244.398 163.074 243.631L164.776 242.676C165.022 243.19 165.371 243.639 165.823 244.022C166.283 244.405 166.869 244.597 167.582 244.597C168.433 244.597 169.093 244.275 169.56 243.631C170.028 242.987 170.262 241.99 170.262 240.641C170.262 239.353 170.043 238.418 169.606 237.835C169.169 237.245 168.591 236.949 167.87 236.949C166.628 236.949 165.673 237.693 165.006 239.18V239.215L164.995 239.203V239.215V239.203L163.304 238.651L164.27 229.9H171.849V231.475H165.88L165.305 236.524C165.689 236.133 166.137 235.826 166.651 235.604C167.165 235.374 167.736 235.259 168.364 235.259C169.537 235.259 170.484 235.7 171.205 236.581C171.933 237.463 172.297 238.82 172.297 240.652C172.297 242.531 171.86 243.934 170.986 244.861C170.112 245.789 168.97 246.253 167.559 246.253ZM185.702 240.641V242.216H183.805V246H181.746L181.758 242.216H176.157L176.111 240.641L180.458 229.9H183.805V240.641H185.702ZM181.781 231.533H181.643L178.101 240.641H181.758L181.781 231.533ZM211.396 231.59H205.255V237.248H210.257V238.927H205.255V244.31H211.396V246H203.116V229.9H211.396V231.59ZM225.008 229.9V231.59H221.213V246H219.028V231.59H215.256V229.9H225.008ZM235.675 229.9H237.872V246H235.675V238.467H231.052V246H228.856V229.9H231.052V236.788H235.675V229.9Z" fill="#041426"/>
<path d="M141.497 287.253C140.869 287.253 140.256 287.123 139.658 286.862C139.06 286.601 138.515 286.16 138.025 285.539C137.542 284.918 137.154 284.075 136.863 283.009C136.579 281.944 136.438 280.606 136.438 278.996C136.438 277.394 136.579 276.063 136.863 275.005C137.154 273.94 137.542 273.096 138.025 272.475C138.515 271.854 139.06 271.414 139.658 271.153C140.256 270.892 140.869 270.762 141.497 270.762C142.08 270.762 142.667 270.892 143.257 271.153C143.847 271.414 144.388 271.854 144.879 272.475C145.369 273.096 145.76 273.94 146.052 275.005C146.351 276.063 146.5 277.394 146.5 278.996C146.5 280.606 146.351 281.944 146.052 283.009C145.76 284.075 145.369 284.918 144.879 285.539C144.388 286.16 143.847 286.601 143.257 286.862C142.667 287.123 142.08 287.253 141.497 287.253ZM141.497 285.608C142.011 285.608 142.49 285.398 142.935 284.976C143.387 284.547 143.752 283.849 144.028 282.883C144.304 281.917 144.442 280.621 144.442 278.996C144.442 277.371 144.304 276.079 144.028 275.121C143.752 274.154 143.387 273.461 142.935 273.039C142.49 272.617 142.011 272.406 141.497 272.406C140.953 272.406 140.455 272.617 140.003 273.039C139.55 273.461 139.186 274.154 138.91 275.121C138.642 276.079 138.508 277.371 138.508 278.996C138.508 280.621 138.642 281.917 138.91 282.883C139.186 283.849 139.55 284.547 140.003 284.976C140.455 285.398 140.953 285.608 141.497 285.608ZM141.521 280.537C141.268 280.537 141.061 280.426 140.9 280.203C140.746 279.973 140.67 279.567 140.67 278.984C140.67 278.425 140.746 278.034 140.9 277.811C141.061 277.589 141.268 277.478 141.521 277.478C141.735 277.478 141.915 277.589 142.061 277.811C142.207 278.034 142.28 278.425 142.28 278.984C142.28 279.567 142.207 279.973 142.061 280.203C141.915 280.426 141.735 280.537 141.521 280.537ZM154.419 287.265C153.913 287.265 153.484 287.088 153.131 286.735C152.779 286.383 152.602 285.953 152.602 285.447C152.602 284.941 152.779 284.512 153.131 284.159C153.484 283.807 153.913 283.63 154.419 283.63C154.925 283.63 155.355 283.807 155.707 284.159C156.06 284.512 156.236 284.941 156.236 285.447C156.236 285.953 156.06 286.383 155.707 286.735C155.355 287.088 154.925 287.265 154.419 287.265ZM167.697 270.739C168.656 270.739 169.495 270.957 170.216 271.394C170.944 271.824 171.512 272.544 171.918 273.556C172.324 274.568 172.527 275.948 172.527 277.696C172.527 280.694 171.837 282.994 170.457 284.596C169.085 286.199 166.923 287 163.971 287V285.378C165.911 285.378 167.372 284.941 168.353 284.067C169.342 283.186 169.978 281.913 170.262 280.249C169.84 280.702 169.361 281.062 168.824 281.33C168.288 281.591 167.728 281.721 167.145 281.721C165.827 281.721 164.792 281.258 164.04 280.33C163.297 279.402 162.925 278.061 162.925 276.305C162.925 274.572 163.358 273.211 164.224 272.222C165.091 271.233 166.248 270.739 167.697 270.739ZM165.064 276.316C165.064 277.635 165.279 278.59 165.708 279.18C166.145 279.77 166.716 280.065 167.421 280.065C168.249 280.065 168.916 279.72 169.422 279.03C169.928 278.34 170.258 277.493 170.411 276.489C170.35 275.408 170.197 274.572 169.951 273.982C169.714 273.384 169.403 272.97 169.02 272.74C168.644 272.51 168.215 272.395 167.732 272.395C166.965 272.395 166.329 272.721 165.823 273.372C165.317 274.024 165.064 275.005 165.064 276.316ZM182.298 285.424H184.966V287H177.399V285.424H180.24V273.073L177.319 274.902L176.617 273.361L180.504 270.9H182.298V285.424ZM202.759 287V270.9H207.382C208.103 270.9 208.797 271.011 209.464 271.233C210.131 271.448 210.675 271.839 211.097 272.406C211.526 272.966 211.741 273.76 211.741 274.787C211.741 275.454 211.645 276.017 211.453 276.477C211.262 276.93 211.028 277.298 210.752 277.581C210.476 277.865 210.208 278.08 209.947 278.225C209.686 278.371 209.479 278.463 209.326 278.501C209.51 278.532 209.759 278.624 210.073 278.777C210.388 278.923 210.706 279.149 211.028 279.456C211.358 279.763 211.634 280.165 211.856 280.664C212.086 281.162 212.201 281.783 212.201 282.526C212.201 284.044 211.775 285.171 210.924 285.907C210.081 286.636 209.015 287 207.727 287H202.759ZM205.002 277.857H207.175C207.789 277.857 208.329 277.62 208.797 277.144C209.272 276.661 209.51 275.956 209.51 275.028C209.51 274.07 209.291 273.422 208.854 273.085C208.425 272.74 207.896 272.567 207.267 272.567H205.002V277.857ZM205.002 285.332H207.555C208.276 285.332 208.854 285.11 209.291 284.665C209.736 284.213 209.958 283.462 209.958 282.411C209.958 281.453 209.721 280.736 209.245 280.261C208.77 279.778 208.226 279.536 207.612 279.536H205.002V285.332ZM225.008 270.9V272.59H221.213V287H219.028V272.59H215.256V270.9H225.008ZM233.605 287.253C232.578 287.253 231.643 286.977 230.799 286.425C229.964 285.865 229.297 284.98 228.798 283.768C228.3 282.549 228.051 280.959 228.051 278.996C228.051 277.033 228.304 275.446 228.81 274.235C229.323 273.024 230.006 272.142 230.857 271.59C231.708 271.038 232.647 270.762 233.674 270.762C234.587 270.762 235.353 270.977 235.974 271.406C236.603 271.828 237.105 272.341 237.481 272.947C237.856 273.553 238.125 274.131 238.286 274.683L236.48 275.557C236.381 275.151 236.212 274.71 235.974 274.235C235.737 273.752 235.426 273.342 235.043 273.004C234.667 272.659 234.211 272.487 233.674 272.487C232.701 272.487 231.888 273.008 231.236 274.051C230.585 275.094 230.259 276.742 230.259 278.996C230.259 281.258 230.581 282.914 231.225 283.964C231.876 285.007 232.685 285.528 233.651 285.528C234.188 285.528 234.648 285.359 235.031 285.022C235.422 284.685 235.737 284.286 235.974 283.826C236.212 283.366 236.381 282.956 236.48 282.595L238.251 283.481C238.144 283.849 237.971 284.251 237.734 284.688C237.496 285.125 237.186 285.539 236.802 285.93C236.427 286.314 235.97 286.632 235.434 286.885C234.905 287.13 234.295 287.253 233.605 287.253Z" fill="#041426"/>
<path fill-rule="evenodd" clip-rule="evenodd" d="M93.0019 224.834C93.2921 224.834 93.5614 224.985 93.7128 225.233L100.67 236.608C100.793 236.809 100.825 237.052 100.759 237.277C100.693 237.503 100.535 237.69 100.323 237.793L93.3654 241.166C93.1358 241.277 92.8679 241.277 92.6384 241.166L85.6808 237.793C85.4692 237.69 85.3108 237.503 85.2446 237.277C85.1785 237.052 85.2107 236.809 85.3334 236.608L92.2909 225.233C92.4424 224.985 92.7116 224.834 93.0019 224.834ZM93.0019 227.264L87.2346 236.694L93.0019 239.49L98.7693 236.694L93.0019 227.264Z" fill="#547FEF"/>
<path fill-rule="evenodd" clip-rule="evenodd" d="M93.002 252.418C92.722 252.418 92.4607 252.278 92.3065 252.044L85.3488 241.501C85.1417 241.188 85.1703 240.774 85.4186 240.492C85.6668 240.21 86.0733 240.129 86.4108 240.294L93.002 243.522L99.593 240.294C99.9305 240.129 100.337 240.21 100.585 240.492C100.834 240.774 100.862 241.188 100.655 241.501L93.6975 252.044C93.5432 252.277 93.282 252.418 93.002 252.418ZM93.002 250.072L97.5794 243.136L93.3685 245.198C93.1372 245.312 92.8667 245.312 92.6354 245.198L88.4245 243.136L93.002 250.072Z" fill="#547FEF"/>
<path fill-rule="evenodd" clip-rule="evenodd" d="M89.668 264.666C90.1281 264.666 90.5013 265.039 90.5013 265.499V268.833H92.168V265.499C92.168 265.039 92.5411 264.666 93.0013 264.666C93.4615 264.666 93.8346 265.039 93.8346 265.499V268.833H95.8218C98.2903 268.833 100.501 270.59 100.501 272.999C100.501 274.243 99.9116 275.314 99.0015 276.058C100.889 277.001 102.168 279.032 102.168 281.333C102.168 284.506 99.7348 287.166 96.6288 287.166H93.8346V290.499C93.8346 290.96 93.4615 291.333 93.0013 291.333C92.5411 291.333 92.168 290.96 92.168 290.499V287.166H90.5013V290.499C90.5013 290.96 90.1281 291.333 89.668 291.333C89.2077 291.333 88.8346 290.96 88.8346 290.499V287.166H88.0013C87.5411 287.166 87.168 286.793 87.168 286.333C87.168 285.873 87.5411 285.499 88.0013 285.499H88.8346V270.499H88.0013C87.5411 270.499 87.168 270.126 87.168 269.666C87.168 269.206 87.5411 268.833 88.0013 268.833H88.8346V265.499C88.8346 265.039 89.2077 264.666 89.668 264.666ZM90.5013 270.499V275.499H95.8218C97.6016 275.499 98.8346 274.272 98.8346 272.999C98.8346 271.727 97.6016 270.499 95.8218 270.499H90.5013ZM90.5013 277.166V285.499H96.6288C98.7206 285.499 100.501 283.682 100.501 281.333C100.501 278.983 98.7206 277.166 96.6288 277.166H90.5013Z" fill="#F7931A"/>
<rect x="499" y="186" width="100" height="100" fill="#C9E37E"/>
<rect x="505.25" y="217.25" width="31.25" height="37.5" fill="#CD1127"/>
<rect x="505.25" y="229.75" width="50" height="25" fill="#CD1127"/>
<rect width="12.5" height="12.5" transform="matrix(-1 0 0 1 567.75 242.25)" fill="#CD1127"/>
<rect width="12.5" height="6.25" transform="matrix(-1 0 0 1 580.25 248.5)" fill="#CD1127"/>
<rect x="517.75" y="223.5" width="6.25" height="6.25" fill="white"/>
<rect x="517.75" y="229.75" width="6.25" height="6.25" fill="#1C24E0"/>
<rect x="517.75" y="236" width="6.25" height="6.25" fill="white"/>
<rect x="511.5" y="229.75" width="6.25" height="6.25" fill="#D9D9D9"/>
<rect x="524" y="229.75" width="6.25" height="6.25" fill="#D9D9D9"/>
<rect x="505.25" y="254.75" width="6.25" height="6.25" fill="#200909"/>
<rect x="505.25" y="261" width="6.25" height="6.25" fill="white"/>
<rect x="511.5" y="254.75" width="6.25" height="6.25" fill="#200909"/>
<rect x="511.5" y="261" width="6.25" height="6.25" fill="white"/>
<rect x="517.75" y="254.75" width="6.25" height="6.25" fill="#200909"/>
<rect x="517.75" y="261" width="6.25" height="6.25" fill="white"/>
<rect x="524" y="254.75" width="6.25" height="6.25" fill="#200909"/>
<rect x="524" y="261" width="6.25" height="6.25" fill="white"/>
<rect x="530.25" y="254.75" width="6.25" height="6.25" fill="#200909"/>
<rect x="530.25" y="261" width="6.25" height="6.25" fill="white"/>
<rect x="536.5" y="254.75" width="6.25" height="6.25" fill="#200909"/>
<rect x="536.5" y="261" width="6.25" height="6.25" fill="white"/>
<rect x="542.75" y="254.75" width="6.25" height="6.25" fill="#200909"/>
<rect x="542.75" y="261" width="6.25" height="6.25" fill="white"/>
<rect x="549" y="254.75" width="6.25" height="6.25" fill="#200909"/>
<rect x="549" y="261" width="6.25" height="6.25" fill="white"/>
<rect x="555.25" y="254.75" width="6.25" height="6.25" fill="#200909"/>
<rect x="555.25" y="261" width="6.25" height="6.25" fill="white"/>
<rect x="561.5" y="254.75" width="6.25" height="6.25" fill="#200909"/>
<rect x="561.5" y="261" width="6.25" height="6.25" fill="white"/>
<rect x="567.75" y="254.75" width="6.25" height="6.25" fill="#200909"/>
<rect x="567.75" y="261" width="6.25" height="6.25" fill="white"/>
<rect x="574" y="254.75" width="6.25" height="6.25" fill="#200909"/>
<rect x="574" y="261" width="6.25" height="6.25" fill="white"/>
<rect x="580.25" y="254.75" width="6.25" height="6.25" fill="#200909"/>
<rect x="580.25" y="261" width="6.25" height="6.25" fill="white"/>
<rect x="586.5" y="254.75" width="6.25" height="6.25" fill="#200909"/>
<rect x="586.5" y="261" width="6.25" height="6.25" fill="white"/>
<rect x="586.5" y="248.5" width="6.25" height="6.25" fill="white"/>
<rect x="580.25" y="248.5" width="6.25" height="6.25" fill="white"/>
<rect x="536.5" y="211" width="6.25" height="6.25" fill="#950617"/>
<rect x="530.25" y="211" width="6.25" height="6.25" fill="#950617"/>
<rect x="536.5" y="204.75" width="6.25" height="6.25" fill="#950617"/>
<rect x="536.5" y="217.25" width="6.25" height="6.25" fill="white"/>
<rect x="536.5" y="223.5" width="6.25" height="6.25" fill="#950617"/>
<rect x="542.75" y="223.5" width="6.25" height="6.25" fill="white"/>
<rect x="542.75" y="229.75" width="6.25" height="6.25" fill="white"/>
<rect x="555.25" y="229.75" width="6.25" height="6.25" fill="white"/>
<rect x="567.75" y="236" width="6.25" height="6.25" fill="white"/>
<rect x="536.5" y="229.75" width="6.25" height="6.25" fill="white"/>
<rect x="549" y="229.75" width="6.25" height="6.25" fill="#950617"/>
<rect x="555.25" y="236" width="6.25" height="6.25" fill="#950617"/>
<rect x="561.5" y="236" width="6.25" height="6.25" fill="#950617"/>
<rect x="567.75" y="242.25" width="6.25" height="6.25" fill="#950617"/>
<rect x="574" y="242.25" width="6.25" height="6.25" fill="#950617"/>
<rect x="555.25" y="236" width="6.25" height="6.25" fill="white"/>
<rect x="549" y="236" width="6.25" height="6.25" fill="white"/>
<rect x="567.75" y="242.25" width="6.25" height="6.25" fill="white"/>
<rect x="561.5" y="242.25" width="6.25" height="6.25" fill="white"/>
<rect x="339" y="237" width="100" height="30" fill="#262234"/>
<rect x="518" y="278" width="100" height="30" fill="#262234"/>
<path d="M354.769 258.187C354.287 258.187 353.817 258.094 353.358 257.906C352.899 257.714 352.485 257.388 352.117 256.929C351.748 256.47 351.456 255.847 351.241 255.059C351.026 254.271 350.918 253.28 350.918 252.084C350.918 250.894 351.026 249.905 351.241 249.117C351.456 248.33 351.748 247.709 352.117 247.256C352.485 246.797 352.899 246.474 353.358 246.287C353.817 246.094 354.287 245.998 354.769 245.998C355.233 245.998 355.692 246.094 356.146 246.287C356.599 246.474 357.01 246.797 357.378 247.256C357.746 247.709 358.041 248.33 358.262 249.117C358.483 249.905 358.594 250.894 358.594 252.084C358.594 253.28 358.483 254.271 358.262 255.059C358.041 255.847 357.746 256.47 357.378 256.929C357.01 257.388 356.599 257.714 356.146 257.906C355.692 258.094 355.233 258.187 354.769 258.187ZM354.769 256.751C355.12 256.751 355.446 256.609 355.746 256.325C356.052 256.036 356.296 255.552 356.477 254.872C356.664 254.192 356.758 253.263 356.758 252.084C356.758 250.905 356.664 249.979 356.477 249.304C356.296 248.624 356.052 248.143 355.746 247.859C355.446 247.576 355.12 247.434 354.769 247.434C354.406 247.434 354.072 247.576 353.766 247.859C353.46 248.143 353.213 248.624 353.026 249.304C352.845 249.979 352.754 250.905 352.754 252.084C352.754 253.263 352.845 254.192 353.026 254.872C353.213 255.552 353.457 256.036 353.757 256.325C354.063 256.609 354.4 256.751 354.769 256.751ZM354.802 253.342C354.593 253.342 354.426 253.251 354.301 253.07C354.176 252.889 354.114 252.557 354.114 252.075C354.114 251.611 354.176 251.291 354.301 251.115C354.426 250.934 354.593 250.843 354.802 250.843C354.973 250.843 355.117 250.934 355.236 251.115C355.355 251.291 355.415 251.611 355.415 252.075C355.415 252.557 355.355 252.889 355.236 253.07C355.117 253.251 354.973 253.342 354.802 253.342ZM364.294 258.196C363.874 258.196 363.52 258.051 363.231 257.762C362.942 257.467 362.798 257.113 362.798 256.699C362.798 256.28 362.942 255.926 363.231 255.637C363.52 255.342 363.874 255.195 364.294 255.195C364.713 255.195 365.067 255.342 365.356 255.637C365.645 255.926 365.79 256.28 365.79 256.699C365.79 257.113 365.645 257.467 365.356 257.762C365.067 258.051 364.713 258.196 364.294 258.196ZM374.159 258.187C373.677 258.187 373.207 258.094 372.748 257.906C372.289 257.714 371.875 257.388 371.507 256.929C371.139 256.47 370.847 255.847 370.632 255.059C370.416 254.271 370.309 253.28 370.309 252.084C370.309 250.894 370.416 249.905 370.632 249.117C370.847 248.33 371.139 247.709 371.507 247.256C371.875 246.797 372.289 246.474 372.748 246.287C373.207 246.094 373.677 245.998 374.159 245.998C374.624 245.998 375.083 246.094 375.536 246.287C375.989 246.474 376.4 246.797 376.769 247.256C377.137 247.709 377.432 248.33 377.653 249.117C377.874 249.905 377.984 250.894 377.984 252.084C377.984 253.28 377.874 254.271 377.653 255.059C377.432 255.847 377.137 256.47 376.769 256.929C376.4 257.388 375.989 257.714 375.536 257.906C375.083 258.094 374.624 258.187 374.159 258.187ZM374.159 256.751C374.51 256.751 374.836 256.609 375.137 256.325C375.443 256.036 375.686 255.552 375.868 254.872C376.055 254.192 376.148 253.263 376.148 252.084C376.148 250.905 376.055 249.979 375.868 249.304C375.686 248.624 375.443 248.143 375.137 247.859C374.836 247.576 374.51 247.434 374.159 247.434C373.796 247.434 373.462 247.576 373.156 247.859C372.85 248.143 372.604 248.624 372.417 249.304C372.235 249.979 372.145 250.905 372.145 252.084C372.145 253.263 372.235 254.192 372.417 254.872C372.604 255.552 372.847 256.036 373.148 256.325C373.454 256.609 373.791 256.751 374.159 256.751ZM374.193 253.342C373.983 253.342 373.816 253.251 373.692 253.07C373.567 252.889 373.505 252.557 373.505 252.075C373.505 251.611 373.567 251.291 373.692 251.115C373.816 250.934 373.983 250.843 374.193 250.843C374.363 250.843 374.508 250.934 374.627 251.115C374.746 251.291 374.805 251.611 374.805 252.075C374.805 252.557 374.746 252.889 374.627 253.07C374.508 253.251 374.363 253.342 374.193 253.342ZM387.611 253.92V255.297H386.268V258H384.441L384.449 255.297H380.293L380.267 253.92L383.378 246.1H386.268V253.92H387.611ZM384.475 247.528H384.415L382.001 253.92H384.458L384.475 247.528ZM406.543 247.579H402.149V251.412H405.702V252.891H402.149V256.521H406.543V258H400.228V246.1H406.543V247.579ZM416.536 246.1V247.579H413.867V258H411.903V247.579H409.251V246.1H416.536ZM424.191 246.1H426.163V258H424.191V252.551H421.174V258H419.202V246.1H421.174V251.072H424.191V246.1Z" fill="#F1F0FC"/>
<path d="M533.769 299.187C533.287 299.187 532.817 299.094 532.358 298.906C531.899 298.714 531.485 298.388 531.117 297.929C530.748 297.47 530.456 296.847 530.241 296.059C530.026 295.271 529.918 294.28 529.918 293.084C529.918 291.894 530.026 290.905 530.241 290.117C530.456 289.33 530.748 288.709 531.117 288.256C531.485 287.797 531.899 287.474 532.358 287.287C532.817 287.094 533.287 286.998 533.769 286.998C534.233 286.998 534.692 287.094 535.146 287.287C535.599 287.474 536.01 287.797 536.378 288.256C536.746 288.709 537.041 289.33 537.262 290.117C537.483 290.905 537.594 291.894 537.594 293.084C537.594 294.28 537.483 295.271 537.262 296.059C537.041 296.847 536.746 297.47 536.378 297.929C536.01 298.388 535.599 298.714 535.146 298.906C534.692 299.094 534.233 299.187 533.769 299.187ZM533.769 297.751C534.12 297.751 534.446 297.609 534.746 297.325C535.052 297.036 535.296 296.552 535.477 295.872C535.664 295.192 535.758 294.263 535.758 293.084C535.758 291.905 535.664 290.979 535.477 290.304C535.296 289.624 535.052 289.143 534.746 288.859C534.446 288.576 534.12 288.434 533.769 288.434C533.406 288.434 533.072 288.576 532.766 288.859C532.46 289.143 532.213 289.624 532.026 290.304C531.845 290.979 531.754 291.905 531.754 293.084C531.754 294.263 531.845 295.192 532.026 295.872C532.213 296.552 532.457 297.036 532.757 297.325C533.063 297.609 533.4 297.751 533.769 297.751ZM533.802 294.342C533.593 294.342 533.426 294.251 533.301 294.07C533.176 293.889 533.114 293.557 533.114 293.075C533.114 292.611 533.176 292.291 533.301 292.115C533.426 291.934 533.593 291.843 533.802 291.843C533.973 291.843 534.117 291.934 534.236 292.115C534.355 292.291 534.415 292.611 534.415 293.075C534.415 293.557 534.355 293.889 534.236 294.07C534.117 294.251 533.973 294.342 533.802 294.342ZM543.294 299.196C542.874 299.196 542.52 299.051 542.231 298.762C541.942 298.467 541.798 298.113 541.798 297.699C541.798 297.28 541.942 296.926 542.231 296.637C542.52 296.342 542.874 296.195 543.294 296.195C543.713 296.195 544.067 296.342 544.356 296.637C544.645 296.926 544.79 297.28 544.79 297.699C544.79 298.113 544.645 298.467 544.356 298.762C544.067 299.051 543.713 299.196 543.294 299.196ZM553.159 299.187C552.677 299.187 552.207 299.094 551.748 298.906C551.289 298.714 550.875 298.388 550.507 297.929C550.139 297.47 549.847 296.847 549.632 296.059C549.416 295.271 549.309 294.28 549.309 293.084C549.309 291.894 549.416 290.905 549.632 290.117C549.847 289.33 550.139 288.709 550.507 288.256C550.875 287.797 551.289 287.474 551.748 287.287C552.207 287.094 552.677 286.998 553.159 286.998C553.624 286.998 554.083 287.094 554.536 287.287C554.989 287.474 555.4 287.797 555.769 288.256C556.137 288.709 556.432 289.33 556.653 290.117C556.874 290.905 556.984 291.894 556.984 293.084C556.984 294.28 556.874 295.271 556.653 296.059C556.432 296.847 556.137 297.47 555.769 297.929C555.4 298.388 554.989 298.714 554.536 298.906C554.083 299.094 553.624 299.187 553.159 299.187ZM553.159 297.751C553.51 297.751 553.836 297.609 554.137 297.325C554.443 297.036 554.686 296.552 554.868 295.872C555.055 295.192 555.148 294.263 555.148 293.084C555.148 291.905 555.055 290.979 554.868 290.304C554.686 289.624 554.443 289.143 554.137 288.859C553.836 288.576 553.51 288.434 553.159 288.434C552.796 288.434 552.462 288.576 552.156 288.859C551.85 289.143 551.604 289.624 551.417 290.304C551.235 290.979 551.145 291.905 551.145 293.084C551.145 294.263 551.235 295.192 551.417 295.872C551.604 296.552 551.847 297.036 552.148 297.325C552.454 297.609 552.791 297.751 553.159 297.751ZM553.193 294.342C552.983 294.342 552.816 294.251 552.692 294.07C552.567 293.889 552.505 293.557 552.505 293.075C552.505 292.611 552.567 292.291 552.692 292.115C552.816 291.934 552.983 291.843 553.193 291.843C553.363 291.843 553.508 291.934 553.627 292.115C553.746 292.291 553.805 292.611 553.805 293.075C553.805 293.557 553.746 293.889 553.627 294.07C553.508 294.251 553.363 294.342 553.193 294.342ZM564.121 297.623H565.999V299H560.287V297.623H562.293V289.029L560.296 290.287L559.658 288.936L562.557 287.1H564.121V297.623ZM585.543 288.579H581.149V292.412H584.702V293.891H581.149V297.521H585.543V299H579.228V287.1H585.543V288.579ZM595.536 287.1V288.579H592.867V299H590.903V288.579H588.251V287.1H595.536ZM603.191 287.1H605.163V299H603.191V293.551H600.174V299H598.202V287.1H600.174V292.072H603.191V287.1Z" fill="#F1F0FC"/>
</svg>
