<svg width="1201" height="501" viewBox="0 0 1201 501" fill="none" xmlns="http://www.w3.org/2000/svg">
<path d="M453.422 393H430.742V361.374H453.422V364.902H434.522V374.982H449.684V378.51H434.522V389.472H453.422V393ZM472.166 393L466.454 384.012L460.28 393H455.954L464.522 381.576L457.382 371.076H461.75L466.874 379.224L472.082 371.076H476.408L468.806 381.66L476.534 393H472.166ZM481.807 388.128V374.352H478.405V371.076H481.807V364.146H485.335V371.076H489.493V374.352H485.335V388.254C485.335 389.304 485.923 390.018 487.351 390.018C488.653 390.018 489.619 389.766 489.619 389.766V393.168C489.619 393.168 488.737 393.504 486.637 393.504C481.387 393.504 481.807 389.22 481.807 388.128ZM503.386 393.504C497.212 393.504 493.39 388.338 493.39 382.038C493.39 375.738 497.086 370.572 503.26 370.572C509.77 370.572 513.046 376.2 513.172 382.164H497.38C497.38 385.986 498.346 390.606 503.386 390.606C507.67 390.606 508.762 387.708 508.888 385.944H512.71C512.458 389.85 509.266 393.504 503.386 393.504ZM503.26 373.344C499.102 373.344 497.548 376.788 497.422 379.518H509.014C508.846 376.452 507.166 373.344 503.26 373.344ZM522.357 380.274V393H518.577V371.076H522.357V375.402C522.357 374.772 525.255 370.572 529.455 370.572C536.007 370.572 536.091 376.116 536.091 381.492V393H532.311V380.736C532.311 377.376 531.933 373.974 528.195 373.974C525.213 373.974 522.357 376.41 522.357 380.274ZM558.01 389.052C558.01 389.43 556.162 393.504 551.332 393.504C544.528 393.504 541.378 387.456 541.378 381.534C541.378 375.612 544.864 370.572 551.332 370.572C556.372 370.572 558.01 374.436 558.01 374.436V360.744H561.79V393H558.01V389.052ZM551.332 390.48C556.12 390.48 558.262 387.288 558.262 381.954C558.262 376.704 556.12 373.512 551.332 373.47C546.964 373.428 545.536 378.132 545.536 381.534C545.536 384.936 546.628 390.48 551.332 390.48ZM577.46 393.504C571.286 393.504 567.464 388.338 567.464 382.038C567.464 375.738 571.16 370.572 577.334 370.572C583.844 370.572 587.12 376.2 587.246 382.164H571.454C571.454 385.986 572.42 390.606 577.46 390.606C581.744 390.606 582.836 387.708 582.962 385.944H586.784C586.532 389.85 583.34 393.504 577.46 393.504ZM577.334 373.344C573.176 373.344 571.622 376.788 571.496 379.518H583.088C582.92 376.452 581.24 373.344 577.334 373.344ZM607.393 389.052C607.393 389.43 605.545 393.504 600.715 393.504C593.911 393.504 590.761 387.456 590.761 381.534C590.761 375.612 594.247 370.572 600.715 370.572C605.755 370.572 607.393 374.436 607.393 374.436V360.744H611.173V393H607.393V389.052ZM600.715 390.48C605.503 390.48 607.645 387.288 607.645 381.954C607.645 376.704 605.503 373.512 600.715 373.47C596.347 373.428 594.919 378.132 594.919 381.534C594.919 384.936 596.011 390.48 600.715 390.48ZM633.222 381.786V393H629.442V371.076H633.222V376.662C633.222 375.654 635.952 370.572 641.034 370.572V374.856C636.036 374.856 633.222 378.132 633.222 381.786ZM654.036 393.504C647.862 393.504 644.04 388.338 644.04 382.038C644.04 375.738 647.736 370.572 653.91 370.572C660.42 370.572 663.696 376.2 663.822 382.164H648.03C648.03 385.986 648.996 390.606 654.036 390.606C658.32 390.606 659.412 387.708 659.538 385.944H663.36C663.108 389.85 659.916 393.504 654.036 393.504ZM653.91 373.344C649.752 373.344 648.198 376.788 648.072 379.518H659.664C659.496 376.452 657.816 373.344 653.91 373.344ZM685.733 393.504C681.995 393.504 681.323 390.228 681.323 388.296C681.323 389.85 678.089 393.504 673.427 393.504C669.311 393.504 667.337 390.48 667.337 387.12C667.337 380.022 677.627 380.148 681.071 379.938V377.754C681.155 374.478 678.593 373.47 676.451 373.47C673.343 373.47 671.747 375.318 671.747 377.88H667.589C667.589 374.982 669.479 370.572 676.451 370.572C681.197 370.572 684.851 372.924 684.851 377.754V387.876C684.851 389.682 685.943 389.892 686.573 389.892C687.623 389.892 688.085 389.808 688.085 389.808V393.21C688.085 393.21 687.707 393.504 685.733 393.504ZM675.023 390.48C678.173 390.48 681.071 387.498 681.071 384.6V382.206C677.627 382.332 671.117 382.92 671.117 387.12C671.117 389.808 673.091 390.48 675.023 390.48ZM692.114 393V360.744H695.894V393H692.114ZM707.214 365.658H703.434V360.744H707.214V365.658ZM707.214 371.076V393H703.434V371.076H707.214ZM715.637 388.128V374.352H712.235V371.076H715.637V364.146H719.165V371.076H723.323V374.352H719.165V388.254C719.165 389.304 719.753 390.018 721.181 390.018C722.483 390.018 723.449 389.766 723.449 389.766V393.168C723.449 393.168 722.567 393.504 720.467 393.504C715.217 393.504 715.637 389.22 715.637 388.128ZM733.772 394.512L734.066 393.252L726.59 371.076H730.538L736.04 388.464L741.542 371.076H745.28L737.426 394.764C736.334 398.124 735.284 402.744 730.076 402.744C727.808 402.744 727.22 402.492 727.22 402.492V398.796C727.22 398.796 728.396 398.964 729.656 398.964C732.26 398.964 732.974 397.62 733.772 394.512Z" fill="black"/>
<path fill-rule="evenodd" clip-rule="evenodd" d="M600.916 164.784V149.5C600.916 148.35 601.849 147.417 603 147.417C604.15 147.417 605.083 148.35 605.083 149.5V164.784L628.808 174.773C629.58 175.098 630.083 175.855 630.083 176.693V203.009C630.083 203.119 630.074 203.228 630.057 203.335L641.568 210.212C642.556 210.802 642.878 212.081 642.288 213.069C641.698 214.057 640.419 214.379 639.431 213.789L626.58 206.111L603.97 218.011C603.362 218.33 602.637 218.33 602.029 218.011L577.182 204.933L563.137 213.042C562.141 213.617 560.866 213.276 560.291 212.279C559.716 211.283 560.057 210.009 561.054 209.434L575.488 201.1C575.626 201.021 575.77 200.958 575.916 200.913V176.693C575.916 175.855 576.419 175.098 577.191 174.773L600.916 164.784ZM600.916 189.436L580.083 179.933V201.751L600.916 212.716V189.436ZM625.916 201.751L605.083 212.716V189.436L625.916 179.933V201.751ZM622.812 176.77L603 185.807L583.187 176.77L603 168.427L622.812 176.77Z" fill="black"/>
<path d="M589.575 282H586.887L577.647 254.994V282H574.119V250.374H579.789L588.357 275.574L596.925 250.374H602.469V282H598.815V254.994L589.575 282ZM634.702 282H630.124L622.438 267.888H615.592V282H611.812V250.374H625.252C631.552 250.374 635.164 253.566 635.164 259.11C635.164 264.654 631.93 267.888 626.386 267.888L634.702 282ZM625.126 264.36C629.62 264.36 631.258 262.932 631.258 259.11C631.258 255.33 629.242 253.902 625.126 253.902H615.592V264.36H625.126Z" fill="black"/>
<path fill-rule="evenodd" clip-rule="evenodd" d="M410.547 209.111C410.571 209.237 410.583 209.367 410.583 209.5V216.167C410.583 221.92 405.92 226.584 400.167 226.584H375.167C369.414 226.584 364.75 221.92 364.75 216.167V157.834C364.75 152.081 369.414 147.417 375.167 147.417H400.167C405.92 147.417 410.583 152.081 410.583 157.834V164.5C410.583 164.594 410.577 164.686 410.565 164.776L430.142 173.019C430.914 173.344 431.417 174.101 431.417 174.939V196.869C431.417 197.642 430.988 198.352 430.304 198.712L410.547 209.111ZM400.167 151.584C403.618 151.584 406.417 154.382 406.417 157.834V164.5C406.417 164.594 406.423 164.686 406.435 164.776L386.858 173.019C386.086 173.344 385.583 174.101 385.583 174.939V196.869C385.583 197.642 386.012 198.352 386.696 198.712L406.453 209.111C406.429 209.237 406.417 209.367 406.417 209.5V216.167C406.417 219.619 403.618 222.417 400.167 222.417H375.167C371.715 222.417 368.917 219.619 368.917 216.167V157.834C368.917 154.382 371.715 151.584 375.167 151.584H400.167ZM406.417 185.782L389.75 178.179V195.611L406.417 204.383V185.782ZM427.25 195.611L410.583 204.383V185.782L427.25 178.179V195.611ZM424.146 175.015L408.5 182.152L392.854 175.015L408.5 168.427L424.146 175.015Z" fill="black"/>
<path d="M374.372 272.298L370.634 282H366.938L379.118 250.374H382.562L394.658 282H390.836L387.098 272.298H374.372ZM375.716 268.77H385.754L380.756 255.33L375.716 268.77ZM422.978 282H418.4L410.714 267.888H403.868V282H400.088V250.374H413.528C419.828 250.374 423.44 253.566 423.44 259.11C423.44 264.654 420.206 267.888 414.662 267.888L422.978 282ZM413.402 264.36C417.896 264.36 419.534 262.932 419.534 259.11C419.534 255.33 417.518 253.902 413.402 253.902H403.868V264.36H413.402Z" fill="black"/>
<path fill-rule="evenodd" clip-rule="evenodd" d="M85.582 77.9997C85.582 58.4396 101.439 42.583 120.999 42.583C140.559 42.583 156.415 58.4396 156.415 77.9997C156.415 97.5597 140.559 113.416 120.999 113.416C101.439 113.416 85.582 97.5597 85.582 77.9997ZM120.999 46.7497C109.619 46.7497 99.6608 52.8317 94.1961 61.9224L105.658 73.8459C109.09 77.4168 115.115 75.7659 116.248 70.9443L116.687 69.0773C118.65 60.7222 123.581 53.3644 130.562 48.3718L130.689 48.2811C127.638 47.287 124.381 46.7497 120.999 46.7497ZM89.7487 77.9997C89.7487 73.6922 90.6202 69.5883 92.1965 65.8546L102.654 76.7334C108.375 82.6847 118.415 79.9338 120.304 71.8976L120.743 70.0305C122.475 62.6584 126.826 56.1663 132.986 51.761L135.393 50.2549C144.835 55.1635 151.455 64.7505 152.182 75.9443C151.975 75.9259 151.766 75.9163 151.554 75.9163C147.112 75.9163 143.915 79.8847 143.915 84.2497C143.915 87.6855 145.896 90.8755 148.905 92.078C143.756 102.265 133.193 109.25 120.999 109.25C103.74 109.25 89.7487 95.2584 89.7487 77.9997ZM150.537 88.2247C151.422 85.6676 151.985 82.9597 152.176 80.1501C151.973 80.1055 151.765 80.083 151.554 80.083C149.86 80.083 148.082 81.7109 148.082 84.2497C148.082 86.278 149.217 87.7251 150.537 88.2247Z" fill="black"/>
<path fill-rule="evenodd" clip-rule="evenodd" d="M1147.42 90.5003C1147.42 94.1178 1145.58 97.3299 1142.76 99.9441C1139.94 102.553 1136.01 104.692 1131.42 106.254C1130.33 106.625 1129.15 106.043 1128.78 104.954C1128.69 104.704 1128.66 104.448 1128.67 104.198L1128.67 104.128V83.4491C1128.67 82.5574 1129.23 81.7645 1130.08 81.477C1131.41 81.0232 1132.65 80.5241 1133.81 79.9882C1128.05 76.7899 1120.37 73.8337 1112 73.8337C1103.63 73.8337 1095.95 76.7899 1090.19 79.9882C1091.34 80.5241 1092.59 81.0232 1093.92 81.477C1094.76 81.7645 1095.33 82.5574 1095.33 83.4491V104.077C1095.33 104.11 1095.33 104.142 1095.33 104.174C1095.34 104.432 1095.31 104.696 1095.22 104.954C1094.85 106.043 1093.67 106.625 1092.58 106.254C1087.99 104.692 1084.06 102.553 1081.24 99.9441C1078.42 97.3299 1076.58 94.1178 1076.58 90.5003V69.667C1076.58 63.8504 1081.24 59.1453 1087.5 56.0185C1093.87 52.8294 1102.54 50.917 1112 50.917C1121.46 50.917 1130.12 52.8294 1136.5 56.0185C1142.75 59.1453 1147.42 63.8504 1147.42 69.667V90.5003ZM1089.36 59.7453C1083.55 62.6506 1080.75 66.2788 1080.75 69.667C1080.75 71.7778 1081.81 73.9566 1084.07 76.0516C1084.65 76.5841 1085.29 77.1032 1086 77.6045C1092.3 73.762 1101.58 69.667 1112 69.667C1122.42 69.667 1131.7 73.762 1137.99 77.6045C1138.71 77.1032 1139.35 76.5841 1139.93 76.0516C1142.19 73.9566 1143.25 71.7778 1143.25 69.667C1143.25 66.2788 1140.45 62.6506 1134.64 59.7453C1128.95 56.9022 1120.95 55.0837 1112 55.0837C1103.05 55.0837 1095.05 56.9022 1089.36 59.7453ZM1143.25 78.6391C1143.09 78.7982 1142.92 78.9553 1142.76 79.1107C1140.23 81.4478 1136.81 83.4074 1132.83 84.9137V101.257C1135.77 99.9987 1138.18 98.5049 1139.93 96.8849C1142.19 94.7899 1143.25 92.6112 1143.25 90.5003V78.6391ZM1080.75 78.6391V90.5003C1080.75 92.6112 1081.81 94.7899 1084.07 96.8849C1085.82 98.5049 1088.22 99.9987 1091.17 101.257V84.9137C1087.18 83.4074 1083.77 81.4478 1081.24 79.1107C1081.07 78.9553 1080.91 78.7982 1080.75 78.6391Z" fill="black"/>
<path d="M39.4206 182V150.374H50.8026C58.8246 150.374 63.6966 152.894 63.6966 160.328C63.6966 167.72 58.8246 170.408 50.8026 170.408H45.4686V182H39.4206ZM51.8106 155.54H45.4686V165.242H51.8106C56.2206 165.242 57.6486 163.646 57.6486 160.37C57.6486 157.01 56.2206 155.54 51.8106 155.54ZM73.6696 170.408V182H67.8736V149.744H73.6696V163.352C74.1736 162.344 76.3156 159.572 80.3896 159.572C86.6476 159.572 88.1596 164.612 88.1596 170.492V182H82.3636V170.114C82.3636 166.754 81.6076 164.36 78.4996 164.36C76.2736 164.36 73.6696 165.788 73.6696 170.408ZM99.3355 182.252L91.4395 160.076H97.4035L102.024 176.708L106.644 160.076H112.482L104.712 182.252C103.536 185.654 102.57 191.744 96.4795 191.744C93.9595 191.744 92.4895 191.366 92.4895 191.366V186.536C92.4895 186.536 93.9175 186.83 95.1775 186.83C97.3195 186.83 98.2855 186.746 99.0415 183.512L99.3355 182.252ZM120.058 175.07C120.1 176.708 120.772 178.472 124.216 178.472C126.61 178.472 127.534 177.548 127.534 176.246C127.534 170.786 115.228 175.364 115.228 166.124C115.228 162.428 118.504 159.572 123.376 159.572C130.852 159.572 132.154 164.234 132.28 166.376H126.484C126.484 164.738 125.602 163.52 123.502 163.52C122.242 163.52 120.856 164.234 120.856 165.62C120.856 170.408 133.036 165.914 133.036 175.742C133.036 179.606 129.508 182.504 124.132 182.504C115.27 182.504 114.514 177.338 114.514 175.07H120.058ZM137.559 155.792V149.744H143.607V155.792H137.559ZM137.685 182V160.076H143.481V182H137.685ZM169.609 173.768C168.895 178.682 164.989 182.504 159.025 182.504C151.969 182.504 148.147 177.212 148.147 171.038C148.147 164.864 152.095 159.572 159.151 159.572C164.863 159.572 168.349 163.016 169.441 167.594H163.729C163.141 164.864 161.881 163.604 159.151 163.604C155.665 163.604 153.943 165.872 153.943 171.038C153.943 176.204 155.665 178.472 159.151 178.472C162.091 178.472 163.477 177.002 163.897 173.768H169.609ZM191.746 182.504C187.966 182.504 186.496 180.656 185.782 178.598C185.362 180.194 183.304 182.504 179.356 182.504C174.862 182.504 172.51 179.48 172.51 176.12C172.51 169.148 181.666 169.106 185.32 168.938V166.712C185.32 164.57 183.976 163.604 182.128 163.604C180.028 163.604 178.81 164.696 178.81 166.88H173.14C173.14 163.982 175.03 159.572 182.002 159.572C186.748 159.572 190.906 161.798 190.906 166.754V175.616C190.906 177.548 191.452 177.884 192.838 177.884C193.468 177.884 193.888 177.8 193.888 177.8V182.21C193.888 182.21 193.72 182.504 191.746 182.504ZM180.952 178.346C183.136 178.346 185.32 176.204 185.32 172.424V172.172C181.876 172.298 178.18 172.802 178.18 176.12C178.18 177.548 179.272 178.346 180.952 178.346ZM197.278 182V149.744H203.074V182H197.278ZM82.5173 215.076L87.2633 231.078L91.3793 215.076H97.2173L90.0773 237H84.5753L80.3333 223.098L76.0913 237H70.5893L63.4493 215.076H69.2873L73.4033 231.078L78.1493 215.076H82.5173ZM99.3587 226.038C99.3587 219.864 103.433 214.572 110.489 214.572C117.545 214.572 121.619 219.864 121.619 226.038C121.619 232.212 117.545 237.504 110.489 237.504C103.433 237.504 99.3587 232.212 99.3587 226.038ZM110.489 218.604C107.003 218.604 105.155 220.872 105.155 226.038C105.155 231.204 107.003 233.472 110.489 233.472C113.975 233.472 115.865 231.204 115.823 226.038C115.781 220.872 113.975 218.604 110.489 218.604ZM131.932 226.794V237H126.136V215.076H131.932V219.402C132.31 218.016 134.956 214.572 139.828 214.572V220.368C135.796 220.116 131.932 222.048 131.932 226.794ZM143.609 237V204.744H149.405V237H143.609ZM163.694 214.572C167.18 214.572 169.028 216.084 170.372 218.016V204.744H176.168V237H170.372V234.018C169.364 235.824 167.054 237.504 163.694 237.504C157.898 237.504 153.95 232.59 153.95 226.038C153.95 219.486 157.898 214.572 163.694 214.572ZM164.912 233.304C167.768 233.304 170.624 231.204 170.624 226.038C170.624 220.872 167.768 218.772 164.912 218.772C161.804 218.772 159.788 220.998 159.788 226.038C159.788 231.078 161.804 233.304 164.912 233.304Z" fill="black"/>
<path d="M1058.54 175.398L1066.27 151.374H1072.74L1061.57 183H1055.35L1043.76 151.374H1050.35L1058.54 175.398ZM1076.5 156.792V150.744H1082.55V156.792H1076.5ZM1076.63 183V161.076H1082.42V183H1076.63ZM1094.4 172.794V183H1088.6V161.076H1094.4V165.402C1094.78 164.016 1097.42 160.572 1102.29 160.572V166.368C1098.26 166.116 1094.4 168.048 1094.4 172.794ZM1107.08 177.75V165.36H1103.93V161.076H1107.08V154.146H1112.88V161.076H1116.78V165.36H1112.88V176.784C1112.88 178.086 1113.47 178.674 1115.02 178.674C1116.32 178.674 1117.16 178.548 1117.16 178.548V183.294C1117.16 183.294 1115.78 183.504 1113.3 183.504C1107.42 183.504 1107.08 179.472 1107.08 177.75ZM1136.06 172.668V161.076H1141.86V183H1136.06V179.976C1135.56 180.984 1133.42 183.504 1129.34 183.504C1123.08 183.504 1121.57 178.464 1121.57 172.584V161.076H1127.37V172.962C1127.37 176.322 1128.12 178.716 1131.23 178.716C1133.46 178.716 1136.06 177.288 1136.06 172.668ZM1165.63 183.504C1161.85 183.504 1160.38 181.656 1159.67 179.598C1159.25 181.194 1157.19 183.504 1153.24 183.504C1148.75 183.504 1146.4 180.48 1146.4 177.12C1146.4 170.148 1155.55 170.106 1159.21 169.938V167.712C1159.21 165.57 1157.86 164.604 1156.02 164.604C1153.92 164.604 1152.7 165.696 1152.7 167.88H1147.03C1147.03 164.982 1148.92 160.572 1155.89 160.572C1160.64 160.572 1164.79 162.798 1164.79 167.754V176.616C1164.79 178.548 1165.34 178.884 1166.73 178.884C1167.36 178.884 1167.78 178.8 1167.78 178.8V183.21C1167.78 183.21 1167.61 183.504 1165.63 183.504ZM1154.84 179.346C1157.02 179.346 1159.21 177.204 1159.21 173.424V173.172C1155.76 173.298 1152.07 173.802 1152.07 177.12C1152.07 178.548 1153.16 179.346 1154.84 179.346ZM1171.17 183V150.744H1176.96V183H1171.17ZM1073.02 216.076L1077.76 232.078L1081.88 216.076H1087.72L1080.58 238H1075.08L1070.83 224.098L1066.59 238H1061.09L1053.95 216.076H1059.79L1063.9 232.078L1068.65 216.076H1073.02ZM1089.86 227.038C1089.86 220.864 1093.93 215.572 1100.99 215.572C1108.04 215.572 1112.12 220.864 1112.12 227.038C1112.12 233.212 1108.04 238.504 1100.99 238.504C1093.93 238.504 1089.86 233.212 1089.86 227.038ZM1100.99 219.604C1097.5 219.604 1095.65 221.872 1095.65 227.038C1095.65 232.204 1097.5 234.472 1100.99 234.472C1104.47 234.472 1106.36 232.204 1106.32 227.038C1106.28 221.872 1104.47 219.604 1100.99 219.604ZM1122.43 227.794V238H1116.64V216.076H1122.43V220.402C1122.81 219.016 1125.46 215.572 1130.33 215.572V221.368C1126.3 221.116 1122.43 223.048 1122.43 227.794ZM1134.11 238V205.744H1139.9V238H1134.11ZM1154.19 215.572C1157.68 215.572 1159.53 217.084 1160.87 219.016V205.744H1166.67V238H1160.87V235.018C1159.86 236.824 1157.55 238.504 1154.19 238.504C1148.4 238.504 1144.45 233.59 1144.45 227.038C1144.45 220.486 1148.4 215.572 1154.19 215.572ZM1155.41 234.304C1158.27 234.304 1161.12 232.204 1161.12 227.038C1161.12 221.872 1158.27 219.772 1155.41 219.772C1152.3 219.772 1150.29 221.998 1150.29 227.038C1150.29 232.078 1152.3 234.304 1155.41 234.304Z" fill="black"/>
<path d="M207.586 77.5858C206.805 78.3668 206.805 79.6332 207.586 80.4142L220.314 93.1421C221.095 93.9232 222.361 93.9232 223.142 93.1421C223.923 92.3611 223.923 91.0948 223.142 90.3137L211.828 79L223.142 67.6863C223.923 66.9052 223.923 65.6389 223.142 64.8579C222.361 64.0768 221.095 64.0768 220.314 64.8579L207.586 77.5858ZM1025.41 80.4142C1026.2 79.6332 1026.2 78.3668 1025.41 77.5858L1012.69 64.8579C1011.91 64.0768 1010.64 64.0768 1009.86 64.8579C1009.08 65.6389 1009.08 66.9052 1009.86 67.6863L1021.17 79L1009.86 90.3137C1009.08 91.0948 1009.08 92.3611 1009.86 93.1421C1010.64 93.9232 1011.91 93.9232 1012.69 93.1421L1025.41 80.4142ZM209 81L1024 81V77L209 77V81Z" fill="url(#paint0_linear_1815_187)"/>
<path d="M328 296V332H891V296" stroke="black" stroke-width="4"/>
<path fill-rule="evenodd" clip-rule="evenodd" d="M780.832 159.916C780.832 158.766 781.765 157.833 782.915 157.833H837.082C838.232 157.833 839.165 158.766 839.165 159.916C839.165 161.067 838.232 162 837.082 162H782.915C781.765 162 780.832 161.067 780.832 159.916Z" fill="black"/>
<path fill-rule="evenodd" clip-rule="evenodd" d="M772.5 167.333C772.5 162.731 776.231 159 780.833 159H839.167C843.769 159 847.5 162.731 847.5 167.333V184C847.5 188.602 843.769 192.333 839.167 192.333H837.083C837.083 199.869 833.996 205.693 828.948 209.579C823.965 213.415 817.227 215.25 810 215.25C802.773 215.25 796.035 213.415 791.052 209.579C786.004 205.693 782.917 199.869 782.917 192.333H780.833C776.231 192.333 772.5 188.602 772.5 184V167.333ZM780.833 163.167H839.167C841.468 163.167 843.333 165.032 843.333 167.333V184C843.333 186.301 841.468 188.167 839.167 188.167H825.271C824.87 188.167 824.472 188.109 824.087 187.995L813.551 184.873C811.233 184.186 808.767 184.186 806.449 184.873L795.913 187.995C795.528 188.109 795.13 188.167 794.729 188.167H780.833C778.532 188.167 776.667 186.301 776.667 184V167.333C776.667 165.032 778.532 163.167 780.833 163.167ZM787.083 192.333C787.083 198.605 789.593 203.197 793.593 206.277C797.658 209.406 803.42 211.083 810 211.083C816.58 211.083 822.342 209.406 826.407 206.277C830.407 203.197 832.917 198.605 832.917 192.333H825.271C824.47 192.333 823.672 192.217 822.904 191.99L812.367 188.868C810.822 188.41 809.177 188.41 807.632 188.868L797.096 191.99C796.328 192.217 795.53 192.333 794.729 192.333H787.083Z" fill="black"/>
<path d="M793.73 282L781.13 250.374H785.33L795.452 275.994L804.902 250.374H808.976L796.88 282H793.73ZM837.785 282H833.207L825.521 267.888H818.675V282H814.895V250.374H828.335C834.635 250.374 838.247 253.566 838.247 259.11C838.247 264.654 835.013 267.888 829.469 267.888L837.785 282ZM828.209 264.36C832.703 264.36 834.341 262.932 834.341 259.11C834.341 255.33 832.325 253.902 828.209 253.902H818.675V264.36H828.209Z" fill="black"/>
<defs>
<linearGradient id="paint0_linear_1815_187" x1="209.05" y1="-8.16562e+14" x2="1034.05" y2="-8.16562e+14" gradientUnits="userSpaceOnUse">
<stop stop-color="#04D10D"/>
<stop offset="0.0001" stop-color="#0BBEA9"/>
<stop offset="1" stop-color="#DC02FF"/>
</linearGradient>
</defs>
</svg>
